<svg width="162" height="163" viewBox="0 0 162 163" fill="none" xmlns="http://www.w3.org/2000/svg">
<g clip-path="url(#clip0_290_64)">
<mask id="mask0_290_64" style="mask-type:luminance" maskUnits="userSpaceOnUse" x="0" y="0" width="162" height="163">
<path d="M161.883 0.443359H0.216797V162.109H161.883V0.443359Z" fill="white"/>
</mask>
<g mask="url(#mask0_290_64)">
<path d="M146.49 53.3731C139.25 36.7435 125.75 23.4563 108.95 16.525V0.443359H53.1458V17.6209C37.4758 24.7713 24.9278 37.5654 18.0518 53.3731H0.216797V109.179H18.0238C24.9008 124.987 37.4758 137.781 53.1458 144.932V162.109H108.95V146.027C125.75 139.096 139.28 125.809 146.51 109.179H161.88V53.3731H146.49ZM108.95 51.9211V25.5384C121.23 31.4286 131.28 41.2365 137.42 53.3731H110.4L108.93 57.3455L107.5 61.0988C106.4 61.6468 105.34 61.9755 104.38 61.9755C103.88 61.9755 103.42 61.8933 103.01 61.7015C101.88 61.2906 101.04 60.4413 100.62 59.3455C100.13 58.0578 100.38 56.4415 101.28 54.7977L104.98 53.4005L108.95 51.9211ZM53.1458 26.7712V51.9211L57.1188 53.4279L61.1188 54.9073C62.2968 58.277 61.6388 59.5372 60.5978 60.7975C59.3648 61.8111 58.4888 61.9755 57.7218 61.9755C56.8998 61.9755 55.8858 61.7289 54.7078 61.3454L53.2008 57.3455L51.6938 53.3731H27.1198C32.8458 42.0584 41.9958 32.7436 53.1458 26.7712ZM53.1458 110.604V135.781C41.9688 129.809 32.8458 120.494 27.1198 109.179H51.6938L53.2008 105.207L54.6528 101.317C55.8858 100.823 56.8998 100.577 57.7218 100.577C58.2148 100.577 58.6528 100.659 59.1738 100.851C60.2148 101.234 61.0638 102.111 61.4748 103.207C61.9678 104.495 61.7218 106.084 60.8168 107.755L57.1458 109.125L53.1458 110.604ZM108.95 137.014V110.604L104.95 109.125L101.25 107.727C100.6 106.495 100.02 104.796 100.62 103.207C101.04 102.111 101.88 101.262 102.95 100.851C103.36 100.714 103.83 100.632 104.3 100.632C105.99 100.632 107.58 101.673 108.16 103.18L108.9 105.207L110.4 109.179H137.42C131.28 121.289 121.23 131.124 108.95 137.014ZM155.72 103.043H114.65L113.91 101.043C112.43 97.07 108.51 94.468 104.3 94.468C103.14 94.468 101.94 94.659 100.82 95.098C98.0498 96.111 95.8798 98.303 94.8698 101.043C93.7498 104.029 94.0798 107.453 95.9698 110.905C96.6198 112.056 97.6698 112.96 98.9298 113.426L102.82 114.878V155.972H59.2828V114.878L63.1188 113.453C64.3238 113.015 65.3648 112.138 66.0228 111.042C68.0228 107.59 68.3788 104.056 67.2558 101.07C66.2148 98.303 64.0498 96.111 61.2828 95.098C60.1048 94.659 58.9268 94.44 57.7218 94.44C55.9678 94.44 54.1048 94.878 52.0228 95.755C50.8178 96.248 49.4478 97.673 48.9818 98.906L47.4208 103.043H6.3808V59.5098H47.4208L49.0638 63.7837C49.6118 65.2905 50.7898 66.4685 52.2968 67.0164C54.2418 67.7287 56.0498 68.1123 57.7218 68.1123C60.2418 68.1123 62.4608 67.263 64.5978 65.4822C64.8448 65.2905 65.0638 65.0439 65.2828 64.7973C68.2138 61.2632 68.5978 57.4551 66.7898 52.4964C66.2418 51.017 65.0638 49.8115 63.5568 49.2636L59.2828 47.6746V6.5801H102.82V47.6746L98.9498 49.0992C97.7798 49.565 96.7298 50.4143 96.0998 51.5101C94.0798 54.9073 93.7198 58.4688 94.8698 61.4824C95.8798 64.2494 98.0498 66.4411 100.82 67.4548C101.94 67.8931 103.17 68.1123 104.38 68.1123C106.4 68.1123 108.57 67.5096 110.68 66.3589C111.86 65.7288 112.73 64.6603 113.17 63.4549L114.68 59.5098H155.72V103.043Z" fill="black"/>
<path d="M149.579 65.6465V96.906H118.76C115.97 91.673 110.43 88.3032 104.38 88.3032C102.46 88.3032 100.54 88.632 98.6795 89.3443C94.2395 90.9881 90.7625 94.467 89.1195 98.878C88.4345 100.714 88.0785 102.631 88.0785 104.604C88.0785 110.659 91.4495 116.165 96.6495 118.987V149.808H65.4485V118.987C70.6545 116.165 74.0235 110.659 74.0235 104.604C74.0235 102.631 73.6675 100.714 73.0105 98.878C71.3385 94.467 67.8595 90.9881 63.4215 89.3169C61.5585 88.632 59.6405 88.3032 57.7225 88.3032C51.6955 88.3032 46.1615 91.673 43.3395 96.906H12.5195V65.6465H43.3395C46.1615 70.8791 51.6955 74.2489 57.7225 74.2489C60.9555 74.2489 63.9965 73.3448 66.7635 71.5093C68.5715 70.3312 70.1885 68.7148 71.3385 66.9067C73.1195 64.167 74.0235 61.1535 74.0235 57.9207C74.0235 51.9209 70.6545 46.3868 65.4485 43.565V12.7441H96.6495V43.565C91.4495 46.3868 88.0785 51.9209 88.0785 57.9207C88.0785 59.9206 88.4345 61.8384 89.1195 63.6465C90.7625 68.0847 94.2395 71.5641 98.6495 73.2078C100.49 73.8927 102.41 74.2489 104.38 74.2489C110.41 74.2489 115.94 70.8791 118.76 65.6465H149.579Z" fill="black"/>
</g>
</g>
<defs>
<clipPath id="clip0_290_64">
<rect width="162" height="163" fill="white"/>
</clipPath>
</defs>
</svg>
