<svg width="162" height="60" viewBox="0 0 162 60" fill="none" xmlns="http://www.w3.org/2000/svg">
<g clip-path="url(#clip0_290_63)">
<path opacity="0.78" d="M156.415 30.2534C161.173 23.2488 162.876 14.8071 161.089 7.02952C160.485 4.42092 159.567 2.63362 156.874 1.76402C149.519 -0.590982 139.447 1.18432 132.201 6.08752C122.008 -0.92908 108.349 -0.90498 97.9391 6.12382C88.0231 -0.91708 74.1351 -0.92908 63.8701 6.12382C53.7731 -1.00158 40.1751 -1.01368 29.7641 6.08752C23.7741 2.06592 16.9031 0.278619 9.87413 0.894519C6.09413 1.23262 2.1811 1.57082 0.925099 6.81222C-0.958901 14.6622 0.768112 23.3334 5.52611 30.0964C1.56511 36.3644 -0.221914 42.85 0.212086 49.407C0.732086 57.149 2.91812 59.274 10.8641 59.769C11.3951 59.806 11.9271 59.818 12.4701 59.818C18.3031 59.818 24.4991 57.897 29.7521 54.419C39.9451 61.424 53.5441 61.436 63.8581 54.456C74.2441 61.484 87.5891 61.484 98.0961 54.456C108.264 61.496 121.875 61.472 132.201 54.407C138.65 58.767 146.27 60.554 153.698 59.431C160.412 58.429 161.342 55.47 161.753 49.407C162.188 42.838 160.292 36.0504 156.415 30.2534ZM154.736 4.48132H154.773C156.415 4.85572 157.164 5.02482 157.719 6.46192C159.072 9.98842 158.782 15.9906 157.816 19.8311C155.872 27.512 150.087 32.9587 144.495 38.2121C142.249 40.3377 139.918 42.536 137.865 44.842L137.684 44.939C137.213 44.625 136.138 43.478 135.534 42.838C135.111 42.379 134.773 42.016 134.495 41.7507C136.488 39.5768 138.734 37.4754 140.92 35.4344C143.481 33.0311 146.138 30.5554 148.372 27.9468C151.246 24.6256 153.227 20.4349 153.818 16.4616C153.818 16.4012 154.495 9.96422 153.287 9.02222C152.019 8.03192 146.089 8.68412 146.029 8.69622C143.456 9.07052 140.86 9.97632 138.288 11.4014L134.664 8.26142L134.64 8.21311C141.029 4.33641 148.154 3.00792 154.736 4.48132ZM150.848 44.927V48.876C150.848 48.876 150.835 48.876 150.835 48.9C150.485 48.9 150.135 48.912 149.761 48.924C148.867 48.948 147.949 48.973 147.188 48.9C145.872 48.767 141.923 47.632 140.437 46.823L148.734 38.5624C149.024 39.0937 149.338 39.7821 149.519 40.2531C149.966 41.3763 150.848 44.19 150.848 44.927ZM103.748 44.915C103.675 44.987 103.663 44.987 103.663 44.999C103.252 44.782 100.873 42.644 100.282 41.9318L126.682 15.6162C127.116 16.0389 127.612 16.4254 128.095 16.8118C128.831 17.3915 129.592 17.9954 130.015 18.6113C130.027 18.6234 130.039 18.6475 130.051 18.6596L103.748 44.915ZM115.124 38.0914L123.711 46.956C117.696 49.649 111.308 49.528 106.332 46.654L115.124 38.0914ZM69.5101 44.83L69.3281 44.903C68.8571 44.649 67.7461 43.453 67.1181 42.789C66.7561 42.403 66.4301 42.053 66.1401 41.7748L92.5041 15.5317C93.0601 15.9302 94.2071 17.1379 94.8711 17.8263C95.2581 18.2369 95.5721 18.563 95.8131 18.8166L69.5101 44.83ZM80.8861 38.0914L89.5571 46.763C84.3161 49.625 77.7341 49.625 72.3961 46.75L80.8861 38.0914ZM35.4411 44.842L35.2351 44.939C34.7761 44.625 33.7141 43.49 33.1101 42.85C32.6871 42.391 32.3491 42.041 32.0831 41.7748L58.3871 15.5317C59.2561 16.2442 61.3941 18.2731 61.6351 18.6113C61.6481 18.6234 61.6601 18.6475 61.6721 18.6596L35.4411 44.842ZM46.8291 38.0914L55.5001 46.763C51.0201 49.19 45.5971 49.589 40.5011 47.825C39.9331 47.632 38.5691 47.04 38.0851 46.75L46.8291 38.0914ZM29.7641 39.4923L20.5381 30.2534L29.8131 20.8576C29.8131 20.8576 29.8491 20.8818 29.8611 20.9059L39.0031 30.2897L29.7641 39.4923ZM46.8411 22.5001L38.2421 13.6235C44.1601 10.8942 50.6821 11.0149 55.6331 13.9375L46.8411 22.5001ZM63.8581 21.0991L73.3021 30.3017L64.0391 39.4923L54.5951 30.2897L63.8581 21.0991ZM89.6541 13.6235L81.0671 22.488L72.2871 13.7202C77.5771 11.0029 83.8211 10.9666 89.6541 13.6235ZM97.9141 21.0991L107.359 30.3017L98.0961 39.4923L88.6511 30.2897L97.9141 21.0991ZM115.136 22.488L106.586 13.7081C111.573 10.9908 117.878 10.9545 123.711 13.6235L115.136 22.488ZM132.249 20.8576C132.249 20.8576 132.285 20.8818 132.309 20.9059L141.415 30.0723L132.189 39.4923L122.95 30.2897L132.249 20.8576ZM140.486 13.7926C141.258 13.3699 142.418 12.8627 143.263 12.5849C144.048 12.3313 146.27 11.7154 146.609 11.6912H150.848V15.6645C150.848 16.6307 149.761 19.8069 149.193 21.0146C149.145 21.1112 149.096 21.2441 149.036 21.4011C148.988 21.5581 148.867 21.8479 148.758 22.0653L140.486 13.7926ZM105.68 5.64072C108.083 4.72292 111.09 4.08282 113.711 3.92582C116.271 3.78092 119.266 4.10692 122.129 4.84362C129.508 6.75182 134.858 12.4279 140.039 17.9229C142.2 20.2175 144.435 22.5967 146.79 24.6498L146.874 24.8309C146.56 25.2898 145.425 26.3526 144.785 26.9444C144.338 27.3671 143.976 27.7052 143.698 27.983L129.435 13.7685C125.293 10.2903 120.365 8.50292 115.245 8.50292C112.491 8.50292 109.677 9.01022 106.9 10.0609C106.574 10.1816 106.175 10.399 105.752 10.6285C105.209 10.9183 104.134 11.5222 103.844 11.498C103.518 11.2685 100.849 8.61162 100.583 8.26142C100.583 8.24932 100.571 8.23721 100.559 8.22521C101.332 7.66961 104.798 5.97892 105.68 5.64072ZM67.7341 7.48852C68.9661 6.82422 70.1381 6.19622 71.4301 5.71322C76.7441 3.70842 82.1901 3.38232 87.6491 4.74702C95.4151 6.69142 101.03 12.6574 106.465 18.4181C108.518 20.5919 110.644 22.8382 112.841 24.8309L109.653 28.0192C107.504 26.0507 105.426 23.8527 103.397 21.7151C101.042 19.2272 98.6031 16.6428 96.0551 14.4206C91.5621 10.5077 86.3211 8.51502 80.9711 8.51502C77.2391 8.51502 73.4351 9.48122 69.7991 11.4618C69.3281 11.1236 68.2171 10.0125 66.5021 8.14062C66.9131 7.92322 67.3241 7.70592 67.7341 7.48852ZM56.2731 5.64072C62.6141 8.04402 67.6131 13.3458 72.4441 18.4664C74.4971 20.6281 76.6111 22.8624 78.7731 24.8188C78.5071 25.0724 78.1691 25.4227 77.7581 25.8574C77.1301 26.5217 76.0311 27.669 75.5001 28.1038L60.6571 13.3578C56.6361 10.1333 51.7081 8.49092 46.7691 8.49092C42.9771 8.49092 39.1841 9.45702 35.7911 11.4255C35.0181 10.8338 32.8201 8.80491 32.2041 8.20101C39.7041 3.59971 48.4471 2.65772 56.2731 5.64072ZM3.53313 9.77102L3.58208 9.40872C4.00408 6.31702 4.16109 5.16972 7.21709 4.48132C11.2631 3.57562 15.5261 3.72052 19.8861 4.90402C27.3131 6.90882 32.8081 12.7782 38.1221 18.4543C40.1991 20.6644 42.3371 22.959 44.5471 24.9517C43.9191 25.7246 42.1671 27.4758 41.4191 28.0796L27.0111 13.7564C23.0381 10.3869 17.6511 8.39422 12.5431 8.39422H12.2051C10.8281 8.41842 8.48508 8.63581 8.14708 9.79521C8.01408 10.2299 7.83312 12.8627 7.83312 13.2854C7.84512 15.5558 8.46109 18.5509 9.47509 21.2924C9.68109 21.8479 9.94609 22.3431 10.2121 22.8382C10.4661 23.3092 10.7191 23.7561 10.8881 24.2271C10.3451 24.9396 8.19514 27.2704 7.60314 27.8622C7.10814 26.9927 5.97312 24.8068 5.76812 24.3478C3.67812 19.7224 2.89313 14.5535 3.53313 9.77102ZM21.5161 13.7685L13.2191 22.0291C12.9291 21.4977 12.6271 20.8093 12.4341 20.3383C11.9871 19.2151 11.1061 16.4012 11.1061 15.6645V11.7154C11.6491 11.7275 12.1801 11.7033 12.7121 11.6792C13.5331 11.6429 14.3061 11.6188 15.0311 11.6912C16.3711 11.8241 20.0911 12.9835 21.5161 13.7685ZM7.67614 56.146C4.23414 55.506 4.12512 54.757 3.57012 51.038C3.08712 47.753 3.2801 44.383 4.1491 40.7603C5.9971 33.0674 11.9511 27.4999 17.7121 22.1257C19.9581 20.0243 22.2771 17.8625 24.2941 15.6162C24.4991 15.7853 24.7281 15.9906 25.0061 16.2201C25.7311 16.8481 27.1561 18.0799 27.5911 18.6475C25.5011 21.0025 23.0741 23.273 20.7311 25.471C18.1831 27.8501 15.5501 30.3138 13.3161 32.8983C10.4531 36.2194 8.65413 40.1807 8.09813 44.359C8.09813 44.42 7.55508 50.434 8.56908 51.436C9.37908 52.245 14.5601 51.944 14.6201 51.944C17.7961 51.738 20.5741 50.675 23.7141 49.142C24.5351 49.746 27.0591 51.992 27.3011 52.318C27.3131 52.342 27.3251 52.354 27.3371 52.366C21.1901 56.038 14.2341 57.378 7.67614 56.146ZM21.5161 46.823C20.9001 47.125 19.6201 47.62 19.0281 47.825C17.8811 48.2 15.4291 48.9 14.8251 48.9H11.1301C11.1301 48.9 11.1301 48.888 11.1061 48.876C11.1061 48.514 11.1061 48.127 11.0811 47.729C11.0451 46.787 11.0211 45.808 11.1061 44.987C11.2751 43.345 12.3131 40.2048 13.2191 38.5624L21.5161 46.823ZM37.3611 54.878C31.2261 52.596 26.3101 47.354 21.5521 42.282C19.3541 39.9391 17.2651 37.717 15.0671 35.7605C15.2961 35.4948 15.5981 35.1567 15.9611 34.734C16.5401 34.0456 17.5671 32.8379 18.0741 32.4514C20.3691 34.5045 22.5671 36.8233 24.7041 39.0817C26.9991 41.497 29.3661 44.009 31.8541 46.171C39.5111 52.849 49.4981 53.912 58.0241 48.973C58.8221 49.661 61.1041 51.968 61.3581 52.318C61.3701 52.342 61.3821 52.354 61.3941 52.366C54.1241 56.859 45.1751 57.801 37.3611 54.878ZM80.8621 56.569C77.9151 56.569 74.9681 56.11 72.2031 55.144C65.5601 52.837 60.4161 47.378 55.4281 42.113C53.3871 39.9391 51.2861 37.7049 49.1121 35.7605L52.2761 32.6084C53.3751 33.7799 54.5701 34.8668 55.7181 35.9296C56.5511 36.7025 57.3961 37.4754 58.1941 38.2604C59.1481 39.2024 60.0781 40.1927 61.0071 41.183C64.6551 45.036 68.4231 49.021 73.6401 50.796C79.8351 52.898 86.8401 52.197 92.0451 48.997L95.4871 52.185C91.4411 55.047 86.1641 56.569 80.8621 56.569ZM114.955 56.641C103.772 56.557 97.6131 50.313 90.4871 43.079L89.0981 41.6661C87.4081 39.9633 85.5841 38.0189 83.3981 35.5794C83.5551 35.4103 83.7481 35.2171 83.9541 34.9997C84.6181 34.2992 85.8981 32.9466 86.4781 32.4756C88.8451 34.5649 91.1031 36.9803 93.3011 39.3111C95.6921 41.8473 98.1681 44.48 100.753 46.702C107.83 52.753 117.769 53.707 126.162 49.166C126.959 49.758 129.339 51.895 129.665 52.258C129.701 52.294 129.737 52.318 129.761 52.354C124.556 55.313 119.87 56.702 114.955 56.641ZM158.384 51.038L158.347 51.291C158.118 52.873 157.804 55.035 156.451 55.615C153.492 56.883 147.188 56.714 143.964 56.098C135.546 54.528 129.725 48.357 124.085 42.403C121.935 40.1203 119.701 37.7532 117.358 35.6881C117.539 35.4948 117.769 35.2533 118.022 34.9876C118.687 34.2871 119.955 32.9345 120.547 32.4756C122.853 34.5287 125.075 36.8957 127.237 39.1783C129.58 41.6782 132.008 44.251 134.556 46.436C138.3 49.649 142.961 51.666 147.345 51.944C147.394 51.956 152.575 52.245 153.384 51.436C154.398 50.434 153.867 44.42 153.855 44.359C153.517 41.7627 152.562 38.9971 151.101 36.316C151.657 35.5914 153.504 33.5384 153.975 33.0674L154.132 32.8862C154.217 32.8017 154.265 32.7413 154.314 32.693C157.888 38.5503 159.289 44.891 158.384 51.038Z" fill="black"/>
</g>
<defs>
<clipPath id="clip0_290_63">
<rect width="162" height="60" fill="white"/>
</clipPath>
</defs>
</svg>
