<svg width="150" height="177" viewBox="0 0 150 177" fill="none" xmlns="http://www.w3.org/2000/svg">
<g clip-path="url(#clip0_290_60)">
<mask id="mask0_290_60" style="mask-type:luminance" maskUnits="userSpaceOnUse" x="7" y="7" width="136" height="163">
<path d="M7 7H142.61V101.747C142.61 139.195 112.252 169.552 74.8048 169.552C37.3572 169.552 7 139.195 7 101.747V7Z" fill="white"/>
</mask>
<g mask="url(#mask0_290_60)">
<path d="M7 7H142.61V101.747C142.61 139.195 112.252 169.552 74.8048 169.552C37.3572 169.552 7 139.195 7 101.747V7Z" fill="white"/>
<path d="M7.04109 83.2682V102.599C7.04109 126.557 20.0771 148.77 41.1053 160.693C43.7762 159.12 46.3854 157.314 48.892 155.305C49.2926 155 49.6932 154.666 50.1041 154.321C52.2511 152.535 54.2954 150.596 56.1958 148.547C56.3396 148.405 56.4732 148.252 56.6067 148.11L56.9046 147.775C58.3736 146.152 59.8015 144.396 61.1575 142.57C63.3456 139.586 65.1741 136.583 66.6945 133.63C71.4816 124.345 73.7621 114.005 73.7621 103.593V83.2682H7.04109ZM29.9697 132.29C28.4288 132.23 27.9357 130.758 28.2644 129.459C28.4802 128.617 28.9938 128.678 28.3158 127.744C27.9665 127.278 27.4426 126.811 27.0831 126.324C24.2067 122.498 22.7583 118.104 22.5939 113.365C22.522 111.285 22.5734 109.175 22.7583 107.115C22.6864 106.8 21.8851 106.912 21.5358 106.557C20.4777 105.511 21.5872 103.451 23.0254 103.37C23.7034 103.33 24.3608 103.918 24.5663 104.527C24.9977 105.785 24.3608 108.89 24.2992 110.362C24.0526 115.618 25.2134 121.23 28.5007 125.451C29.3944 126.608 31.5003 128.363 31.6236 129.774C31.7366 130.992 31.5209 132.361 29.9697 132.29ZM39.0918 137.953C37.253 138.602 34.7362 137.658 35.0238 135.436C35.0752 135.01 35.5683 133.975 35.4039 133.64C35.2088 133.265 33.1953 132.321 32.7947 131.885C32.5276 131.428 32.8152 130.931 32.8563 130.474C33.0618 128.343 31.223 127.075 30.0108 125.624C25.9223 120.712 25.1107 115.415 25.3675 109.215C25.4292 107.612 25.9942 105.156 25.3778 103.725C25.1004 103.066 24.5149 102.619 24.2889 101.98L25.7065 98.5502C25.6963 98.4386 25.6449 98.3777 25.573 98.3168C25.1929 97.9515 23.9294 97.3934 23.6623 97.0382C23.4055 96.7034 24.0835 96.0032 24.2992 95.7191C24.8847 94.9377 25.7271 93.9027 26.3948 93.1924C26.5386 93.0401 27.0214 92.5226 27.1961 92.5226C27.4118 92.5226 30.2676 94.3593 30.7607 94.6231C32.6919 95.6886 36.1333 97.6471 38.27 97.7891C43.5193 98.1443 46.8271 93.2735 51.6142 92.5125C54.9836 91.9747 56.5245 94.0346 56.1856 97.2107C56.1445 97.5963 56.1445 97.9008 55.713 97.8703C55.5178 97.8602 53.679 97.4543 53.5968 97.3934C53.4119 97.2615 53.7304 96.2366 53.4838 95.7292C52.9805 94.6637 51.419 95.2523 50.628 95.6074C49.344 96.1757 48.1626 96.9875 46.9915 97.7486L48.8509 104.101C48.8714 104.212 49.0255 104.395 49.1282 104.314C49.272 104.202 49.95 101.452 50.289 101.087C50.4123 100.965 50.628 100.925 50.8027 100.894C50.9978 100.864 51.8608 100.752 51.9532 100.874L51.9738 101.067C49.9295 108.058 47.8955 115.05 45.8512 122.031C44.7315 125.847 43.7659 129.855 42.4715 133.61C41.8552 135.396 41.0334 137.273 39.0918 137.953ZM52.5182 101.178C52.6415 100.519 53.5455 100.823 54.0386 100.884L46.8066 129.612C46.7244 129.662 44.9267 129.206 44.8034 129.124C44.6802 129.033 44.7623 128.85 44.7726 128.739L52.5182 101.178ZM47.1148 133.437C46.4676 134.898 45.615 136.045 43.9508 136.481C43.4885 136.603 42.1942 136.867 42.3585 136.065C42.4407 135.659 42.9646 134.685 43.1495 134.188C43.6426 132.798 43.9713 131.367 44.5363 129.997C44.6185 129.896 44.711 129.855 44.8548 129.865C45.728 129.936 47.0018 130.647 47.9571 130.707C48.142 130.921 47.2791 133.072 47.1148 133.437ZM56.278 101.98C56.2266 103.248 55.7644 105.288 55.5384 106.628C54.3467 113.67 52.888 120.672 51.7888 127.724C51.193 129.236 50.3404 130.251 48.553 130.078C48.327 130.058 47.8133 130.038 47.7825 129.774L54.6036 101.3C54.6344 101.168 54.6857 101.016 54.8193 100.975C55.148 100.864 56.1547 101.199 56.2575 101.554C56.2985 101.696 56.278 101.838 56.278 101.98ZM55.5589 100.296C53.8537 99.8491 52.2819 99.9201 50.5561 100.255C50.5869 99.3113 51.984 98.3878 52.8572 98.2458C54.2235 98.0428 56.7095 98.5705 56.6375 100.306C56.617 100.904 55.9185 100.397 55.5589 100.296ZM7 7V81.2387H73.8032V7H7ZM68.7388 36.7523C67.9478 36.6305 67.3211 35.8695 66.7869 35.3519C66.6945 35.2606 66.4069 34.9562 66.2528 35.0881C66.0473 35.8187 65.6364 37.006 65.4515 37.8076C65.3488 38.4165 65.7289 38.6905 65.811 39.208C66.037 40.8417 65.4823 41.7956 64.5681 43.0741C62.6573 45.1138 59.4831 45.9256 57.0074 46.3619C59.2057 47.5289 62.4622 48.6552 63.7668 50.8877C63.4175 50.8775 63.0374 50.8775 62.6984 50.8877C62.154 50.4818 61.4965 49.9135 60.9213 49.6598C62.7087 53.0795 59.4009 57.8082 61.363 58.346C62.3902 58.7722 63.4381 58.9853 63.849 60.1016L63.7565 60.1726C62.5032 59.2187 62.4622 60.3045 61.4554 59.7464C60.3152 58.7012 58.8975 59.2999 57.6751 59.7464C56.4937 58.894 55.2507 59.1883 54.2543 60.1827C53.5968 60.1421 52.8367 60.1827 52.3025 60.6292H52.0354C52.0662 60.0305 52.6517 59.5739 53.1654 59.4623C53.3297 58.7621 54.3878 58.7824 54.9631 58.6911C54.1413 58.5693 52.8572 58.4881 52.0354 58.5186C51.6348 58.4577 50.9773 58.275 50.6178 58.6911C50.5253 58.478 50.7821 58.1938 50.7924 58.0822C51.193 57.8691 51.3471 57.585 51.8197 57.5647C52.6209 56.7833 53.5249 57.4328 54.4289 57.6357C53.9769 57.3617 52.9907 57.0167 52.5696 56.8138C52.4155 56.6514 52.549 56.3977 52.4258 56.3166C52.1278 56.1035 51.4704 56.144 51.193 56.4079C51.1109 56.3876 51.1622 56.2455 51.1519 56.2354C51.3882 55.6671 52.0765 55.4033 52.6107 55.6164C52.6928 55.5961 52.8675 55.0989 53.3708 55.4439C54.2132 56.3571 56.2164 58.2243 57.3669 56.9355C57.8292 56.9254 58.0141 56.4282 58.2606 56.1035C58.2914 55.799 58.0244 55.3728 58.2504 55.0075C59.103 54.8553 58.7537 52.907 58.6099 52.288C58.6099 51.7908 58.6921 51.182 58.0757 50.9689C57.9216 50.4615 57.7162 50.6035 57.3669 50.5325C57.0382 50.4615 56.504 50.1875 56.4321 50.1774C55.8774 50.3702 55.2507 50.4513 54.696 50.2687C54.4495 50.0048 53.9564 49.6801 53.5455 50.0048C52.8161 50.0556 52.21 49.9338 51.5937 49.5685C50.7924 49.6497 50.1144 49.2438 49.457 48.8683C49.4672 48.4218 49.0152 48.361 48.6557 48.3407C47.9571 47.7014 47.9366 48.0464 47.5051 48.4726C47.0326 48.9292 46.6525 49.051 46.3751 49.7207C45.4609 53.1303 51.8608 51.2225 51.3266 54.4799C46.8991 52.3996 49.8473 55.931 42.9749 58.2141C42.2866 58.5084 43.7351 58.5997 43.9508 58.6099C44.7212 59.0665 46.1697 58.9853 46.1697 60.1016H46.0875C45.8102 59.716 45.5431 59.7768 45.1116 59.6957C44.7932 59.7362 44.5261 59.9899 44.2179 60.0102C43.2112 60.0204 42.4202 58.823 41.3724 58.9549C40.6327 59.0665 40.9409 59.239 40.0369 59.0462C39.3589 58.894 39.5952 59.097 39.4514 59.1375C38.3419 59.1375 37.027 59.239 36.1333 60.0102C35.784 59.6754 34.7978 59.5942 34.7054 60.1827C34.6746 60.2132 34.4486 60.2335 34.3972 60.3654C34.3048 60.3654 34.3767 60.203 34.3561 60.1827C34.2328 59.4521 34.5513 59.2492 35.1574 59.0056C35.1471 58.8636 34.3561 58.5794 34.2637 58.478C34.0479 58.2344 34.4075 57.9097 33.524 58.1025C33.298 58.1431 33.2775 58.2953 33.1953 58.346C32.1783 58.8331 33.2261 57.6763 33.4624 57.4632C34.2637 57.1689 35.3526 57.037 36.1333 57.4632C36.4928 57.9503 37.2941 57.7879 37.818 57.8184C37.8899 57.2907 37.6537 57.3719 37.4277 57.1892C36.9346 56.6413 36.1128 56.7326 35.5478 56.3267C35.3834 55.5758 34.767 55.6062 34.1507 55.8904C34.0479 55.9411 34.1404 56.0933 33.9966 56.0629C34.2842 54.5205 35.6813 55.6874 35.9587 55.0075C36.7599 55.1597 36.8935 55.4845 37.4687 55.9715C38.1467 56.4891 39.2151 57.2298 40.0369 56.6717C40.5505 56.4891 41.1669 56.5195 41.6703 56.4891C41.8654 56.418 41.773 55.8904 42.4202 55.728C42.5434 55.6976 42.8722 55.728 42.8824 55.7077C42.79 55.2612 43.2523 54.8553 43.5913 54.5712C43.1393 54.6219 42.9441 54.2059 42.7078 54.0435C42.1942 53.8304 41.0642 53.9928 40.5505 53.5159C40.3245 53.3129 40.304 52.9375 40.2013 52.836C39.2356 52.562 37.9618 51.5676 38.6193 50.4412C38.0337 50.5427 37.479 50.5122 36.9037 50.4615C36.3182 50.9689 35.4656 51.5676 34.7054 51.7604C33.2467 51.5473 33.4624 52.1764 32.3221 52.562C32.2913 52.6026 32.1989 53.3434 32.1372 53.5159C32.1064 53.597 31.8804 53.7493 31.9523 53.9522L31.4284 54.7437C30.9456 53.8 30.5244 52.8258 30.3087 51.8517C29.5485 53.0795 28.4082 53.8101 27.5145 54.9162C27.2988 54.9568 27.1755 55.038 27.155 55.2714C26.4051 55.9918 25.9223 57.1892 25.6449 58.1634C26.7852 58.3257 27.8638 58.6403 28.9322 58.9549L29.2917 59.4014C29.2917 59.5231 29.3739 59.7362 29.3842 59.9189C29.2403 59.8885 28.7575 59.5637 28.7164 59.5637C27.7919 59.7565 26.9701 60.2132 26.0353 59.7159C24.4122 58.2446 24.4635 59.4724 22.8096 59.4826C21.6488 59.1883 21.0017 60.0001 19.9641 60.3654C19.8408 60.3857 18.8649 60.3857 18.8033 60.3654C18.6184 59.7362 17.3446 60.0813 17.211 60.6292H17.0261C16.9131 59.9899 17.55 59.4318 18.0945 59.31C18.7828 58.4069 16.3481 58.4171 15.8756 58.6911C16.2351 57.3516 17.437 58.2141 18.0945 57.5545C18.1869 57.4632 18.3102 57.5038 18.2794 57.3313C18.2588 57.2704 18.115 57.311 18.0945 57.2298C18.1664 56.5297 17.55 56.2861 16.9439 56.6717L17.0261 56.2354C17.7863 55.5149 18.4848 56.3977 19.2861 56.2455C21.4742 57.1588 22.9535 57.8285 24.4944 55.3627C24.7101 55.2917 24.6484 55.1192 24.669 54.9669C24.7614 54.2363 24.8539 54.0435 25.3778 53.5159C25.686 53.1607 25.4394 53.1911 25.46 52.7751C25.4805 52.562 25.6141 52.3996 25.6449 52.1967C26.3845 51.9836 26.0763 52.0546 26.1791 51.4965C26.2304 51.253 26.2921 51.0399 26.3537 50.7963C25.2648 50.7659 23.9294 50.8572 22.9329 51.2327C22.861 52.0039 22.2241 52.7852 21.9159 53.5159C21.7516 53.5057 21.6899 53.6478 21.5666 53.6884C21.7824 49.0814 16.153 47.397 15.516 43.1553L14.8997 44.2107C14.5504 44.5658 14.5607 45.1645 14.3655 45.6212C13.9443 45.6212 13.4923 46.0372 13.2047 46.3213C12.8246 46.301 12.4034 46.3924 12.0542 46.23V46.1488C12.6705 46.1894 13.1944 45.5907 13.3074 45.0529C13.2971 45.0022 12.8349 44.9007 13.1225 44.4745C13.2971 44.3426 13.4821 44.2918 13.6567 44.1498C13.9032 43.8555 13.9854 43.1756 14.4271 43.0539C14.7456 42.0391 14.6223 40.5474 14.8997 39.4718C14.0368 39.4008 13.6567 38.5991 13.6156 37.8888C13.5334 37.625 13.2458 37.3916 13.2971 37.0669C13.7183 36.4174 12.9787 35.9101 12.6808 35.8289C13.7697 35.0983 15.0024 36.8741 15.3414 37.8076C15.4544 38.0816 15.4647 38.5991 15.7831 38.7716C15.0024 36.4479 16.9439 35.6767 15.249 34.1241C16.2454 34.0632 17.2521 35.5042 17.2932 36.3464C17.2624 36.6305 16.8515 37.351 16.985 37.5438C17.1802 37.8381 17.3754 37.2394 17.5603 37.1075C17.9918 37.0263 18.341 36.3464 18.3616 35.7883L18.6287 35.8796C19.2039 36.4885 18.5054 37.4119 18.6287 38.244C15.8859 40.588 18.0534 39.35 18.1869 43.2467C18.2691 43.5917 18.3924 43.3684 18.6287 43.5105C18.9677 43.7439 19.2348 44.4542 19.1628 44.8297C19.9847 44.7891 20.3339 45.0022 20.6832 45.7023C20.714 45.7226 21.1763 45.5704 21.3817 45.6212C21.618 45.6617 21.9673 46.0068 22.0597 46.1488C22.2344 46.1691 22.3679 46.0271 22.5117 45.9865C23.2308 46.1285 22.9945 45.4182 23.5082 45.0326C21.8132 42.9016 23.7034 42.5262 23.426 40.4358C23.5185 39.827 24.1656 39.3703 24.217 39.2384C24.33 38.8833 24.1965 38.244 24.4944 37.8076C24.9258 37.5844 25.0902 36.9755 25.2032 36.4885C25.3059 36.0623 25.686 35.6158 25.9942 35.423C25.8298 34.9968 26.0661 34.2865 26.3537 33.9415C27.2988 33.5254 26.7133 33.4239 26.6208 32.7136C25.4908 32.8354 24.6998 33.637 24.3197 34.6518C23.8266 32.9369 23.765 34.3879 23.426 35.1693C22.9637 36.3768 22.7583 34.7532 22.7891 34.2662C22.409 33.7588 22.4501 33.2108 22.2549 32.6426C20.5394 32.7542 18.8136 32.3584 17.1186 32.5411C17.0878 32.673 17.2316 32.5817 17.2932 32.6933C17.4884 33.0586 17.3857 33.1601 17.3857 33.4138C15.742 32.3382 14.2628 30.8059 13.5642 29.0301C15.1154 29.7607 16.6255 30.3797 18.3616 30.6943C18.0431 30.9784 17.3549 31.0596 17.1186 31.3944C20.2415 31.6075 23.4055 31.3741 26.477 30.948C27.0112 30.7552 25.8812 30.0854 25.6449 29.9941C25.2134 30.0651 24.9258 29.6795 24.4019 29.8216V30.5218C24.4019 30.5218 24.1965 30.3797 24.1348 30.3493C24.0732 30.2985 24.0629 30.1159 23.8677 30.1666C24.0424 30.8972 23.4055 30.3696 23.426 30.9581C22.6453 30.4304 23.2514 31.1002 22.8096 31.0494C22.5528 30.7856 22.3474 30.8566 22.183 30.745C21.5358 28.888 19.2039 29.9028 17.7452 29.7303C18.8341 27.9748 21.3612 27.8124 23.2514 27.8022C23.8677 27.7515 23.4671 27.7312 23.6931 27.2746C24.782 25.9859 26.6003 26.7063 28.0487 26.5744C29.0143 26.6759 29.9491 26.8585 30.7093 26.0467C31.716 25.7626 33.1439 25.5698 33.9144 24.8189H33.9966L33.9144 25.5191C33.9966 25.8539 33.7398 26.2395 33.8219 26.5744C33.8425 26.5947 34.5102 26.5034 34.2637 26.7469C34.2226 26.8382 33.3289 27.0818 33.3802 27.3659C32.8871 27.4166 32.1475 28.1574 32.2605 28.6851C32.62 29.0707 32.7022 29.5882 32.959 29.9738C33.3699 30.126 34.3356 30.4406 34.6232 30.9581C34.6438 31.4249 33.3289 30.7957 33.0309 31.5467C33.1645 31.983 33.6987 31.9931 34.0274 32.2062C34.4897 32.5005 34.8903 33.2108 34.7876 33.7588C34.7362 33.7994 34.654 33.7588 34.6232 33.7689C34.1096 33.566 33.4829 33.0383 32.9385 33.3732C32.733 33.5558 32.5276 34.1545 32.7536 34.3879C33.2672 35.3316 34.0993 34.7837 34.5308 36.4073C34.4999 36.458 34.6027 36.7117 34.4897 36.7523C34.0377 36.4174 32.3221 35.494 32.2194 36.4885C32.0448 38.2034 33.9966 37.4829 33.9966 38.9441C33.4521 38.9238 32.8563 38.5991 32.579 39.208C32.466 39.3805 32.3632 39.2892 32.4043 39.6849C32.4865 40.172 32.7433 40.2937 32.805 40.6996C33.7911 40.5271 35.0547 40.2532 36.0408 39.9995C39.3076 39.8676 36.6777 35.0069 38.7939 33.3326C42.5845 30.0144 47.0018 27.234 51.4088 24.8189H51.5937C48.5016 33.0383 57.9319 26.7063 61.363 25.8742C61.363 25.8844 61.4349 25.925 61.4554 25.9554C59.9351 26.8991 55.6822 30.3594 58.7845 31.6583C58.8564 31.78 58.9592 31.7192 59.0516 31.8409C59.1544 31.8917 59.4112 31.8612 59.4112 32.0134C56.1342 33.1297 53.0421 36.1231 55.3226 39.5631C54.8809 39.4414 54.2132 39.3703 53.8126 39.5631C52.5182 39.7661 51.2649 40.3343 50.6999 41.5825C53.8228 40.8113 61.5992 44.3426 62.7806 40.791C61.2911 41.065 59.4009 41.4506 58.1682 40.3546C56.5862 38.7006 57.9114 36.1637 60.0275 35.8796C60.9315 35.7375 61.815 35.7578 62.6984 36.0521C62.9347 36.0623 64.3215 36.8944 63.962 36.4174C64.301 36.2754 64.7221 35.1287 64.8351 34.8649C64.8762 34.5604 64.3934 34.8141 64.301 34.8243C63.4278 34.946 62.5751 34.8243 61.7225 34.9055C63.5613 32.6223 66.0679 30.6638 67.9375 28.3299C67.9375 28.3401 68.1224 28.4923 68.1121 28.5938C67.6601 31.1002 67.8758 34.1343 68.7388 36.5798C68.7182 36.6102 68.749 36.7016 68.7388 36.7523ZM86.7878 143.757C79.8024 134.259 76.4124 124.558 74.7996 116.765C73.1868 124.558 69.7968 134.259 62.8114 143.757C57.5621 150.901 50.7924 157.121 43.1803 161.819C52.8675 166.883 63.7668 169.552 74.8304 169.552C85.8941 169.552 96.7523 166.893 106.439 161.83C98.8171 157.121 92.0474 150.911 86.7878 143.757ZM73.1971 143.899L74.2141 144.569C74.2963 144.133 73.9778 143.95 73.7005 143.686L73.8135 143.463H75.7858L75.1078 144.396C75.4879 144.883 75.6934 143.98 76.1248 144.011V145.797C75.7653 145.594 75.6112 145.127 75.1078 145.239L75.6728 146.121H73.6491C73.7929 145.807 74.286 145.665 74.2141 145.239C73.7107 145.117 73.5464 145.594 73.1971 145.797V143.899ZM74.3271 150.515C73.7826 149.988 74.5942 149.227 75.0873 149.714C75.529 150.15 74.8613 151.033 74.3271 150.515ZM75.0873 151.652C74.3476 152.382 73.5669 150.576 74.8202 150.789C75.2516 150.87 75.3544 151.388 75.0873 151.652ZM75.0873 152.037C75.5906 152.545 74.7996 153.255 74.2654 152.798C73.8032 152.393 74.5736 151.54 75.0873 152.037ZM74.2757 149.227C72.8786 148.78 73.0635 146.761 74.286 146.487C76.8028 145.918 76.6282 149.988 74.2757 149.227ZM86.1407 152.403C86.2434 152.971 85.9044 153.204 85.3497 153.123C85.2777 153.499 85.7195 153.275 85.8633 153.57C85.966 153.762 85.9249 154.016 85.8428 154.209C85.6578 154.615 85.1134 154.341 85.0107 154.402C84.949 154.432 84.4457 155.386 84.3429 155.569C83.932 156.797 83.2849 157.963 83.0075 159.222C83.5828 159.415 83.3979 160.013 82.7609 159.902L82.9972 160.176L82.6582 161.941C82.7609 162.266 83.3362 161.941 83.3362 162.956C83.3362 163.626 82.9253 163.819 82.2679 163.798C80.9632 163.747 79.3607 163.342 77.9842 163.24C75.3544 163.047 72.6115 163.118 69.992 163.352C69.0161 163.433 67.732 163.788 66.8383 163.798C65.77 163.819 65.7905 162.296 66.6739 162.063C66.6945 161.363 66.1089 160.49 66.5609 159.902H66.1192C65.8008 159.435 66.4479 159.303 66.4479 159.08C66.4069 157.994 65.1844 156.218 64.866 155.122C64.7221 154.909 64.414 154.716 64.414 154.351C63.7051 154.777 63.0169 153.854 63.6435 153.407C63.7154 153.346 64.1777 153.357 63.962 153.123C63.9517 153.103 63.7051 153.245 63.4791 153.113C62.8114 152.748 63.284 151.976 63.9722 152.017C63.9209 151.814 63.6127 151.895 63.4072 151.733C63.0477 151.449 63.2737 151.144 63.4278 150.81L64.188 150.789C64.2804 150.464 63.9106 150.576 63.7976 150.353C63.4586 149.673 64.3421 149.145 64.866 149.795L64.6708 149.084C64.979 148.242 65.4001 148.648 65.9959 148.902C65.6775 148.394 66.037 147.674 66.6637 147.958C66.9616 148.09 66.8999 148.536 67.2287 148.455C66.9616 147.846 67.7526 147.268 68.184 147.796C68.4203 148.08 68.2148 148.526 68.5847 148.455C68.3484 147.664 69.3551 147.38 69.653 148.019C69.7352 148.202 69.54 148.699 69.766 148.679C69.8687 148.668 70.4748 147.065 71.0604 148.679C71.7692 148.019 72.4369 148.608 72.0671 149.46C72.4677 149.521 72.2006 149.115 72.3958 148.841C72.4575 148.75 72.7143 148.608 72.817 148.597C73.608 148.668 73.1046 149.582 73.9881 149.348V153.793C74.3579 153.864 74.0497 153.529 74.2654 153.245C74.3579 153.133 74.4812 153.072 74.625 153.042C74.7688 153.032 75.0462 153.174 75.1181 153.285C75.2619 153.488 75.1283 153.783 75.3338 153.793V149.348H76.0015C75.868 148.658 76.8644 148.354 77.0288 149.013H77.1315C77.2342 148.161 78.3745 148.12 78.2615 149.054L78.6005 149.125C78.3437 148.821 78.241 148.445 78.5286 148.12C78.7238 147.958 79.1142 147.989 79.3093 148.12C79.5661 148.283 79.3401 148.77 79.7202 148.679C79.4531 147.451 80.8091 147.278 80.8502 148.455C81.2406 148.536 80.9735 148.131 81.179 147.836C81.6001 147.258 82.3295 147.836 82.2062 148.455C82.5555 148.526 82.35 148.202 82.6069 148.019C83.2129 147.593 83.706 148.313 83.4389 148.902C83.7677 148.983 83.593 148.689 83.8807 148.618C84.5484 148.455 84.8155 149.013 84.5689 149.572C85.4421 148.871 86.2434 150.272 85.1339 150.465V150.789C86.2742 150.536 86.5927 151.702 85.4627 151.905C85.6373 152.179 86.0585 151.966 86.1407 152.403ZM75.8474 83.2682V103.604C75.8474 114.025 78.128 124.375 82.9253 133.66C84.4457 136.603 86.2639 139.597 88.452 142.57C90.0956 144.823 91.9344 147.004 93.9171 149.105C94.3793 149.572 94.8313 150.038 95.2833 150.485C96.3825 151.571 97.5433 152.646 98.7144 153.651L99.8547 154.615C101.827 156.249 103.871 157.75 105.926 159.09C106.265 159.303 106.583 159.516 106.902 159.719C107.456 160.074 108.001 160.399 108.515 160.703C128.865 149.166 141.901 127.714 142.579 104.608V83.2682H75.8474ZM131.515 98.1139C131.577 98.1544 131.844 98.1544 131.741 98.2762C131.71 98.3067 131.063 98.7126 131.022 98.7227C130.139 98.9967 129.337 97.576 128.916 97.6369C128.382 97.7181 127.95 99.2098 127.909 99.6664C127.868 100.113 127.94 100.509 128.033 100.935C127.303 100.894 126.944 100.407 126.625 99.8186C126.276 99.9607 126.245 100.265 126.153 100.58C124.653 99.6664 124.663 98.5299 125.331 97.0585C125.454 96.7947 125.814 96.3076 125.824 96.0641C125.834 95.8408 125.464 96.0945 125.403 96.125C125.29 96.196 125.084 96.4395 124.982 96.4801C124.91 96.5106 124.899 96.4598 124.869 96.4091C124.704 95.3233 124.704 94.4608 125.043 93.4054C125.238 92.7966 125.803 92.1066 125.341 91.518C124.838 90.8787 123.8 91.3963 123.276 91.7819C121.253 93.2938 120.41 96.0438 120.873 98.469C121.345 100.935 124.108 103.106 125.793 104.892C128.69 107.987 130.426 110.128 130.005 114.664C129.532 119.718 126.718 123.158 121.201 122.123C120.41 121.97 119.681 121.575 118.89 121.605C118.941 120.235 118.91 118.957 118.643 117.597C118.613 117.455 118.643 117.414 118.705 117.475C119.66 118.693 120.41 119.728 122.064 120.093C126.584 121.078 130.005 114.309 125.958 112.767C125.218 112.483 123.821 112.503 123.472 113.355C123.204 114.025 124.273 114.522 124.273 114.786C124.273 114.877 123.811 115.324 123.708 115.365C122.629 115.801 121.859 113.477 121.088 115.131C120.739 115.862 120.842 116.602 121.037 117.353C120.955 117.445 120.338 116.826 120.256 116.734C119.558 115.923 119.475 114.938 119.907 113.964C119.999 113.761 120.503 113.051 120.503 112.949C120.492 112.828 119.814 112.442 119.671 112.3C119.229 111.864 119.034 111.163 119.188 110.565C119.753 111.032 120.534 111.803 121.314 111.864C121.653 111.884 121.53 111.711 121.643 111.488C121.9 110.981 122.259 110.829 122.711 110.524C122.126 109.154 121.982 107.531 123.79 107.135C123.708 107.358 123.595 107.571 123.533 107.805C123.441 108.17 123.492 108.951 123.574 109.327C123.749 110.149 124.519 110.118 125.146 110.311C126.173 110.636 126.975 111.224 127.581 112.097C127.653 111.204 127.262 110.118 126.903 109.286C125.187 105.329 121.14 104.324 119.558 100.245C119.496 100.082 119.332 99.3823 119.301 99.3417C119.167 99.1996 119.178 99.5852 119.157 99.636C118.828 100.458 117.935 101.026 117.092 101.229C117.38 102.112 118.284 102.558 119.188 102.295C118.797 103.319 117.616 103.563 116.62 103.533C116.733 104.811 117.606 106.333 119.126 105.958C119.003 106.384 118.602 106.739 118.202 106.902C118.078 106.952 117.513 107.135 117.421 107.135H116.291C116.188 107.267 116.147 107.581 116.137 107.764C116.065 108.657 116.332 108.819 117.031 109.296C116.496 109.712 115.746 109.641 115.161 109.378C114.986 109.367 114.473 108.738 114.401 108.789C114.298 108.88 114.267 109.54 114.288 109.702C114.349 110.098 115.818 112.199 116.147 112.767C117.914 115.831 118.869 117.79 118.654 121.463C118.592 122.447 118.058 124.345 118.972 125.035C120.564 126.212 122.814 124.812 123.759 123.442C123.954 123.432 123.79 123.564 123.79 123.584V124.589C123.79 124.589 123.995 125.055 124.037 125.116C124.283 125.451 124.756 125.593 125.167 125.624C125.136 125.837 124.869 125.948 124.858 126.182C124.858 126.334 124.91 126.902 124.941 127.054C125.002 127.44 125.434 127.734 125.783 127.876C126.06 127.998 126.358 127.998 126.594 128.14C126.625 128.242 126.173 128.881 126.06 128.962C125.834 129.104 125.259 129.206 124.982 129.348C125.054 129.642 126.06 129.683 126.06 129.784C125.701 129.997 125.629 130.373 125.434 130.647C125.249 130.91 124.54 131.093 124.622 131.438C124.632 131.509 125.814 132.016 125.814 132.087C125.67 132.219 125.506 132.26 125.372 132.412C125.259 132.544 125.218 132.747 125.146 132.818C125.043 132.92 124.334 133.173 124.263 133.244C124.17 133.346 124.293 133.346 124.355 133.366C124.581 133.468 124.92 133.498 125.167 133.599C125.228 133.681 124.817 134.015 124.745 134.097C124.663 134.198 124.632 134.33 124.54 134.432C124.283 134.695 123.605 134.716 123.246 134.868C123.133 134.919 122.814 135.061 122.989 135.193C123.256 135.406 123.79 135.538 124.047 135.73C124.293 135.913 123.965 135.944 123.79 136.106C123.656 136.228 123.564 136.441 123.42 136.512C122.804 136.877 121.643 136.36 121.643 137.648C121.643 138.277 122.824 138.298 122.876 139.079C122.886 139.312 122.65 140.916 122.557 141.159C122.537 141.24 122.485 141.312 122.444 141.393L121.52 141.981C121.489 141.768 121.581 141.575 121.581 141.362C121.571 140.398 120.831 140.784 120.41 140.145C120.02 139.556 120.729 138.338 119.804 138.724C119.291 138.937 118.849 139.688 118.736 140.205C118.623 140.703 118.726 141.24 118.407 141.657C118.284 141.819 118.109 141.89 117.986 142.012C117.616 142.418 117.503 142.915 117.513 143.463C117 143.25 116.63 142.702 116.507 142.174C116.445 141.9 116.548 141.271 116.198 141.362C115.859 141.443 115.377 141.829 115.274 142.164C114.688 141.657 114.668 141.129 114.894 140.429C114.935 140.327 115.038 140.185 115.058 140.104C115.069 139.972 114.925 139.921 114.945 139.779C114.966 139.657 115.562 138.927 115.479 138.856C115.202 138.764 114.781 138.998 114.555 138.967C114.452 138.957 114.391 138.836 114.267 138.866C114.082 138.907 113.856 139.231 113.682 139.323C113.548 138.409 114 137.699 114.781 137.253C114.894 137.182 115.366 136.999 115.387 136.968C115.521 136.776 115.212 136.217 115.859 136.258C116.692 136.319 117.503 136.928 118.253 136.187C118.551 135.893 118.602 135.416 118.777 135.051C119.065 134.462 119.671 134.127 119.856 133.528C120.061 132.889 119.876 132.219 119.681 131.6C119.475 130.981 119.506 130.707 118.89 131.205C118.161 131.793 117.893 132.443 116.733 132.27C116.219 132.189 115.264 131.306 114.945 131.925C114.545 132.706 115.5 133.427 116.137 133.681C115.5 134.421 114.678 133.478 114.052 133.681C113.63 133.823 113.538 134.523 113.682 134.888C112.757 134.797 113.168 133.123 112.213 133.062C111.997 133.062 111.843 133.944 111.74 134.117C111.134 132.798 111.74 131.489 112.911 130.728C113.106 130.596 113.784 130.322 113.805 130.129C113.826 129.967 113.456 128.85 113.374 128.607C113.065 127.755 112.172 126.344 112.182 125.522C112.192 125.197 112.418 124.71 112.244 124.416C112.192 124.325 112.079 124.345 112.069 124.223C111.997 123.685 112.295 122.63 112.644 122.194C113.178 121.524 114 121.504 114.791 121.534C114.966 121.544 115.243 121.697 115.233 121.453C115.233 121.22 113.939 121.28 113.733 121.321C112.449 121.565 111.863 122.732 111.781 123.939C111.74 124.487 111.987 124.416 112.018 124.578C112.079 124.934 111.874 125.41 111.956 125.796C111.935 125.816 111.874 125.735 111.863 125.735H110.672C108.638 125.735 106.481 129.683 108.432 130.89C109.285 131.428 110.014 131.164 110.939 131.052L110.487 132.23C109.932 132.849 108.925 132.25 108.278 132.696C108.073 132.849 107.816 133.244 107.611 133.346C107.415 133.437 107.21 133.386 107.025 133.528C106.809 133.346 106.665 132.554 106.316 132.656C106.07 132.717 105.412 133.975 105.227 134.239C104.755 134.087 104.169 132.696 103.84 132.595C103.358 132.453 103.08 133.265 102.772 133.518C102.289 133.407 101.509 131.956 101.211 131.885C100.913 131.803 100.224 132.717 100.091 132.696C99.9677 132.585 99.8033 132.453 99.7109 132.311C99.4849 131.986 99.228 131.083 99.0431 130.9C98.9096 130.758 98.5603 130.789 98.3857 130.85C98.0261 130.951 97.7693 132.24 97.4303 132.615C97.1632 132.899 96.7729 132.98 96.4647 133.204C96.1462 133.447 95.5607 134.005 95.6326 134.442C95.6429 134.492 95.5196 134.482 95.5196 134.472C95.4682 134.432 95.1601 133.863 95.1292 133.762C94.8416 133.011 95.0163 132.372 95.3963 131.702C94.8416 131.671 94.9135 131.55 95.2217 131.195C95.684 130.647 96.2079 130.839 96.6907 130.525C96.8242 130.444 96.9167 130.403 96.8859 130.22C95.8792 129.835 94.6362 130.961 93.7322 130.586C93.5575 130.515 93.5267 130.332 93.4137 130.251C93.2185 130.109 92.8693 130.261 92.6124 130.22C92.4686 130.2 92.3864 130.099 92.2632 130.099C91.9858 130.088 91.7598 130.403 91.5133 130.454C91.5338 129.774 91.8625 129.175 92.4481 128.81C92.6022 128.719 93.424 128.404 93.424 128.302C93.0131 127.775 92.7563 127.805 92.1707 128.039C92.2118 127.541 92.52 127.024 92.9617 126.78C93.1261 126.689 93.6808 126.577 93.7116 126.547C93.7527 126.496 93.7424 126.303 93.7835 126.273C93.876 126.212 94.4204 126.344 94.554 126.385C94.5848 126.283 94.5129 126.263 94.4718 126.202C94.1225 125.766 93.5062 125.512 92.9412 125.553C92.8384 125.461 93.3315 125.136 93.4034 125.096C93.9273 124.802 94.4204 124.791 94.9854 124.923C95.2217 124.974 95.684 125.238 95.797 125.248C95.9202 125.258 96.0949 125.045 96.2901 125.167C96.5161 125.309 96.7421 126.567 96.9783 126.912C97.2146 127.237 98.2932 128.069 98.6836 128.181C99.2383 128.353 99.8239 128.201 100.379 128.333L104.662 128.445C104.631 127.704 104.231 127.054 103.984 126.364C103.882 126.08 103.697 125.035 103.46 124.934C103.296 124.863 103.049 124.923 102.854 124.893C102.423 124.822 102.145 124.548 101.611 124.791L101.786 124.254C101.724 124.183 100.841 124.781 100.625 124.791C100.409 124.791 99.5465 124.751 99.3205 124.71C99.0431 124.67 98.7144 124.467 98.4473 124.375L99.341 124.233C99.9779 124.081 100.687 123.543 100.831 122.894C99.1869 122.65 97.9953 121.331 97.8412 119.708C98.396 120.357 99.0637 120.935 99.8958 121.199C100.029 121.25 100.779 121.423 100.861 121.423C100.892 121.412 100.944 121.362 100.933 121.301C100.872 121.047 100.584 120.773 100.543 120.438C100.379 119.312 101.128 118.835 101.878 118.175C101.971 118.165 101.991 118.165 101.971 118.257C101.93 118.429 101.786 118.622 101.724 118.794C101.529 119.423 101.498 120.286 102.166 120.661C102.464 120.834 103.337 121.108 103.656 121.057C104.354 120.946 105.967 119.403 106.83 119.048C108.535 118.338 109.141 119.768 110.425 119.768H112.192C112.233 119.352 111.966 118.287 111.627 118.054C111.288 117.82 109.994 117.759 109.49 117.627C108.525 117.374 107.621 116.643 106.963 115.933C106.758 115.71 106.265 114.928 106.008 114.928C105.72 114.928 105.309 115.507 105.073 115.598C104.847 115.699 104.498 115.638 104.272 115.933C104.241 114.695 103.512 115.862 103.07 115.923C102.978 115.943 102.885 115.933 102.793 115.923C102.464 115.872 101.971 115.638 101.611 115.588C101.591 115.801 101.776 115.933 101.848 116.115C101.241 116.278 100.625 115.537 100.153 116.115C99.9677 116.339 100.06 116.562 99.906 116.765C99.6698 116.531 99.3616 116.46 99.0431 116.592L99.1561 117.353C98.9815 117.495 97.6666 116.044 97.492 116.176C97.379 116.308 97.1119 117.201 97.0708 117.242C96.9372 117.343 96.6393 116.633 96.4955 116.592C96.2695 116.542 95.8792 117.475 95.8175 117.648L95.4888 117.059C95.1395 117.384 95.3861 118.145 95.1909 118.48C95.119 118.581 95.0882 118.49 95.0368 118.449C94.8827 118.328 94.7492 118.135 94.5848 118.003C94.5129 118.013 93.8657 119.089 93.6911 119.251C93.4856 119.444 93.3007 119.434 93.1055 119.545C92.9617 119.637 92.8898 119.829 92.7049 119.84V117.617C92.7049 117.617 92.5816 117.343 92.5816 117.242C91.164 117.303 91.3078 119.078 91.0715 120.083C90.8661 120.966 90.5168 120.773 90.0854 121.412C89.8696 121.737 89.695 122.102 89.6847 122.498C89.0478 122.184 88.8013 121.412 88.8116 120.753C88.8218 120.509 88.9451 120.164 88.9348 119.982C88.9246 119.85 88.7499 119.819 88.7602 119.637C88.7705 119.342 89.5615 118.703 89.7669 118.378C89.8491 118.246 90.1778 117.668 90.0135 117.556C88.9965 117.506 88.452 118.612 87.7021 119.058C87.3734 119.261 87.0652 119.271 86.7467 119.413C86.531 119.515 86.3461 119.697 86.1509 119.829C86.0379 119.9 85.8838 119.9 85.7708 119.982C85.5448 120.154 85.5551 120.722 85.2777 120.235C85.0004 119.728 85.2367 118.936 85.4627 118.439C85.5243 118.297 85.7503 118.013 85.7606 117.912C85.7606 117.81 85.627 117.719 85.5962 117.607C85.5448 117.333 85.853 117.221 86.0585 117.13C86.7673 116.826 87.661 116.694 88.4006 116.41L87.5275 116.065C87.1063 115.882 86.2434 115.324 85.8222 115.365C85.6065 115.385 85.3188 115.517 85.1134 115.588C85.2469 114.715 85.966 114.258 86.7776 114.066C86.8597 114.045 87.0344 114.066 87.0755 114.045C87.1474 113.995 87.0652 113.65 87.4761 113.629C88.1541 113.609 88.9965 114.634 89.6539 114.847C90.7634 115.202 92.1707 114.583 93.1055 114.005C94.9649 112.858 96.7523 111.407 98.5911 110.21C100.153 109.195 103.717 107.46 104.488 105.877C104.611 105.613 104.539 105.491 104.292 105.684C104.097 105.846 103.779 106.425 103.553 106.668C102.639 107.642 101.108 108.241 100.04 109.043C99.9779 109.083 99.9471 109.093 99.8752 109.063C99.7109 108.982 99.3102 108.383 99.1972 108.2C98.9404 107.795 98.5809 106.831 98.2932 106.607C98.2419 106.567 98.0878 106.455 98.0261 106.496C97.9337 106.557 97.7899 107.125 97.605 107.196C97.5433 106.922 97.3584 105.237 97.2454 105.136C97.153 105.045 97.1427 105.166 97.1119 105.207C96.9783 105.379 96.9064 105.653 96.7112 105.785C96.6496 105.065 96.8242 104.385 96.9578 103.695C96.3106 103.279 96.3825 103.786 95.9921 104.131C96.0024 103.807 95.9819 103.472 95.9921 103.147C96.0127 102.619 96.2387 101.929 95.9613 101.473C95.8586 101.503 95.5402 102.041 95.458 101.939L95.5607 99.7374C95.3655 99.3113 95.006 99.2504 94.9752 99.8186C94.9546 99.8288 94.9033 99.778 94.8827 99.7577C94.5745 99.2707 94.3485 97.8805 94.0814 97.2412C93.9376 96.9063 93.7424 96.6526 93.3521 96.5512C92.2632 96.267 92.2118 97.0281 91.4208 97.2818C90.4244 97.6065 89.1506 97.1093 88.4931 96.3279C88.4109 96.2366 87.9795 95.7393 88.2979 95.8104C88.791 95.922 89.6231 96.1351 90.0956 95.851C90.2189 95.7799 90.2189 95.5263 90.3216 95.3639C90.6709 94.8362 91.4619 95.1102 91.9344 94.7043C92.4789 94.2477 91.8934 93.72 91.3489 93.6997C90.8455 93.6693 90.6298 93.7708 90.1162 93.4866C89.808 93.3243 89.921 93.2634 89.7772 93.1112C89.6334 92.9488 89.1814 92.9995 88.9862 92.9488C88.8013 92.9082 88.7602 92.7459 88.5547 92.7256C88.2671 92.6951 87.9692 92.9082 87.6816 92.9082C87.8356 92.1472 88.5445 91.6398 89.2841 91.5079C89.4998 91.4673 89.7258 91.5282 89.9313 91.4368C90.0956 91.3658 90.1162 91.173 90.2394 91.1426C90.4141 91.0918 91.1332 91.5688 90.8661 90.9701C90.6812 90.554 89.8491 90.2597 89.4176 90.1887C89.5615 89.7727 90.2292 89.4885 90.6504 89.4784C90.9791 89.4682 92.0269 89.8843 92.3248 90.0568C92.4584 90.138 92.9309 90.6048 92.972 90.6048C92.9925 90.6048 93.0644 90.483 93.1261 90.4627C93.2083 90.4221 93.3521 90.4323 93.3932 90.3714C93.537 90.1786 93.2904 89.4277 93.198 89.2044C93.1158 89.042 92.7049 88.5448 92.7049 88.5042C92.7049 88.3723 93.1672 88.4738 93.2596 88.4941C94.5232 88.7985 95.3244 90.6961 95.2114 91.8732C95.1395 92.6647 94.6053 93.2735 95.3655 93.9636C95.8483 94.41 96.5469 94.7855 97.0708 95.2421C97.4714 95.5973 98.0261 96.1351 98.3857 96.541C100.296 98.6821 100.296 101.219 102.752 103.208C103.029 103.441 104.108 104.233 104.405 104.294C104.857 104.385 106.193 103.705 106.717 103.533C107.559 103.269 107.806 103.33 108.628 103.299C109.285 103.279 109.942 102.883 109.799 102.153C109.768 101.97 109.686 102.01 109.532 102C108.617 101.929 107.22 102.416 106.244 102.234C106.07 102.203 105.977 102.01 105.761 102C105.607 101.98 104.991 102.142 104.96 102.122C105.443 101.605 105.638 101.046 105.433 100.346L105.916 100.529L106.09 99.6969C105.268 100.011 104.385 99.9607 103.553 99.6969C103.378 99.6461 102.628 99.3316 102.536 99.2301C102.392 99.0677 102.926 99.0271 103.019 98.9967C103.07 98.9764 103.152 99.0068 103.101 98.9054C103.08 98.8445 102.793 98.5603 102.7 98.4183C102.361 97.8805 102.289 97.3325 102.33 96.7135C102.361 96.125 102.597 95.374 103.286 95.3233C103.306 95.8205 103.224 96.3279 103.347 96.8048C103.368 96.8962 103.378 97.0585 103.46 97.0382C103.481 96.9469 103.45 96.8353 103.46 96.744C103.512 96.47 103.656 96.2061 103.974 96.2061C104.292 96.2061 104.734 96.5004 104.447 96.8048C104.272 96.4801 104.077 96.7034 104.025 96.9773C103.82 98.1341 105.248 98.124 106.039 98.2762C105.977 98.0124 105.874 97.5557 105.679 97.363C105.525 97.2107 105.012 97.0687 104.97 96.9469C104.857 96.6222 105.012 95.5161 104.96 95.0595C104.929 94.7551 104.611 94.3187 104.775 94.0549C104.96 93.7505 105.977 93.8418 106.357 93.791C107.343 93.6287 107.867 93.0503 108.73 92.756C109.521 92.4922 110.425 92.6545 111.083 92.137C111.473 91.8326 111.627 91.447 111.596 90.9599C112.213 91.2846 112.295 91.9747 112.254 92.6139C113.096 92.5023 114 91.8224 113.743 90.899C114.884 91.2745 114.678 92.959 114.401 93.8722C114.411 93.9128 114.545 93.9737 114.555 93.9737H115.51C115.972 93.9737 116.784 93.2938 116.794 92.7865C116.897 92.6951 117.061 93.0604 117.082 93.1213C117.554 94.2172 116.63 95.4146 116.014 96.267C116.825 96.5309 117.719 96.4395 118.202 95.6785C118.746 96.9672 117.37 98.0428 116.445 98.7227C117.051 99.5041 118.212 99.9404 119.065 99.2402C118.613 96.541 118.849 93.72 120.77 91.6093C122.67 89.519 124.817 90.6352 126.615 89.2348C127.303 88.697 127.159 88.3317 127.139 87.5301C127.272 87.3779 127.653 88.2404 127.673 88.3317C127.837 88.8188 127.745 89.1029 127.796 89.5697C127.93 90.8686 128.176 91.9036 129.368 92.6241C130.375 93.2228 131.371 93.1822 132.275 92.4313C132.152 93.994 130.087 94.8768 130.252 96.47C130.323 97.2107 130.899 97.7688 131.515 98.1139ZM75.8064 7V81.2387H142.61V7H75.8064ZM97.3892 23.033C97.0091 23.2156 96.4852 24.3927 96.5674 23.0025C96.6085 22.3125 96.8961 21.8559 97.3584 21.3688C96.8345 21.2977 96.701 20.9629 96.4339 20.5874C96.5366 20.4149 96.4441 19.867 96.9167 19.6843C97.4098 19.5016 97.1221 20.1917 97.5844 20.3033C98.2624 20.4758 98.4884 19.4813 98.4165 18.9638C98.3343 18.4463 97.6871 18.2637 98.324 17.9389C98.4781 17.8679 98.7966 17.8578 98.8171 17.8375C98.8788 17.7766 98.4062 16.498 98.6836 16.1428C99.0329 16.0921 99.3102 16.2342 99.6081 16.4067C99.5157 15.1484 100.779 14.2047 101.991 14.5801C100.656 16.224 103.173 16.1631 102.916 14.7831C102.865 14.5193 102.413 14.2351 102.978 14.1844C103.82 14.1032 104.58 15.0875 104.2 15.9095C104.056 16.224 103.697 16.3153 103.707 16.6604C104.467 16.8024 105.412 16.3255 105.032 15.4934C105.505 15.463 105.905 15.7877 106.111 16.1834C106.686 17.2489 105.751 18.3956 105.823 18.497C105.864 18.5376 106.665 18.629 106.727 18.9537C106.778 19.5625 103.892 20.6077 104.888 21.318C105.443 21.7138 105.782 20.831 105.957 20.5468C106.296 19.9989 106.552 21.0441 106.614 21.2369C106.296 22.1197 105.864 22.6879 104.827 22.6879C104.179 22.6879 103.573 22.2212 103.584 23.3881C103.584 23.9056 104.159 23.9158 104.097 24.1695C103.347 25.1436 102.063 24.961 101.786 23.723C101.211 24.5957 101.303 25.8742 100.07 26.2091C100.06 25.58 100.307 24.8798 99.6081 24.5043C99.5773 25.2755 99.0945 26.3918 98.3754 26.7571C96.8859 27.508 95.7559 26.341 96.4339 24.9001C97.9029 26.1279 97.6666 23.8447 97.8823 22.9416C97.7077 22.9112 97.5536 22.9619 97.3892 23.033ZM88.5136 16.3153C88.3185 15.7572 89.1814 15.4528 88.3287 15.0672C88.1027 14.9657 87.7124 15.0571 87.7021 14.8338C89.2533 14.3265 89.9826 15.4528 90.5476 16.6604C91.0715 16.2443 90.3833 15.8384 90.5374 15.3615C90.6709 14.9049 91.1332 15.0063 91.1435 14.9049C91.164 14.57 90.4552 14.0728 90.6093 13.9206C92.7254 14.1438 91.6571 16.6299 91.8009 17.9085C91.9858 19.593 94.5745 20.5367 95.8997 21.1049C96.7421 21.4702 96.023 21.6935 95.91 22.3531C95.7764 23.1649 96.1771 23.6824 96.1668 24.0477C96.1565 24.2811 95.7148 24.687 95.6429 25.103C95.5607 25.651 95.6326 26.3207 95.7662 26.8585C94.4718 26.7774 93.5986 25.6104 93.65 24.3724C95.7353 24.2811 94.0301 23.2765 92.9925 23.0735C93.0131 22.9213 92.8384 22.6981 92.859 22.6778C93.9171 22.6372 94.0198 21.8457 92.9001 21.663C91.9344 21.5108 91.0099 21.7544 90.3525 20.7802C90.2189 20.4758 91.0099 20.6483 91.277 20.3946C91.8112 19.8771 90.9688 19.8771 90.6504 19.6944C89.695 19.1465 90.3011 18.0607 90.2189 17.9694C89.8388 17.9592 89.7053 18.3956 89.3868 18.5275C88.4006 18.9435 88.5034 18.0912 88.4315 18.1013L87.5686 18.8827C87.4864 17.4823 88.4417 17.1677 89.6847 17.3199C89.8799 16.6908 88.6883 16.8329 88.5136 16.3153ZM89.6847 38.7615C89.8799 38.1323 88.6883 38.2744 88.5136 37.7569C88.3185 37.1988 89.1814 36.8944 88.3287 36.5088C88.1027 36.4073 87.7124 36.5088 87.7021 36.2855C89.2533 35.768 89.9826 36.9045 90.5476 38.112C91.0715 37.696 90.3833 37.2901 90.5374 36.803C90.6709 36.3464 91.1332 36.4479 91.1435 36.3464C91.164 36.0217 90.4552 35.5143 90.6093 35.3722C92.7254 35.5853 91.6571 38.0715 91.8009 39.35C91.9858 41.0345 94.5745 41.9782 95.8997 42.5566C96.7421 42.9118 96.023 43.135 95.91 43.8048C95.7764 44.6064 96.1771 45.1239 96.1668 45.4994C96.1565 45.7226 95.7148 46.1285 95.6429 46.5446C95.5607 47.0925 95.6326 47.7623 95.7662 48.3001C94.4718 48.2189 93.5986 47.0519 93.65 45.8241C95.7353 45.7226 94.0301 44.718 92.9925 44.5151C93.0131 44.373 92.8384 44.1396 92.859 44.1193C93.9171 44.0787 94.0198 43.2872 92.9001 43.1046C91.9344 42.9524 91.0099 43.2061 90.3525 42.2218C90.2189 41.9173 91.0099 42.0898 91.277 41.8362C91.8112 41.3186 90.9688 41.3186 90.6504 41.1461C89.695 40.588 90.3011 39.5124 90.2189 39.4211C89.8388 39.4109 89.7053 39.8371 89.3868 39.969C88.4006 40.3952 88.5034 39.5327 88.4315 39.553L87.5686 40.3343C87.4864 38.9238 88.4417 38.6093 89.6847 38.7615ZM97.3892 44.4846C97.0091 44.6673 96.4852 45.8444 96.5674 44.4542C96.6085 43.754 96.8961 43.3075 97.3584 42.8205C96.8345 42.7393 96.701 42.4044 96.4339 42.029C96.5366 41.8565 96.4441 41.3085 96.9167 41.136C97.4098 40.9432 97.1221 41.6434 97.5844 41.755C98.2624 41.9173 98.4884 40.9229 98.4165 40.4054C98.3343 39.8878 97.6871 39.7052 98.324 39.3906C98.4781 39.3094 98.7966 39.2993 98.8171 39.2892C98.8788 39.2181 98.4062 37.9395 98.6836 37.5844C99.0329 37.5336 99.3102 37.6859 99.6081 37.8482C99.5157 36.5899 100.779 35.6462 101.991 36.0217C100.656 37.6656 103.173 37.6148 102.916 36.2246C102.865 35.9709 102.413 35.6767 102.978 35.6259C103.82 35.5447 104.58 36.529 104.2 37.351C104.056 37.6656 103.697 37.7569 103.707 38.112C104.467 38.244 105.412 37.767 105.032 36.9349C105.505 36.9045 105.905 37.2394 106.111 37.625C106.686 38.7006 105.751 39.8473 105.823 39.9386C105.864 39.9893 106.665 40.0705 106.727 40.3952C106.778 41.0142 103.892 42.0493 104.888 42.7596C105.443 43.1553 105.782 42.2725 105.957 41.9884C106.296 41.4404 106.552 42.4856 106.614 42.6885C106.296 43.5714 105.864 44.1396 104.827 44.1295C104.179 44.1295 103.573 43.6728 103.584 44.8297C103.584 45.3472 104.159 45.3573 104.097 45.6212C103.347 46.5852 102.063 46.4127 101.786 45.1645C101.211 46.0372 101.303 47.3158 100.07 47.6506C100.06 47.0215 100.307 46.3213 99.6081 45.9459C99.5773 46.7272 99.0945 47.8333 98.3754 48.1986C96.8859 48.9597 95.7559 47.7927 96.4339 46.3416C97.9029 47.5796 97.6666 45.2964 97.8823 44.3832C97.7077 44.3629 97.5536 44.4035 97.3892 44.4846ZM89.6847 60.2132C89.8799 59.5739 88.6883 59.7159 88.5136 59.2086C88.3185 58.6403 89.1814 58.346 88.3287 57.9604C88.1027 57.859 87.7124 57.9604 87.7021 57.7271C89.2533 57.2095 89.9826 58.346 90.5476 59.5536C91.0715 59.1375 90.3833 58.7316 90.5374 58.2446C90.6709 57.7981 91.1332 57.8996 91.1435 57.7879C91.164 57.4632 90.4552 56.9558 90.6093 56.8138C92.7254 57.0269 91.6571 59.513 91.8009 60.8017C91.9858 62.4862 94.5745 63.4198 95.8997 63.9982C96.7421 64.3635 96.023 64.5766 95.91 65.2463C95.7764 66.048 96.1771 66.5655 96.1668 66.9409C96.1565 67.1743 95.7148 67.5701 95.6429 67.9861C95.5607 68.5442 95.6326 69.214 95.7662 69.7416C94.4718 69.6706 93.5986 68.4935 93.65 67.2656C95.7353 67.1642 94.0301 66.1697 92.9925 65.9566C93.0131 65.8146 92.8384 65.5913 92.859 65.571C93.9171 65.5304 94.0198 64.7288 92.9001 64.5461C91.9344 64.3939 91.0099 64.6476 90.3525 63.6734C90.2189 63.3589 91.0099 63.5314 91.277 63.2777C91.8112 62.7602 90.9688 62.7703 90.6504 62.5877C89.695 62.0296 90.3011 60.9539 90.2189 60.8626C89.8388 60.8525 89.7053 61.2787 89.3868 61.4207C88.4006 61.8368 88.5034 60.9742 88.4315 60.9945L87.5686 61.7759C87.4864 60.3654 88.4417 60.0508 89.6847 60.2132ZM97.3892 65.9262C97.0091 66.1088 96.4852 67.2859 96.5674 65.8957C96.6085 65.2057 96.8961 64.7491 97.3584 64.262C96.8345 64.1808 96.701 63.846 96.4339 63.4705C96.5366 63.298 96.4441 62.75 96.9167 62.5775C97.4098 62.3847 97.1221 63.0849 97.5844 63.1965C98.2624 63.369 98.4884 62.3746 98.4165 61.8469C98.3343 61.3395 97.6871 61.1569 98.324 60.8322C98.4781 60.751 98.7966 60.751 98.8171 60.7307C98.8788 60.6698 98.4062 59.3912 98.6836 59.0361C99.0329 58.9853 99.3102 59.1274 99.6081 59.2898C99.5157 58.0315 100.779 57.0878 101.991 57.4632C100.656 59.1071 103.173 59.0564 102.916 57.6662C102.865 57.4125 102.413 57.1283 102.978 57.0675C103.82 56.9863 104.58 57.9706 104.2 58.8027C104.056 59.1172 103.697 59.1984 103.707 59.5536C104.467 59.6855 105.412 59.2086 105.032 58.3765C105.505 58.346 105.905 58.6809 106.111 59.0767C106.686 60.1421 105.751 61.2888 105.823 61.3801C105.864 61.4309 106.665 61.512 106.727 61.8368C106.778 62.4558 103.892 63.4908 104.888 64.2011C105.443 64.5969 105.782 63.7242 105.957 63.4401C106.296 62.8819 106.552 63.9271 106.614 64.1301C106.296 65.0129 105.864 65.5812 104.827 65.5812C104.179 65.571 103.573 65.1144 103.584 66.2712C103.584 66.7887 104.159 66.7989 104.097 67.0627C103.347 68.0368 102.063 67.8542 101.786 66.6061C101.211 67.4787 101.303 68.7675 100.07 69.0922C100.06 68.4732 100.307 67.773 99.6081 67.3976C99.5773 68.1688 99.0945 69.2748 98.3754 69.6401C96.8859 70.4012 95.7559 69.2342 96.4339 67.7832C97.9029 69.0211 97.6666 66.738 97.8823 65.8247C97.7077 65.8044 97.5536 65.845 97.3892 65.9262ZM131.217 69.0922C130.991 68.8385 130.2 68.6457 130.026 69.0313C129.861 69.4068 130.652 69.4676 130.693 70.0866C130.704 70.32 130.508 70.7361 130.354 70.9187C130.169 71.142 129.913 71.1623 129.902 71.1826C129.789 71.3449 130.611 71.8726 130.231 72.6235C130.108 72.867 129.717 72.7757 129.758 73.0801C129.82 73.5266 130.416 73.4657 130.293 73.7296C130.128 74.0949 129.44 73.8209 129.224 73.6078C128.844 73.212 128.906 72.4205 128.803 71.9335C128.772 71.8016 128.731 71.4768 128.515 71.5783C128.115 71.761 128.567 72.4307 128.238 72.8772C127.827 73.4251 126.944 72.7757 127.385 74.0543C126.892 74.0644 126.697 73.3643 126.728 72.9685C126.779 72.248 127.478 71.7508 127.519 71.0506C127.324 70.8477 126.492 72.1973 125.916 71.7812C125.69 71.6087 126.009 71.2029 125.495 71.3449C125.095 71.4464 124.92 71.8827 124.612 72.0958C124.355 70.2084 127.067 70.594 127.704 69.6097C128.331 68.6558 127.447 68.0267 126.492 68.4123C125.732 68.7167 125.064 70.7056 123.944 69.9446C124.417 69.8837 124.725 69.0211 124.345 68.7573C124.283 68.7167 123.05 68.9298 122.752 68.9603H122.732C122.619 68.9907 122.465 69.1226 122.157 69.1125C121.92 69.1023 121.777 68.9907 121.715 68.9603H121.694C121.088 68.8994 120.955 68.8791 120.379 68.6964C120.215 68.6558 120.143 68.6355 119.979 68.5747C119.722 68.463 119.681 68.4529 119.445 68.3108C118.787 67.9151 118.726 67.7933 118.253 67.2048C118.078 66.9815 117.883 67.7527 117.873 67.8643C117.719 69.4879 120.071 70.0866 121.345 70.0866C121.674 70.0866 122.136 69.9649 122.485 69.9344C122.588 69.9243 122.886 69.7721 122.752 70.0765C122.516 70.6143 121.088 71.0506 120.503 70.9289C121.037 71.6798 120.462 72.5525 119.64 72.7453C119.434 72.796 119.424 72.7655 119.465 72.5829C119.568 72.1364 119.753 71.7204 119.116 71.5783C118.243 71.3956 118.664 71.832 118.376 72.2785C117.873 73.0801 116.517 72.2582 116.404 72.3597C116.466 72.6438 116.599 72.9178 116.414 73.1816C116.137 73.5976 115.161 73.0395 116.27 74.3181C114.668 74.4094 114.914 73.1004 115.079 71.9639C114.863 71.7305 114.349 72.8569 114.154 72.9482C113.415 73.3135 112.911 72.177 112.696 73.4048C111.535 72.248 114.01 71.7812 114.154 71.5073C114.288 71.2536 113.959 71.3246 113.826 71.3145C113.158 71.2739 112.634 71.5682 112.706 70.665C112.572 70.6752 112.428 70.6447 112.305 70.665C112.1 70.6853 111.802 70.8375 111.648 70.7259C111.925 70.1678 112.131 70.1272 112.706 70.0055C112.747 69.9953 112.809 69.8735 113.014 69.8837C113.312 69.8837 113.435 70.0663 113.63 70.1374C113.949 70.2591 114.236 70.4012 114.555 70.5331C114.75 70.6143 115.233 70.8984 115.346 70.9187C115.685 70.9898 116.332 70.8578 116.63 70.6955C117.195 70.3708 116.435 70.4113 116.168 70.3099C114.719 69.7822 113.826 69.011 114.955 67.5295C114.411 67.1439 110.744 69.904 110.014 70.2896C108.227 71.2231 106.09 71.6493 104.498 70.1374C104.19 70.868 104.447 71.487 105.299 71.4464C105.32 71.8624 104.765 72.0552 104.416 72.0857C103.388 72.1973 102.721 71.5783 101.858 71.1826C101.848 72.4611 100.594 73.8412 99.341 72.9482C99.3205 72.8467 100.44 71.9639 99.5362 71.832C98.4679 71.6696 97.1221 74.1152 95.8997 72.6844C96.4955 72.7859 97.2865 71.9436 96.6085 71.7305C95.6121 71.4058 93.0234 73.3744 91.8009 71.7102C92.3454 71.7204 93.198 71.629 93.1261 70.9187C92.6843 71.1826 91.5955 71.1115 91.4311 70.5737C91.3489 70.2997 91.4619 69.9446 91.4105 69.7416C90.9072 69.8228 90.8661 70.4621 90.3525 70.6041C89.808 70.7564 89.8594 70.1475 89.6231 70.2693C89.3252 70.4215 89.3252 71.0608 89.0273 71.1826C88.5958 69.9649 89.4895 69.082 90.7428 69.2241C90.9585 68.4427 89.4074 68.9907 89.2841 68.2398C89.1711 67.5092 89.7772 67.2961 88.3596 67.1946C88.9656 66.7177 89.7464 66.7684 90.3525 67.1946C90.8455 67.5396 90.9174 67.9455 91.5338 68.3108C91.5749 68.2601 91.6263 68.2195 91.6674 68.1789V68.1282C91.6057 67.631 90.8455 67.2758 91.2051 66.738C91.3078 66.5959 91.6674 66.6974 91.5235 66.3016C91.4414 66.0885 90.3011 65.5101 91.3284 65.571C91.6982 65.5913 92.1604 66.0378 92.3351 66.3524C92.7357 67.0728 92.6946 68.321 93.1261 68.9603C94.0712 70.3708 97.266 71.0202 98.7247 70.1171C98.9404 69.9852 99.2178 69.5996 99.341 69.559C99.5259 69.4879 99.906 69.7112 100.183 69.701C101.077 69.6807 101.889 68.8081 101.858 67.9151C102.464 68.1992 102.772 68.4225 103.501 68.3007C103.892 68.2398 104.58 67.6512 104.703 67.2758C104.796 66.9815 104.724 66.2509 104.765 66.2205C104.796 66.19 105.381 66.2408 105.597 66.19C106.398 65.9972 106.83 65.4797 107.148 64.7795C107.169 64.7288 107.107 64.5664 107.159 64.536C107.21 64.4852 108.33 64.4041 108.535 64.3939C113.312 64.0996 117.503 65.1245 122.095 65.4391C122.403 65.4594 122.711 65.429 123.02 65.4391C123.523 65.4391 124.108 65.4695 124.612 65.4391C125.845 65.3579 127.118 65.1651 128.146 64.4244C128.67 64.0286 129.522 63.2067 128.444 62.8819C127.375 62.5572 124.581 63.4908 123.307 63.6937C120.718 64.1199 116.198 64.3229 113.846 63.0545C111.853 61.9788 112.213 59.858 114.411 59.3506C115.746 59.0462 116.558 59.4014 117.791 59.4318C118.869 59.4623 119.404 58.4577 118.571 58.001C118.315 57.859 117.924 57.9503 117.863 57.7271C119.178 57.311 121.129 57.6763 120.112 59.3608L119.054 59.9493L120.636 60.6698C119.558 62.1107 118.335 60.5683 117.092 60.2436C113.877 59.4217 112.562 62.3035 116.137 62.6891C115.736 61.7454 116.548 61.2178 117.462 61.2584C116.784 62.7906 118.756 63.1356 119.907 63.2168C122.393 63.3893 124.971 62.6283 127.385 62.1716C126.348 60.6191 128.772 59.7768 129.368 61.2482C127.334 61.6643 129.769 62.2832 129.871 63.1864C130.108 65.1448 125.824 66.6061 124.211 66.4843C124.263 66.5452 124.221 66.7481 124.478 66.9308C125.68 67.8339 128.752 66.8699 129.769 65.8957C130.036 65.6421 130.108 65.3478 130.293 65.1144C130.488 64.8708 130.693 65.7435 130.683 65.8856C130.673 66.1697 130.077 67.4483 130.159 67.5193C131.135 67.4787 131.587 68.2398 131.217 69.0922ZM131.217 47.6506C130.991 47.3868 130.2 47.2042 130.026 47.5898C129.861 47.9652 130.652 48.0261 130.693 48.6349C130.704 48.8683 130.508 49.2945 130.354 49.4772C130.169 49.7004 129.913 49.7207 129.902 49.741C129.789 49.9034 130.611 50.431 130.231 51.1819C130.108 51.4255 129.717 51.3342 129.758 51.6284C129.82 52.0851 130.416 52.014 130.293 52.288C130.128 52.6533 129.44 52.3793 129.224 52.1663C128.844 51.7705 128.906 50.979 128.803 50.4919C128.772 50.36 128.731 50.0251 128.515 50.1368C128.115 50.3194 128.567 50.9892 128.238 51.4356C127.827 51.9735 126.944 51.3342 127.385 52.6127C126.892 52.6229 126.697 51.9227 126.728 51.5168C126.779 50.8065 127.478 50.3093 127.519 49.6091C127.324 49.396 126.492 50.7558 125.916 50.3397C125.69 50.1672 126.009 49.7613 125.495 49.8932C125.095 50.0048 124.92 50.4412 124.612 50.6543C124.355 48.7669 127.067 49.1525 127.704 48.1682C128.331 47.2143 127.447 46.575 126.492 46.9606C125.732 47.265 125.064 49.2539 123.944 48.4929C124.417 48.432 124.725 47.5796 124.345 47.3158C124.283 47.265 123.05 47.4883 122.752 47.5187H122.732C122.619 47.5492 122.465 47.6709 122.157 47.6608C121.92 47.6608 121.777 47.539 121.715 47.5187H121.694C121.088 47.4578 120.955 47.4375 120.379 47.2549C120.215 47.2143 120.143 47.194 119.979 47.123C119.722 47.0215 119.681 47.0012 119.445 46.8693C118.787 46.4735 118.726 46.3518 118.253 45.7632C118.078 45.54 117.883 46.301 117.873 46.4228C117.719 48.0464 120.071 48.6451 121.345 48.6451C121.674 48.6451 122.136 48.5233 122.485 48.4929C122.588 48.4827 122.886 48.3305 122.752 48.6248C122.516 49.1728 121.088 49.6091 120.503 49.4772C121.037 50.2382 120.462 51.1109 119.64 51.3037C119.434 51.3443 119.424 51.324 119.465 51.1312C119.568 50.6949 119.753 50.2788 119.116 50.1368C118.243 49.944 118.664 50.3803 118.376 50.8369C117.873 51.6284 116.517 50.8065 116.404 50.9181C116.466 51.2022 116.599 51.4661 116.414 51.7401C116.137 52.146 115.161 51.598 116.27 52.8766C114.668 52.9679 114.914 51.6589 115.079 50.5224C114.863 50.2788 114.349 51.4153 114.154 51.5067C113.415 51.8618 112.911 50.7253 112.696 51.9633C111.535 50.8065 114.01 50.3296 114.154 50.0657C114.288 49.812 113.959 49.8831 113.826 49.8729C113.158 49.8222 112.634 50.1266 112.706 49.2133C112.572 49.2336 112.428 49.2133 112.305 49.2133C112.1 49.2438 111.802 49.396 111.648 49.2844C111.925 48.7263 112.131 48.6755 112.706 48.5639C112.747 48.5538 112.809 48.432 113.014 48.432C113.312 48.4421 113.435 48.6146 113.63 48.6958C113.949 48.8176 114.236 48.9597 114.555 49.0814C114.75 49.1626 115.233 49.4569 115.346 49.4772C115.685 49.5482 116.332 49.4163 116.63 49.2438C117.195 48.9292 116.435 48.9597 116.168 48.8683C114.719 48.3407 113.826 47.5593 114.955 46.0778C114.411 45.7023 110.744 48.4624 110.014 48.848C108.227 49.7816 106.09 50.1977 104.498 48.6958C104.19 49.4264 104.447 50.0454 105.299 50.0048C105.32 50.4209 104.765 50.6137 104.416 50.6441C103.388 50.7558 102.721 50.1368 101.858 49.741C101.848 51.0196 100.594 52.3996 99.341 51.5067C99.3205 51.4052 100.44 50.5224 99.5362 50.3904C98.4679 50.2281 97.1221 52.6736 95.8997 51.2428C96.4955 51.3342 97.2865 50.5021 96.6085 50.2788C95.6121 49.9541 93.0234 51.9329 91.8009 50.2585C92.3454 50.2788 93.198 50.1875 93.1261 49.4772C92.6843 49.741 91.5955 49.67 91.4311 49.122C91.3489 48.8582 91.4619 48.503 91.4105 48.3001C90.9072 48.3813 90.8661 49.0205 90.3525 49.1626C89.808 49.3148 89.8594 48.706 89.6231 48.8277C89.3252 48.9698 89.3252 49.6192 89.0273 49.741C88.5958 48.5132 89.4895 47.6405 90.7428 47.7826C90.9585 46.9911 89.4074 47.5492 89.2841 46.7983C89.1711 46.0676 89.7772 45.8545 88.3596 45.7531C88.9656 45.2761 89.7464 45.3269 90.3525 45.7531C90.8455 46.0879 90.9174 46.4938 91.5338 46.8693C91.5749 46.8186 91.6263 46.778 91.6674 46.7374V46.6866C91.6057 46.1894 90.8455 45.8343 91.2051 45.2964C91.3078 45.1544 91.6674 45.2558 91.5235 44.8601C91.4414 44.647 90.3011 44.0584 91.3284 44.1193C91.6982 44.1498 92.1604 44.5963 92.3351 44.9007C92.7357 45.6313 92.6946 46.8693 93.1261 47.5187C94.0712 48.9292 97.266 49.5787 98.7247 48.6755C98.9404 48.5335 99.2178 48.158 99.341 48.1073C99.5259 48.0362 99.906 48.2595 100.183 48.2595C101.077 48.2392 101.889 47.3665 101.858 46.4735C102.464 46.7475 102.772 46.9708 103.501 46.8591C103.892 46.7881 104.58 46.2097 104.703 45.8241C104.796 45.54 104.724 44.8094 104.765 44.7789C104.796 44.7485 105.381 44.7992 105.597 44.7485C106.398 44.5557 106.83 44.0382 107.148 43.338C107.169 43.2872 107.107 43.1249 107.159 43.0843C107.21 43.0437 108.33 42.9625 108.535 42.9422C113.312 42.648 117.503 43.683 122.095 43.9874C122.403 44.0077 122.711 43.9773 123.02 43.9874C123.523 44.0077 124.108 44.0179 124.612 43.9874C125.845 43.9164 127.118 43.7236 128.146 42.9727C128.67 42.5871 129.522 41.7651 128.444 41.4404C127.375 41.1055 124.581 42.0493 123.307 42.2522C120.718 42.6683 116.198 42.8813 113.846 41.6129C111.853 40.5373 112.213 38.4165 114.411 37.9091C115.746 37.6047 116.558 37.9598 117.791 37.9903C118.869 38.0106 119.404 37.0161 118.571 36.5595C118.315 36.4174 117.924 36.5088 117.863 36.2855C119.178 35.8695 121.129 36.2348 120.112 37.9192L119.054 38.4977L120.636 39.2181C119.558 40.6692 118.335 39.1166 117.092 38.8021C113.877 37.9801 112.562 40.862 116.137 41.2476C115.736 40.3039 116.548 39.7661 117.462 39.8067C116.784 41.3491 118.756 41.6941 119.907 41.7753C122.393 41.9478 124.971 41.1766 127.385 40.7199C126.348 39.1775 128.772 38.3353 129.368 39.8067C127.334 40.2126 129.769 40.8417 129.871 41.7347C130.108 43.7033 125.824 45.1645 124.211 45.0326C124.263 45.1036 124.221 45.3066 124.478 45.4892C125.68 46.3924 128.752 45.4284 129.769 44.4542C130.036 44.2005 130.108 43.9062 130.293 43.6627C130.488 43.4192 130.693 44.302 130.683 44.4339C130.673 44.7282 130.077 46.0068 130.159 46.0778C131.135 46.0372 131.587 46.7983 131.217 47.6506ZM131.217 26.2091C130.991 25.9453 130.2 25.7525 130.026 26.1381C129.861 26.5237 130.652 26.5846 130.693 27.1934C130.704 27.4268 130.508 27.853 130.354 28.0356C130.169 28.2589 129.913 28.2792 129.902 28.2995C129.789 28.4618 130.611 28.9895 130.231 29.7404C130.108 29.9839 129.717 29.8926 129.758 30.1869C129.82 30.6435 130.416 30.5725 130.293 30.8363C130.128 31.2118 129.44 30.9378 129.224 30.7146C128.844 30.329 128.906 29.5375 128.803 29.0504C128.772 28.9083 128.731 28.5836 128.515 28.6851C128.115 28.8779 128.567 29.5375 128.238 29.9839C127.827 30.5319 126.944 29.8926 127.385 31.1712C126.892 31.1712 126.697 30.4812 126.728 30.0753C126.779 29.3548 127.478 28.8677 127.519 28.1676C127.324 27.9545 126.492 29.3142 125.916 28.8982C125.69 28.7257 126.009 28.3198 125.495 28.4517C125.095 28.5532 124.92 28.9996 124.612 29.2127C124.355 27.3152 127.067 27.7008 127.704 26.7266C128.331 25.7728 127.447 25.1335 126.492 25.5191C125.732 25.8235 125.064 27.8124 123.944 27.0513C124.417 26.9905 124.725 26.1381 124.345 25.8742C124.283 25.8235 123.05 26.0467 122.752 26.0772H122.732C122.619 26.1076 122.465 26.2294 122.157 26.2192C121.92 26.2091 121.777 26.0975 121.715 26.0772H121.694C121.088 26.0062 120.955 25.9859 120.379 25.8134C120.215 25.7626 120.143 25.7525 119.979 25.6814C119.722 25.58 119.681 25.5597 119.445 25.4176C118.787 25.032 118.726 24.9102 118.253 24.3115C118.078 24.0984 117.883 24.8595 117.873 24.9813C117.719 26.6049 120.071 27.1934 121.345 27.2036C121.674 27.2036 122.136 27.0716 122.485 27.0412C122.588 27.031 122.886 26.889 122.752 27.1833C122.516 27.7211 121.088 28.1676 120.503 28.0356C121.037 28.7866 120.462 29.6592 119.64 29.852C119.434 29.9028 119.424 29.8825 119.465 29.6897C119.568 29.2533 119.753 28.8271 119.116 28.6952C118.243 28.5024 118.664 28.9388 118.376 29.3954C117.873 30.1869 116.517 29.365 116.404 29.4766C116.466 29.7506 116.599 30.0245 116.414 30.2985C116.137 30.7044 115.161 30.1463 116.27 31.4249C114.668 31.5162 114.914 30.2072 115.079 29.0808C114.863 28.8373 114.349 29.9637 114.154 30.055C113.415 30.4203 112.911 29.2838 112.696 30.5116C111.535 29.365 114.01 28.888 114.154 28.6242C114.288 28.3705 113.959 28.4314 113.826 28.4212C113.158 28.3807 112.634 28.6851 112.706 27.7718C112.572 27.782 112.428 27.7515 112.305 27.7718C112.1 27.8022 111.802 27.9545 111.648 27.8428C111.925 27.2746 112.131 27.234 112.706 27.1224C112.747 27.1122 112.809 26.9803 113.014 26.9905C113.312 27.0006 113.435 27.1731 113.63 27.2543C113.949 27.3761 114.236 27.5181 114.555 27.6399C114.75 27.7211 115.233 28.0153 115.346 28.0356C115.685 28.0965 116.332 27.9748 116.63 27.8022C117.195 27.4877 116.435 27.5181 116.168 27.4166C114.719 26.889 113.826 26.1178 114.955 24.6362C114.411 24.2608 110.744 27.0209 110.014 27.4065C108.227 28.3299 106.09 28.7561 104.498 27.2543C104.19 27.9748 104.447 28.6039 105.299 28.5532C105.32 28.9692 104.765 29.162 104.416 29.2026C103.388 29.3142 102.721 28.6851 101.858 28.2995C101.848 29.5781 100.594 30.9581 99.341 30.055C99.3205 29.9637 100.44 29.0707 99.5362 28.9388C98.4679 28.7866 97.1221 31.2321 95.8997 29.8013C96.4955 29.8926 97.2865 29.0605 96.6085 28.8373C95.6121 28.5126 93.0234 30.4913 91.8009 28.817C92.3454 28.8373 93.198 28.7358 93.1261 28.0356C92.6843 28.2893 91.5955 28.2284 91.4311 27.6805C91.3489 27.4065 91.4619 27.0615 91.4105 26.8585C90.9072 26.9397 90.8661 27.579 90.3525 27.7211C89.808 27.8733 89.8594 27.2644 89.6231 27.3862C89.3252 27.5283 89.3252 28.1676 89.0273 28.2893C88.5958 27.0716 89.4895 26.199 90.7428 26.3309C90.9585 25.5495 89.4074 26.1076 89.2841 25.3466C89.1711 24.6261 89.7772 24.413 88.3596 24.3115C88.9656 23.8346 89.7464 23.8853 90.3525 24.3014C90.8455 24.6464 90.9174 25.0523 91.5338 25.4176C91.5749 25.377 91.6263 25.3364 91.6674 25.2857V25.2451C91.6057 24.7377 90.8455 24.3927 91.2051 23.8447C91.3078 23.7027 91.6674 23.8143 91.5235 23.4186C91.4414 23.1953 90.3011 22.6169 91.3284 22.6778C91.6982 22.6981 92.1604 23.1547 92.3351 23.4591C92.7357 24.1796 92.6946 25.4277 93.1261 26.0772C94.0712 27.4775 97.266 28.127 98.7247 27.234C98.9404 27.0919 99.2178 26.7063 99.341 26.6657C99.5259 26.5947 99.906 26.8179 100.183 26.8179C101.077 26.7875 101.889 25.925 101.858 25.032C102.464 25.306 102.772 25.5292 103.501 25.4176C103.892 25.3466 104.58 24.7682 104.703 24.3826C104.796 24.0984 104.724 23.3678 104.765 23.3272C104.796 23.2968 105.381 23.3475 105.597 23.2968C106.398 23.1141 106.83 22.5966 107.148 21.8964C107.169 21.8457 107.107 21.6833 107.159 21.6428C107.21 21.6022 108.33 21.5108 108.535 21.5007C113.312 21.2064 117.503 22.2313 122.095 22.5459C122.403 22.5662 122.711 22.5357 123.02 22.5459C123.523 22.5662 124.108 22.5763 124.612 22.5459C125.845 22.4748 127.118 22.2719 128.146 21.5311C128.67 21.1455 129.522 20.3134 128.444 19.9887C127.375 19.664 124.581 20.5976 123.307 20.8107C120.718 21.2267 116.198 21.4398 113.846 20.1714C111.853 19.0957 112.213 16.9749 114.411 16.4676C115.746 16.153 116.558 16.5183 117.791 16.5487C118.869 16.569 119.404 15.5746 118.571 15.118C118.315 14.9657 117.924 15.0672 117.863 14.8338C119.178 14.4279 121.129 14.7932 120.112 16.4777L119.054 17.0561L120.636 17.7766C119.558 19.2277 118.335 17.6751 117.092 17.3605C113.877 16.5386 112.562 19.4205 116.137 19.7959C115.736 18.8624 116.548 18.3245 117.462 18.3651C116.784 19.8974 118.756 20.2526 119.907 20.3337C122.393 20.5062 124.971 19.735 127.385 19.2784C126.348 17.7258 128.772 16.8938 129.368 18.3651C127.334 18.771 129.769 19.39 129.871 20.2931C130.108 22.2617 125.824 23.723 124.211 23.5911C124.263 23.6519 124.221 23.8549 124.478 24.0477C125.68 24.9508 128.752 23.9767 129.769 23.0025C130.036 22.759 130.108 22.4647 130.293 22.2212C130.488 21.9776 130.693 22.8604 130.683 22.9924C130.673 23.2765 130.077 24.5551 130.159 24.6362C131.135 24.5855 131.587 25.3567 131.217 26.2091ZM26.6516 102.721C25.347 102.843 25.3984 100.925 26.3229 100.722C27.8124 100.377 27.8741 102.609 26.6516 102.721ZM35.9587 131.945C34.3253 131.854 34.1096 129.53 35.445 129.307C37.027 129.033 38.0029 132.057 35.9587 131.945ZM30.319 101.848C33.75 110.981 36.5545 120.347 39.9547 129.49L39.9239 129.825C37.818 128.881 35.558 127.45 33.8117 125.938C31.1305 123.604 28.9116 119.322 28.1617 115.892C27.3091 111.955 27.7713 105.461 29.2506 101.676C29.302 101.554 29.6204 100.813 29.6615 100.793C29.98 100.58 30.2368 101.615 30.319 101.848ZM41.3107 126.019C41.5367 126.689 41.0847 127.947 40.7457 128.556C40.7149 128.617 40.6122 128.8 40.5505 128.759L30.8121 100.965C31.2024 101.158 32.5379 101.422 32.7844 101.625C32.8563 101.686 33.2364 102.812 33.3186 103.035C36.1025 110.656 38.5474 118.399 41.3107 126.019ZM35.8868 102.224L42.677 122.65C42.7694 122.945 42.0606 124.934 41.9374 124.964C41.8038 124.994 41.7524 124.852 41.7011 124.761L33.6781 101.889C34.3972 101.858 35.1574 102.122 35.8868 102.224ZM44.2795 117.8C44.3412 118.013 44.3103 118.226 44.2692 118.439C44.2179 118.713 43.4372 121.169 43.3242 121.26C43.2214 121.341 43.0673 121.159 43.0468 121.047L36.7188 102.406C36.6777 102.244 36.7291 102.305 36.8421 102.284C37.6023 102.193 38.4549 102.284 39.2151 102.021L44.2795 117.8ZM45.3992 112.188C46.1183 113.792 45.4198 114.989 44.9267 116.491L44.6596 116.45C43.0057 111.59 41.4134 106.678 39.9342 101.757C40.2526 101.818 41.5881 100.874 41.7114 100.965L45.3992 112.188ZM44.2179 99.4635L47.3202 109.327C47.1456 110.362 46.6114 111.326 46.3546 112.351L46.0875 112.046L42.4304 100.641V100.448L44.2179 99.4635ZM48.5838 105.694L47.7414 108.292L44.8753 99.0677C44.8753 98.9662 46.2827 98.0733 46.3649 98.1341L48.5838 105.694ZM106.727 98.2762C106.368 98.2356 106.491 97.9616 106.696 97.779C107.2 97.3224 108.227 97.2615 108.874 97.3325C108.946 97.3427 109.059 97.3427 109.08 97.4238C109.121 97.5557 109.08 98.1139 109.08 98.3067C109.08 98.4487 108.782 98.3371 108.699 98.3371C108.052 98.327 107.374 98.3472 106.727 98.2762ZM109.182 99.5751C109.449 99.636 109.234 99.91 109.11 100.052C108.802 100.438 108.165 100.712 107.682 100.762C107.508 100.762 106.933 100.793 106.83 100.691C106.778 100.641 106.357 99.6055 106.676 99.5954C107.508 99.636 108.36 99.4533 109.182 99.5751ZM110.456 94.0244C110.333 95.0392 109.377 95.232 108.545 94.7956C108.422 94.6333 109.223 94.2781 109.326 94.2375C109.675 94.1056 110.086 94.0244 110.456 94.0244ZM25.347 28.4212C25.2648 28.4009 25.2237 28.0762 25.2032 27.9748C25.2854 27.9139 26.4051 28.0965 26.4462 28.1574C26.6824 28.4618 25.4908 28.4618 25.347 28.4212ZM102.782 21.0441C102.608 21.5819 102.104 21.5108 101.786 21.7544C101.375 22.0689 101.231 22.7894 100.399 22.6778C100.718 21.8051 102.238 21.3688 100.533 20.9832C100.512 21.3282 100.399 21.663 100.307 21.9979C100.245 22.2313 100.389 22.4951 100.009 22.414C99.6903 21.9167 99.9677 21.3891 99.978 20.9121C99.9882 20.5265 99.6081 19.9075 100.132 19.6742C100.214 20.0902 100.522 20.8715 101.067 20.5265C101.139 20.4758 101.344 20.0902 101.324 20.0699C101.283 20.009 100.738 20.0192 100.789 19.4814C100.82 19.1566 101.067 19.1566 101.19 19.0146L101.457 18.629C100.789 18.3753 100.461 17.8882 100.666 17.188C101.159 17.4214 101.293 17.533 101.19 18.1013C102.484 17.6751 102.135 17.8882 101.591 18.629C101.58 18.629 101.58 18.6493 101.57 18.6594C101.498 18.8116 101.488 19.0957 101.19 19.1465C100.933 19.593 102.217 20.0395 102.371 19.9278C102.454 19.867 102.402 19.39 102.649 19.4103C102.669 19.7959 102.669 20.3946 102.176 20.4149C101.652 20.4352 101.519 20.0395 101.457 20.973C101.909 21.2267 102.32 20.973 102.782 21.0441ZM104.364 18.8928C104.036 19.593 103.306 19.4813 102.649 19.2683L102.782 18.3651C103.193 18.3245 103.193 18.7203 103.183 19.0146C103.656 18.9537 103.851 18.6797 104.364 18.8928ZM102.782 42.4856C102.608 43.0336 102.104 42.9524 101.786 43.2061C101.375 43.5206 101.231 44.2411 100.399 44.1193C100.718 43.2467 102.238 42.8103 100.533 42.4247C100.512 42.7697 100.399 43.1046 100.307 43.4496C100.245 43.6728 100.389 43.9367 100.009 43.8555C99.6903 43.3583 99.9677 42.8306 99.978 42.3537C99.9882 41.9782 99.6081 41.3491 100.132 41.1157C100.214 41.5419 100.522 42.3131 101.067 41.9681C101.139 41.9173 101.344 41.5317 101.324 41.5114C101.283 41.4506 100.738 41.4607 100.789 40.9229C100.82 40.5982 101.067 40.5982 101.19 40.4663L101.457 40.0705C100.789 39.8168 100.461 39.3297 100.666 38.6296C101.159 38.863 101.293 38.9746 101.19 39.553C102.484 39.1268 102.135 39.3297 101.591 40.0705C101.58 40.0705 101.58 40.0908 101.57 40.1111C101.498 40.2532 101.488 40.5373 101.19 40.5982C100.933 41.0345 102.217 41.481 102.371 41.3694C102.454 41.3186 102.402 40.8316 102.649 40.8519C102.669 41.2476 102.669 41.8362 102.176 41.8565C101.652 41.8767 101.519 41.481 101.457 42.4146C101.909 42.6683 102.32 42.4146 102.782 42.4856ZM104.364 40.3343C104.036 41.0345 103.306 40.9229 102.649 40.7199L102.782 39.8067C103.193 39.7661 103.193 40.1618 103.183 40.4663C103.656 40.3952 103.851 40.1212 104.364 40.3343ZM102.782 63.9271C102.608 64.4751 102.104 64.3939 101.786 64.6476C101.375 64.9622 101.231 65.6826 100.399 65.5609C100.718 64.6882 102.238 64.2519 100.533 63.8662C100.512 64.2113 100.399 64.5563 100.307 64.8911C100.245 65.1144 100.389 65.3782 100.009 65.3072C99.6903 64.7998 99.9677 64.2823 99.978 63.8054C99.9882 63.4198 99.6081 62.7906 100.132 62.5572C100.214 62.9834 100.522 63.7546 101.067 63.4096C101.139 63.369 101.344 62.9733 101.324 62.953C101.283 62.8921 100.738 62.9022 100.789 62.3746C100.82 62.0499 101.067 62.0397 101.19 61.9078L101.457 61.512C100.789 61.2584 100.461 60.7713 100.666 60.0813C101.159 60.3045 101.293 60.4161 101.19 60.9945C102.484 60.5683 102.135 60.7713 101.591 61.512C101.58 61.5222 101.58 61.5323 101.57 61.5526C101.498 61.6947 101.488 61.9788 101.19 62.0397C100.933 62.4862 102.217 62.9225 102.371 62.8211C102.454 62.7602 102.402 62.2731 102.649 62.3035C102.669 62.6891 102.669 63.2777 102.176 63.298C101.652 63.3284 101.519 62.9225 101.457 63.8662C101.909 64.1199 102.32 63.8662 102.782 63.9271ZM104.364 61.7759C104.036 62.4761 103.306 62.3746 102.649 62.1615L102.782 61.2584C103.193 61.2178 103.193 61.6034 103.183 61.9078C103.656 61.8368 103.851 61.5628 104.364 61.7759ZM65.8829 156.573C65.6159 156.624 65.698 156.533 65.6261 156.431C65.3488 155.995 65.1947 155.589 64.866 155.122C64.8351 155 64.7119 154.645 64.7632 154.574L66.3349 154.351L65.8829 156.573ZM66.7253 161.129L66.6739 160.348L67.4547 160.571C67.4958 160.754 67.393 160.795 67.2903 160.896C67.2081 160.977 66.828 161.312 66.7253 161.129ZM70.7214 157.405C70.7214 157.74 68.9134 157.953 69.1497 157.233C69.6325 157.304 70.3207 157.06 70.7214 157.405ZM70.6597 156.685C70.3105 156.583 70.331 156.979 70.1975 157.02C70.0639 157.05 69.4784 157.04 69.3962 156.989C69.2935 156.928 69.3037 156.553 68.9237 156.685C68.862 156.746 69.0778 158.085 68.3587 157.903C68.5025 157.131 67.5574 156.523 68.4408 155.914L69.1497 156.127C69.1702 155.751 69.0983 155.356 69.1702 154.98C69.5297 153.235 70.7008 155.234 70.3824 156.127C71.9849 155.011 71.3069 156.928 71.5124 157.791C70.7625 157.75 70.9679 157.111 70.6597 156.685ZM64.64 152.961C64.4756 151.449 65.1536 150.038 66.5918 149.44C69.1908 148.354 70.7625 150.414 73.3101 150.13C73.3512 150.464 73.608 152.545 73.2587 152.565C71.8616 151.723 70.105 151.56 68.7696 152.585C68.4922 152.798 68.2559 153.204 68.1224 153.296C68.0402 153.346 67.4341 153.316 67.2081 153.377C66.602 153.539 66.2117 154.219 66.1398 154.239C65.0817 154.523 64.7427 153.884 64.64 152.961ZM72.6321 154.899C72.9608 155.214 73.9984 155.995 73.9984 156.401C73.9984 156.857 72.9711 157.355 72.6321 157.679V154.899ZM74.6044 156.908C74.0497 156.847 73.9265 155.975 74.399 155.812C75.416 155.457 75.5495 156.999 74.6044 156.908ZM76.3508 153.904L75.2208 155.63L74.173 155.69L72.9711 153.904H76.3508ZM76.8028 157.679L75.3544 156.614C75.2516 156.178 76.1248 155.325 76.4638 155.071C76.5768 154.98 76.5973 154.858 76.8028 154.899V157.679ZM80.1003 157.253L80.2852 157.568C80.203 157.679 78.4259 157.923 78.7135 157.233L80.1003 157.253ZM80.9632 157.903C80.3161 157.974 80.614 156.756 80.3469 156.675C79.9976 156.573 80.0695 156.939 79.8846 156.999C79.7408 157.04 79.1758 157.05 79.0731 156.989C78.9703 156.928 78.9909 156.563 78.6005 156.685C78.5491 157.192 78.4772 157.629 77.9225 157.791C78.0252 157.131 77.3473 155.65 78.5183 155.812C78.8573 155.863 78.7238 156.066 78.9395 156.127C78.8882 155.427 79.0731 154.676 79.6689 154.239C80.2236 154.676 80.4599 155.477 80.1722 156.127C80.2647 156.198 80.994 155.619 81.2303 156.147C81.5385 156.857 80.8605 157.223 80.9632 157.903ZM76.0118 160.906H73.3101V159.902H76.0118V160.906ZM79.7819 160.348C79.6483 159.983 78.2512 160.105 78.1691 160.247C77.7582 161.373 80.2544 161.261 79.7819 160.348ZM79.7819 160.348C79.6483 159.983 78.2512 160.105 78.1691 160.247C77.7582 161.373 80.2544 161.261 79.7819 160.348ZM69.5914 160.825C69.766 161.089 70.9268 161.089 71.1426 160.876C71.2453 160.774 71.2864 160.561 71.2658 160.429C71.1323 159.881 69.0058 159.973 69.5914 160.825ZM79.7819 160.348C79.6483 159.983 78.2512 160.105 78.1691 160.247C77.7582 161.373 80.2544 161.261 79.7819 160.348ZM79.7819 160.348C79.6483 159.983 78.2512 160.105 78.1691 160.247C77.7582 161.373 80.2544 161.261 79.7819 160.348ZM69.5914 160.825C69.766 161.089 70.9268 161.089 71.1426 160.876C71.2453 160.774 71.2864 160.561 71.2658 160.429C71.1323 159.881 69.0058 159.973 69.5914 160.825ZM69.5914 160.825C69.766 161.089 70.9268 161.089 71.1426 160.876C71.2453 160.774 71.2864 160.561 71.2658 160.429C71.1323 159.881 69.0058 159.973 69.5914 160.825ZM79.7819 160.348C79.6483 159.983 78.2512 160.105 78.1691 160.247C77.7582 161.373 80.2544 161.261 79.7819 160.348ZM79.7819 160.348C79.6483 159.983 78.2512 160.105 78.1691 160.247C77.7582 161.373 80.2544 161.261 79.7819 160.348ZM69.5914 160.825C69.766 161.089 70.9268 161.089 71.1426 160.876C71.2453 160.774 71.2864 160.561 71.2658 160.429C71.1323 159.881 69.0058 159.973 69.5914 160.825ZM69.5914 160.825C69.766 161.089 70.9268 161.089 71.1426 160.876C71.2453 160.774 71.2864 160.561 71.2658 160.429C71.1323 159.881 69.0058 159.973 69.5914 160.825ZM79.7819 160.348C79.6483 159.983 78.2512 160.105 78.1691 160.247C77.7582 161.373 80.2544 161.261 79.7819 160.348ZM79.7819 160.348C79.6483 159.983 78.2512 160.105 78.1691 160.247C77.7582 161.373 80.2544 161.261 79.7819 160.348ZM69.5914 160.825C69.766 161.089 70.9268 161.089 71.1426 160.876C71.2453 160.774 71.2864 160.561 71.2658 160.429C71.1323 159.881 69.0058 159.973 69.5914 160.825ZM69.5914 160.825C69.766 161.089 70.9268 161.089 71.1426 160.876C71.2453 160.774 71.2864 160.561 71.2658 160.429C71.1323 159.881 69.0058 159.973 69.5914 160.825ZM79.7819 160.348C79.6483 159.983 78.2512 160.105 78.1691 160.247C77.7582 161.373 80.2544 161.261 79.7819 160.348ZM79.7819 160.348C79.6483 159.983 78.2512 160.105 78.1691 160.247C77.7582 161.373 80.2544 161.261 79.7819 160.348ZM69.5914 160.825C69.766 161.089 70.9268 161.089 71.1426 160.876C71.2453 160.774 71.2864 160.561 71.2658 160.429C71.1323 159.881 69.0058 159.973 69.5914 160.825ZM69.5914 160.825C69.766 161.089 70.9268 161.089 71.1426 160.876C71.2453 160.774 71.2864 160.561 71.2658 160.429C71.1323 159.881 69.0058 159.973 69.5914 160.825ZM79.7819 160.348C79.6483 159.983 78.2512 160.105 78.1691 160.247C77.7582 161.373 80.2544 161.261 79.7819 160.348ZM79.7819 160.348C79.6483 159.983 78.2512 160.105 78.1691 160.247C77.7582 161.373 80.2544 161.261 79.7819 160.348ZM69.5914 160.825C69.766 161.089 70.9268 161.089 71.1426 160.876C71.2453 160.774 71.2864 160.561 71.2658 160.429C71.1323 159.881 69.0058 159.973 69.5914 160.825ZM82.6479 159.79C77.4192 159.141 72.0157 159.11 66.7767 159.79C66.6945 160.429 67.5882 160.206 67.9067 160.622C67.9067 160.805 66.7459 161.485 66.7767 161.85C66.8178 162.033 67.5574 161.911 67.732 161.901C71.9541 161.545 75.5187 161.353 79.7819 161.677C80.6961 161.748 81.631 161.901 82.535 162.012C82.6274 161.302 81.7645 161.119 81.4152 160.622L82.5863 160.135L82.6479 159.79ZM71.122 161.14C70.9679 161.2 69.6222 161.18 69.5092 161.099C69.427 161.038 69.2524 160.571 69.2729 160.429C69.3551 159.831 70.5056 159.82 70.9782 159.922C71.5843 160.064 71.7178 160.886 71.122 161.14ZM76.3508 161.241H72.9711V159.678H76.3508V161.241ZM80.0079 160.906C79.8127 161.292 78.4362 161.211 78.1485 161.069C77.7068 160.855 77.8609 160.054 78.4567 159.922C79.1347 159.78 80.4804 159.932 80.0079 160.906ZM78.1691 160.247C77.7582 161.373 80.2544 161.261 79.7819 160.348C79.6483 159.983 78.2512 160.105 78.1691 160.247ZM69.5914 160.825C69.766 161.089 70.9268 161.089 71.1426 160.876C71.2453 160.774 71.2864 160.561 71.2658 160.429C71.1323 159.881 69.0058 159.973 69.5914 160.825ZM69.5914 160.825C69.766 161.089 70.9268 161.089 71.1426 160.876C71.2453 160.774 71.2864 160.561 71.2658 160.429C71.1323 159.881 69.0058 159.973 69.5914 160.825ZM79.7819 160.348C79.6483 159.983 78.2512 160.105 78.1691 160.247C77.7582 161.373 80.2544 161.261 79.7819 160.348ZM79.7819 160.348C79.6483 159.983 78.2512 160.105 78.1691 160.247C77.7582 161.373 80.2544 161.261 79.7819 160.348ZM69.5914 160.825C69.766 161.089 70.9268 161.089 71.1426 160.876C71.2453 160.774 71.2864 160.561 71.2658 160.429C71.1323 159.881 69.0058 159.973 69.5914 160.825ZM69.5914 160.825C69.766 161.089 70.9268 161.089 71.1426 160.876C71.2453 160.774 71.2864 160.561 71.2658 160.429C71.1323 159.881 69.0058 159.973 69.5914 160.825ZM79.7819 160.348C79.6483 159.983 78.2512 160.105 78.1691 160.247C77.7582 161.373 80.2544 161.261 79.7819 160.348ZM79.7819 160.348C79.6483 159.983 78.2512 160.105 78.1691 160.247C77.7582 161.373 80.2544 161.261 79.7819 160.348ZM69.5914 160.825C69.766 161.089 70.9268 161.089 71.1426 160.876C71.2453 160.774 71.2864 160.561 71.2658 160.429C71.1323 159.881 69.0058 159.973 69.5914 160.825ZM69.5914 160.825C69.766 161.089 70.9268 161.089 71.1426 160.876C71.2453 160.774 71.2864 160.561 71.2658 160.429C71.1323 159.881 69.0058 159.973 69.5914 160.825ZM79.7819 160.348C79.6483 159.983 78.2512 160.105 78.1691 160.247C77.7582 161.373 80.2544 161.261 79.7819 160.348ZM79.7819 160.348C79.6483 159.983 78.2512 160.105 78.1691 160.247C77.7582 161.373 80.2544 161.261 79.7819 160.348ZM69.5914 160.825C69.766 161.089 70.9268 161.089 71.1426 160.876C71.2453 160.774 71.2864 160.561 71.2658 160.429C71.1323 159.881 69.0058 159.973 69.5914 160.825ZM69.5914 160.825C69.766 161.089 70.9268 161.089 71.1426 160.876C71.2453 160.774 71.2864 160.561 71.2658 160.429C71.1323 159.881 69.0058 159.973 69.5914 160.825ZM79.7819 160.348C79.6483 159.983 78.2512 160.105 78.1691 160.247C77.7582 161.373 80.2544 161.261 79.7819 160.348ZM79.7819 160.348C79.6483 159.983 78.2512 160.105 78.1691 160.247C77.7582 161.373 80.2544 161.261 79.7819 160.348ZM69.5914 160.825C69.766 161.089 70.9268 161.089 71.1426 160.876C71.2453 160.774 71.2864 160.561 71.2658 160.429C71.1323 159.881 69.0058 159.973 69.5914 160.825ZM69.5914 160.825C69.766 161.089 70.9268 161.089 71.1426 160.876C71.2453 160.774 71.2864 160.561 71.2658 160.429C71.1323 159.881 69.0058 159.973 69.5914 160.825ZM79.7819 160.348C79.6483 159.983 78.2512 160.105 78.1691 160.247C77.7582 161.373 80.2544 161.261 79.7819 160.348ZM79.7819 160.348C79.6483 159.983 78.2512 160.105 78.1691 160.247C77.7582 161.373 80.2544 161.261 79.7819 160.348ZM69.5914 160.825C69.766 161.089 70.9268 161.089 71.1426 160.876C71.2453 160.774 71.2864 160.561 71.2658 160.429C71.1323 159.881 69.0058 159.973 69.5914 160.825ZM81.8672 160.571L82.7609 160.348L82.4836 161.343C82.3706 161.201 81.7439 160.734 81.8672 160.571ZM76.0118 152.464V150.292C76.094 150.018 76.9363 150.16 77.1932 150.119C79.4018 149.856 80.6859 148.313 83.1102 149.622C84.7847 150.525 85.1647 152.606 84.3224 154.219L84.1786 154.249C83.0383 154.392 83.0178 153.712 82.1343 153.468C81.672 153.336 81.107 153.428 80.8091 153.326C80.6345 153.265 80.3674 152.666 80.1209 152.453C79.0422 151.571 77.1623 151.814 76.0118 152.453V152.464ZM83.0999 154.351L84.6819 154.574C84.5381 154.899 84.4457 155.234 84.3429 155.569C84.1889 155.843 84.0039 156.096 83.8704 156.38C83.5725 156.989 83.1513 158.562 82.8637 158.948C82.5966 159.313 81.3844 158.948 80.9016 158.907C76.1659 158.501 71.348 158.582 66.6226 159.13L65.8727 156.969C66.376 156.685 66.5199 156.035 66.8589 155.599C66.9308 155.508 66.8589 155.396 67.1157 155.457L67.6807 157.568L66.109 157.294C66.5609 158.319 67.5779 158.856 68.6977 158.522C69.1805 158.38 69.1394 157.852 69.6427 157.781C70.7008 157.649 70.3413 157.994 70.9371 158.298C72.1801 158.927 74.1011 158.471 74.2141 156.898C74.512 157.06 74.7996 157.06 75.1078 156.898C75.3646 158.44 77.1418 158.968 78.4567 158.258C78.6724 158.146 78.8471 157.862 79.0114 157.811C79.1758 157.771 79.936 157.75 80.0387 157.811C80.1722 157.892 80.1414 158.329 80.655 158.481C81.3433 158.684 82.1549 158.593 82.7096 158.126C82.8637 157.994 83.48 157.192 83.0486 157.243C82.8123 157.263 81.8261 157.649 81.7542 157.568L82.2576 155.569C82.4014 155.376 82.4219 155.518 82.5247 155.64C82.7609 155.944 83.0691 156.533 83.213 156.898L83.5417 156.715L83.0999 154.351Z" fill="black"/>
</g>
<path d="M6.99991 3.72266H3.72266V6.99991V101.747C3.72266 141.005 35.5471 172.829 74.8047 172.829C114.062 172.829 145.887 141.005 145.887 101.747V6.99991V3.72266H142.61H6.99991Z" stroke="white" stroke-width="6.55451"/>
</g>
<defs>
<clipPath id="clip0_290_60">
<rect width="150" height="177" fill="white"/>
</clipPath>
</defs>
</svg>
