<svg width="162" height="49" viewBox="0 0 162 49" fill="none" xmlns="http://www.w3.org/2000/svg">
<g clip-path="url(#clip0_290_62)">
<path d="M156.963 22.1451L147.823 18.0775L147.373 17.8765H49.9921L51.8651 2.94872L52.1951 0.328125H42.1061V18.7286L14.1961 19.7254C12.8131 17.547 10.4581 16.108 7.78909 16.108C3.53709 16.108 0.0800781 19.7737 0.0800781 24.2753C0.0800781 28.777 3.53709 32.4426 7.78909 32.4426C10.4581 32.4426 12.8131 31.0037 14.1961 28.8252L42.1061 29.814V48.223H52.1951L51.8651 45.602L49.9921 30.6741H147.373L147.823 30.4731L156.963 26.4056L161.746 24.2753L156.963 22.1451ZM12.5641 26.9683C12.2671 27.5873 11.8731 28.1419 11.3991 28.5921C10.4421 29.5487 9.18009 30.1114 7.78909 30.1114C4.82309 30.1114 2.4111 27.4988 2.4111 24.2753C2.4111 21.0518 4.82309 18.4392 7.78909 18.4392C9.18009 18.4392 10.4421 19.002 11.3991 19.9586C11.8731 20.4087 12.2671 20.9634 12.5641 21.5824C12.9581 22.3862 13.1751 23.3026 13.1751 24.2753C13.1751 25.248 12.9581 26.1644 12.5641 26.9683ZM17.2101 26.5985L15.2091 26.5261C15.4021 25.8107 15.5061 25.0551 15.5061 24.2753C15.5061 23.4956 15.4021 22.7319 15.2091 22.0165L19.9031 21.8476C19.3811 22.5792 18.9791 23.4232 18.6011 24.2271C18.1111 25.256 17.7011 26.0679 17.2101 26.5985ZM18.6331 26.6467C19.0191 26.0599 19.3331 25.3927 19.6541 24.7255C20.1851 23.6001 20.7071 22.5068 21.4711 21.7914L24.8871 21.6708C24.3091 22.4425 23.8751 23.3589 23.4651 24.2271C22.9181 25.3686 22.4761 26.2528 21.9131 26.7673L18.6331 26.6467ZM26.5761 26.9281L23.3841 26.8155C23.8181 26.1966 24.1721 25.457 24.5181 24.7255C25.1041 23.4956 25.6671 22.3058 26.5591 21.6145L29.8951 21.4939C29.2441 22.2978 28.7701 23.2866 28.3281 24.2271C27.7171 25.5052 27.2351 26.4538 26.5761 26.9281ZM31.1901 27.0969L28.1271 26.9844C28.6171 26.3332 28.9951 25.5213 29.3811 24.7255C30.0161 23.383 30.6271 22.0888 31.6721 21.4296L34.9121 21.3171C34.1721 22.1531 33.6661 23.2223 33.1911 24.2271C32.5081 25.666 31.9781 26.6789 31.1901 27.0969ZM35.5951 27.2496L32.8621 27.1532C33.4161 26.4699 33.8341 25.5937 34.2441 24.7255C34.9521 23.2383 35.6191 21.8235 36.8731 21.2447L39.9361 21.1402C39.1081 22.0004 38.5611 23.1499 38.0551 24.2271C37.2431 25.9232 36.6641 27.0326 35.5951 27.2496ZM42.1061 21.1V27.4827L37.5801 27.322C38.2071 26.6146 38.6581 25.666 39.1081 24.7255C39.8801 23.1017 40.6111 21.5583 42.1061 21.1V21.0599H42.2831C42.2191 21.0599 42.1631 21.084 42.1061 21.1ZM44.4371 45.891V2.65932H49.5501L47.6451 17.8765L47.5001 19.0421L47.1711 21.6065V21.6306L46.8411 24.2753L47.1711 26.92V26.9442L47.5001 29.5085L47.6451 30.6741L49.5501 45.891H44.4371ZM146.874 28.3429H49.7031L49.2611 24.8541H146.947L148.586 24.2753L146.947 23.6885H49.2611L49.7031 20.2078H146.874L156.014 24.2753L146.874 28.3429Z" fill="black"/>
</g>
<defs>
<clipPath id="clip0_290_62">
<rect width="162" height="49" fill="white"/>
</clipPath>
</defs>
</svg>
