<svg width="162" height="163" viewBox="0 0 162 163" fill="none" xmlns="http://www.w3.org/2000/svg">
<g clip-path="url(#clip0_290_61)">
<mask id="mask0_290_61" style="mask-type:luminance" maskUnits="userSpaceOnUse" x="0" y="0" width="162" height="163">
<path d="M161.678 162.109H0.0117188V0.442886H161.678V162.109Z" fill="white"/>
</mask>
<g mask="url(#mask0_290_61)">
<path d="M63.0167 64.5317L64.7727 65.2049L64.0997 63.4483L62.8117 60.094L62.7477 59.9264L37.9997 35.1779L42.2697 31.8611L43.0177 31.2804L40.4547 28.7148L35.7747 33.3924L28.4307 26.5508C28.6327 25.6465 28.4017 24.6816 27.7227 24.0055C26.6417 22.9221 24.8337 22.977 23.6897 24.1211C22.5457 25.2652 22.4907 27.0738 23.5707 28.1543C24.2497 28.8333 25.2147 29.0673 26.1187 28.8651L32.9577 36.2122L28.2827 40.8868L30.8457 43.4495L31.4297 42.7012L34.7457 38.4311L59.4947 63.1796L59.6597 63.2431L63.0167 64.5317Z" fill="black"/>
<path d="M64.0997 99.1069L64.7727 97.3499L63.0167 98.0229L59.6597 99.3149L59.4947 99.3779L34.7457 124.124L31.4297 119.857L30.8457 119.106L28.2827 121.671L32.9607 126.349L26.1187 133.693C25.2147 133.491 24.2497 133.722 23.5707 134.401C22.4907 135.481 22.5457 137.293 23.6897 138.437C24.8307 139.581 26.6417 139.633 27.7227 138.552C28.4017 137.873 28.6327 136.911 28.4307 136.004L35.7777 129.166L40.4547 133.84L43.0177 131.278L42.2697 130.697L37.9997 127.377L62.7477 102.629L62.8117 102.464L64.0997 99.1069Z" fill="black"/>
<path d="M18.6237 73.6147L18.7417 72.6729H15.1157V79.289L5.08473 79.6444C4.58773 78.8614 3.74172 78.3442 2.78172 78.3442C1.25372 78.3442 0.0117188 79.6617 0.0117188 81.2796C0.0117188 82.8976 1.25372 84.215 2.78172 84.215C3.74172 84.215 4.58773 83.6978 5.08473 82.9149L15.1157 83.2731V89.8865H18.7417L18.6237 88.9446L17.9497 83.5794H52.9497L53.1117 83.5072L56.3967 82.0452L58.1157 81.2796L56.3967 80.514L53.1117 79.0521L52.9497 78.9799H17.9497L18.6237 73.6147Z" fill="black"/>
<path d="M88.5093 19.0567L89.4513 19.1752V15.5493H82.8353L82.4793 5.51813C83.2623 5.02123 83.7793 4.17473 83.7793 3.21553C83.7793 1.68717 82.4623 0.444824 80.8443 0.444824C79.2263 0.444824 77.9093 1.68717 77.9093 3.21553C77.9093 4.17473 78.4263 5.02123 79.2093 5.51813L78.8513 15.5493H72.2373V19.1752L73.1793 19.0567L78.5443 18.3836V53.3828L78.6173 53.5446L80.0783 56.8296L80.8443 58.5486L81.6103 56.8296L83.0723 53.5446L83.1443 53.3828V18.3836L88.5093 19.0567Z" fill="black"/>
<path d="M138.118 28.1543C139.199 27.0738 139.147 25.2652 138.003 24.1211C136.859 22.977 135.047 22.9221 133.967 24.0055C133.288 24.6816 133.056 25.6465 133.259 26.5508L125.912 33.3924L121.234 28.7148L118.671 31.2804L119.42 31.8611L123.69 35.1779L98.941 59.9264L98.878 60.094L97.589 63.4483L96.916 65.2049L98.673 64.5317L102.03 63.2431L102.195 63.1796L126.943 38.4311L130.26 42.7012L130.843 43.4495L133.406 40.8868L128.729 36.2093L135.57 28.8651C136.474 29.0673 137.439 28.8333 138.118 28.1543Z" fill="black"/>
<path d="M82.8383 147.007H89.4513V143.381L88.5093 143.499L83.1443 144.173V109.173L83.0723 109.012L81.6103 105.727L80.8443 104.007L80.0783 105.727L78.6173 109.012L78.5443 109.173V144.173L73.1793 143.499L72.2373 143.381V147.007H78.8533L79.2093 157.038C78.4263 157.535 77.9093 158.381 77.9093 159.341C77.9093 160.869 79.2263 162.111 80.8443 162.111C82.4623 162.111 83.7793 160.869 83.7793 159.341C83.7793 158.381 83.2623 157.535 82.4793 157.038L82.8383 147.007Z" fill="black"/>
<path d="M98.673 98.0259L96.916 97.3499L97.589 99.1069L98.878 102.464L98.941 102.629L123.69 127.377L119.42 130.697L118.671 131.278L121.234 133.843L125.912 129.163L133.259 136.004C133.056 136.911 133.288 137.873 133.967 138.552C135.047 139.633 136.856 139.581 138 138.437C139.144 137.293 139.199 135.481 138.118 134.401C137.439 133.725 136.474 133.491 135.57 133.693L128.731 126.346L133.406 121.671L130.843 119.106L130.26 119.857L126.943 124.127L102.195 99.3779L102.03 99.3149L98.673 98.0259Z" fill="black"/>
<path d="M161.678 81.2796C161.678 79.6617 160.436 78.3442 158.907 78.3442C157.948 78.3442 157.102 78.8614 156.605 79.6444L146.574 79.2861V72.6729H142.948L143.066 73.6147L143.739 78.9799H108.74L108.578 79.0521L105.293 80.514L103.574 81.2796L105.293 82.0452L108.578 83.5072L108.74 83.5794H143.739L143.066 88.9446L142.948 89.8865H146.574V83.2702L156.605 82.9149C157.102 83.6978 157.948 84.215 158.907 84.215C160.436 84.215 161.678 82.8976 161.678 81.2796Z" fill="black"/>
</g>
</g>
<defs>
<clipPath id="clip0_290_61">
<rect width="162" height="163" fill="white"/>
</clipPath>
</defs>
</svg>
