<svg width="1080" height="1080" viewBox="0 0 1080 1080" fill="none" xmlns="http://www.w3.org/2000/svg">
<g clip-path="url(#clip0_345_1204)">
<mask id="mask0_345_1204" style="mask-type:luminance" maskUnits="userSpaceOnUse" x="50" y="50" width="980" height="980">
<path d="M1029.71 1029.4H50.2969V50.5962H1029.71V1029.4Z" fill="white"/>
</mask>
<g mask="url(#mask0_345_1204)">
<path d="M431.995 438.623L442.633 442.699L438.556 432.063L430.753 411.755L430.365 410.74L280.436 260.9L306.305 240.818L310.836 237.303L295.309 221.769L266.957 250.09L222.465 208.667C223.689 203.192 222.289 197.35 218.176 193.257C211.627 186.697 200.674 187.03 193.743 193.957C186.812 200.883 186.479 211.834 193.022 218.376C197.136 222.487 202.982 223.903 208.458 222.679L249.891 267.162L221.568 295.465L237.096 310.98L240.634 306.45L260.723 280.596L410.658 430.436L411.657 430.821L431.995 438.623Z" fill="white"/>
<path d="M438.556 647.958L442.633 637.32L431.995 641.395L411.657 649.217L410.658 649.598L260.723 799.423L240.634 773.589L237.096 769.042L221.568 784.571L249.909 812.894L208.458 857.359C202.982 856.136 197.136 857.534 193.022 861.645C186.479 868.184 186.812 879.155 193.743 886.081C200.655 893.008 211.627 893.322 218.176 886.778C222.289 882.667 223.689 876.842 222.465 871.351L266.975 829.95L295.309 858.249L310.836 842.737L306.305 839.219L280.436 819.118L430.365 669.282L430.753 668.283L438.556 647.958Z" fill="white"/>
<path d="M163.052 493.616L163.767 487.914H141.8V527.971L81.0303 530.123C78.0194 525.382 72.8941 522.251 67.0782 522.251C57.8212 522.251 50.2969 530.228 50.2969 540.023C50.2969 549.82 57.8212 557.796 67.0782 557.796C72.8941 557.796 78.0194 554.664 81.0303 549.924L141.8 552.093V592.133H163.767L163.052 586.431L158.969 553.948H371.007L371.988 553.51L391.89 544.659L402.304 540.023L391.89 535.388L371.988 526.537L371.007 526.1H158.969L163.052 493.616Z" fill="white"/>
<path d="M586.437 163.294L592.144 164.011V142.058H552.062L549.906 81.3245C554.649 78.316 557.781 73.1909 557.781 67.3834C557.781 58.13 549.803 50.6082 540 50.6082C530.198 50.6082 522.22 58.13 522.22 67.3834C522.22 73.1909 525.352 78.316 530.095 81.3245L527.926 142.058H487.857V164.011L493.564 163.294L526.067 159.219V371.122L526.509 372.101L535.36 391.99L540 402.398L544.641 391.99L553.498 372.101L553.934 371.122V159.219L586.437 163.294Z" fill="white"/>
<path d="M886.974 218.376C893.523 211.834 893.208 200.883 886.277 193.957C879.347 187.03 868.369 186.697 861.827 193.257C857.713 197.35 856.307 203.192 857.537 208.667L813.027 250.09L784.687 221.769L769.16 237.303L773.698 240.818L799.566 260.9L649.631 410.74L649.25 411.755L641.44 432.063L637.363 442.699L648.008 438.623L668.345 430.821L669.345 430.436L819.274 280.596L839.369 306.45L842.901 310.98L858.428 295.465L830.094 267.145L871.538 222.679C877.014 223.903 882.861 222.487 886.974 218.376Z" fill="white"/>
<path d="M552.081 937.968H592.144V916.015L586.437 916.729L553.934 920.81V708.902L553.498 707.928L544.641 688.038L540 677.625L535.36 688.038L526.509 707.928L526.067 708.902V920.81L493.564 916.729L487.857 916.015V937.968H527.939L530.095 998.701C525.352 1001.71 522.22 1006.83 522.22 1012.64C522.22 1021.9 530.198 1029.42 540 1029.42C549.803 1029.42 557.781 1021.9 557.781 1012.64C557.781 1006.83 554.649 1001.71 549.906 998.701L552.081 937.968Z" fill="white"/>
<path d="M648.008 641.413L637.363 637.32L641.44 647.958L649.25 668.283L649.631 669.282L799.566 819.118L773.698 839.219L769.16 842.737L784.687 858.267L813.027 829.932L857.537 871.351C856.307 876.842 857.713 882.667 861.827 886.778C868.369 893.322 879.329 893.008 886.259 886.081C893.19 879.155 893.523 868.184 886.974 861.645C882.861 857.552 877.014 856.136 871.538 857.359L830.106 812.876L858.428 784.571L842.901 769.042L839.369 773.589L819.273 799.441L669.345 649.598L668.345 649.217L648.008 641.413Z" fill="white"/>
<path d="M1029.71 540.023C1029.71 530.228 1022.18 522.251 1012.92 522.251C1007.11 522.251 1001.98 525.382 998.973 530.123L938.203 527.954V487.914H916.236L916.95 493.616L921.028 526.1H708.996L708.015 526.537L688.113 535.388L677.699 540.023L688.113 544.659L708.015 553.51L708.996 553.948H921.028L916.95 586.431L916.236 592.133H938.203V552.076L998.973 549.924C1001.98 554.664 1007.11 557.796 1012.92 557.796C1022.18 557.796 1029.71 549.82 1029.71 540.023Z" fill="white"/>
</g>
</g>
<defs>
<clipPath id="clip0_345_1204">
<rect width="1080" height="1080" fill="white"/>
</clipPath>
</defs>
</svg>
