<?xml version="1.0" encoding="UTF-8"?>
<svg id="Layer_1" data-name="Layer 1" xmlns="http://www.w3.org/2000/svg" viewBox="0 0 661.45 340.62">
  <defs>
    <style>
      .cls-1 {
        letter-spacing: 0em;
      }

      .cls-2 {
        font-family: ArialMT, Arial;
        font-size: 12px;
      }

      .cls-3, .cls-4 {
        letter-spacing: -.02em;
      }

      .cls-5 {
        font-size: 7.61px;
      }

      .cls-5, .cls-6 {
        font-family: Arial-ItalicMT, Arial;
        font-style: italic;
      }

      .cls-5, .cls-4, .cls-7, .cls-8, .cls-9 {
        text-decoration: underline;
      }

      .cls-10 {
        letter-spacing: -.04em;
      }

      .cls-6 {
        font-size: 10px;
      }

      .cls-11 {
        letter-spacing: -.04em;
      }

      .cls-7, .cls-12 {
        letter-spacing: -.09em;
      }

      .cls-9 {
        letter-spacing: -.06em;
      }
    </style>
  </defs>
  <text class="cls-2" transform="translate(595.94 99.04)"><tspan x="0" y="0">ʊə</tspan></text>
  <g>
    <path d="M603.64,77.18c-.49,1.9-1.69,2.85-3.58,2.85-1.36,0-2.37-.44-3.03-1.31-.06-.08-.11-.16-.17-.24-.2.4-.52.81-.94,1.08-.51.31-1.18.47-2.01.47s-1.46-.14-1.97-.41c-.52-.28-.88-.68-1.1-1.21-.22-.52-.33-1.24-.33-2.15v-4.96h1.14v4.95c0,.75.07,1.3.21,1.65.14.36.37.63.71.82.34.19.75.29,1.24.29.84,0,1.43-.19,1.79-.57.34-.37.52-1.06.53-2.08v-5.06h1.14v1c.18-.2.4-.38.63-.54.61-.41,1.34-.62,2.18-.62.89,0,1.64.22,2.24.67.6.44,1,1.05,1.21,1.84l-1.11.29c-.33-1.2-1.11-1.8-2.35-1.8-.83,0-1.49.25-1.96.76-.48.5-.74,1.18-.78,2.04h3.14v1.01h-3.19c.04.97.31,1.73.8,2.29.49.55,1.13.83,1.9.83,1.36,0,2.22-.72,2.57-2.18l1.09.29Z"/>
    <path d="M614.85,77.75c-.1.69-.39,1.24-.85,1.66-.94.86-2.76.77-3.54.11v.37h-.95v-.92c-.48.71-1.14,1.06-1.97,1.06-.37,0-.71-.07-1.03-.21-.32-.14-.55-.32-.71-.53-.15-.22-.26-.48-.32-.79-.05-.2-.07-.53-.07-.98v-3.86h1.06v3.45c0,.56.02.93.06,1.12.07.28.21.49.42.65.22.16.48.24.8.24s.61-.08.89-.24c.28-.17.47-.39.59-.67.12-.28.17-.68.17-1.21v-3.34h1.06v.5c.48-.42,1.08-.63,1.82-.63.69,0,1.25.18,1.68.55.43.37.7.85.79,1.43l-1.03.16c-.17-.84-.66-1.27-1.48-1.27-.47,0-.85.17-1.15.52-.3.35-.48.8-.55,1.35h2.2v.87h-2.2c.07.67.24,1.18.53,1.52.28.34.67.51,1.18.51.89,0,1.41-.52,1.57-1.55l1.03.13Z"/>
  </g>
  <text class="cls-6" transform="translate(605.88 144.62) rotate(-90)"><tspan class="cls-12" x="0" y="0">T</tspan><tspan class="cls-8" x="5.19" y="0">ou</tspan><tspan x="16.31" y="0">rist</tspan></text>
  <text class="cls-2" transform="translate(480.64 99.04)"><tspan x="0" y="0">aʊ</tspan></text>
  <g>
    <path d="M484.7,79.88h0s.01.01.01.01h-.01Z"/>
    <path d="M497.03,73.67l-1.77,4.95-1.43-3.99h0c-.28-.75-.76-.87-1.05-.96s-.64-.14-.95-.14c-.54,0-1.01.07-1.41.22-.41.15-.72.36-.93.63-.22.27-.37.63-.47,1.07l1.03.14c.12-.44.29-.75.53-.93.24-.17.6-.26,1.1-.26s.86.09,1.12.31c.3.24.4,1.01.37,1.23-.4.15-1.03.27-1.88.37-.42.05-.73.1-.94.16-.28.07-.53.19-.76.34-.22.15-.4.36-.54.61-.14.25-.21.53-.21.83,0,.52.19.95.55,1.28.37.34.9.5,1.58.5.41,0,.92-.05,1.28-.19.35-.14,1.49-.44,1.74-1.98l.77,2.03h1l2.35-6.22h-1.08ZM493.17,77.16c0,.46-.05.81-.17,1.05-.15.31-.38.55-.7.73-.31.18-.67.27-1.08.27s-.72-.1-.93-.28c-.22-.19-.32-.42-.32-.71,0-.18.05-.35.14-.5.1-.15.24-.26.42-.34.18-.08.49-.15.92-.21.76-.11,1.34-.24,1.72-.4v.39Z"/>
    <path d="M486.91,71.3l-2.7,7.37-3.01-7.37h-1.23l-3.3,8.59h1.21l.94-2.6h3.6l1,2.6h1.46s3.37-8.59,3.37-8.59h-1.34ZM479.15,76.37l.95-2.52c.19-.55.35-1.09.46-1.64.13.46.33,1.05.61,1.78l.89,2.38h-2.91Z"/>
  </g>
  <text class="cls-6" transform="translate(490.59 135.12) rotate(-90)"><tspan x="0" y="0">C</tspan><tspan class="cls-8" x="7.22" y="0">ow</tspan></text>
  <text class="cls-2" transform="translate(411.56 99.04)"><tspan x="0" y="0">aɪ</tspan></text>
  <g>
    <path d="M414.3,71.3h-1.22l-3.3,8.59h2.14l3.6-2.6,1,2.6h1.3l-3.52-8.59ZM411.27,79.11l1.93-5.26c.2-.55.35-1.09.46-1.64.14.46.34,1.05.61,1.78l.9,2.38-3.9,2.74Z"/>
    <path d="M423.21,73.67h1.08c-.27.86-.53,1.9-.76,3.11.27,1.51.53,2.54.76,3.11h-1.05c-.17-.39-.29-.77-.38-1.14-.32.85-1,1.28-2.03,1.28-.78,0-1.41-.29-1.89-.88s-.71-1.38-.71-2.38.24-1.83.72-2.39,1.11-.85,1.9-.85c.49,0,.89.1,1.2.3s.6.5.86.9c.03-.14.13-.49.31-1.05ZM421.02,74.4c-.5,0-.9.2-1.2.61s-.44.99-.44,1.76.14,1.33.42,1.76.66.64,1.16.64.89-.21,1.21-.63.49-1.02.49-1.81-.15-1.34-.45-1.73-.7-.59-1.19-.59Z"/>
  </g>
  <text class="cls-6" transform="translate(420.23 128.48) rotate(-90)"><tspan x="0" y="0">M</tspan><tspan class="cls-8" x="8.33" y="0">y</tspan></text>
  <text class="cls-2" transform="translate(563.04 99.04)"><tspan x="0" y="0">eə</tspan></text>
  <g>
    <path d="M581.48,77.6c-.16,1.03-.68,1.55-1.58,1.55-.5,0-.89-.17-1.18-.51-.28-.34-.45-.84-.52-1.52h2.2v-.87h-2.2c.07-.55.25-1,.55-1.35.3-.34.68-.52,1.15-.52.82,0,1.31.43,1.48,1.28l1.03-.17c-.1-.58-.36-1.06-.79-1.42-.43-.37-.99-.56-1.69-.56-.87,0-1.55.29-2.06.87-.29.34-.5.75-.61,1.24-.13-.5-.35-.92-.66-1.26-.53-.56-1.21-.85-2.04-.85s-1.56.29-2.1.87c-.54.58-.8,1.39-.8,2.44s.26,1.8.8,2.36c.53.56,1.25.84,2.16.84.72,0,1.32-.18,1.78-.53.42-.32.72-.75.89-1.3-.01-.06-.03-.12-.04-.19l-.98-.13c-.16.45-.38.77-.65.98-.28.2-.61.3-.99.3-.52,0-.96-.18-1.3-.54-.35-.37-.55-.89-.58-1.57h4.37c.01.35.05.67.13.96h.11c-.02.07-.04.13-.07.19.12.37.29.7.52.98.97,1.18,2.95,1.04,3.85.22.46-.42.74-.97.85-1.65l-1.03-.14ZM572.8,76.17c.04-.54.22-.98.55-1.3.33-.33.74-.49,1.22-.49.54,0,.97.21,1.31.61.22.26.35.66.4,1.18h-3.48Z"/>
    <path d="M570.18,77.18c-.5,1.9-1.69,2.85-3.59,2.85-1.35,0-2.36-.44-3.02-1.31-.59-.77-.89-1.7-.92-2.78h-4.59v2.93h5.27v1.01h-6.41v-8.59h6.22v1.01h-5.08v2.63h4.61c.05-.57.19-1.09.41-1.58.3-.64.75-1.17,1.36-1.59.61-.41,1.33-.62,2.18-.62s1.63.22,2.23.66c.6.45,1.01,1.06,1.22,1.84l-1.12.3c-.32-1.2-1.1-1.8-2.34-1.8-.84,0-1.49.25-1.97.75-.47.51-.73,1.19-.78,2.05h3.15v1.01h-3.19c.04.97.31,1.73.8,2.29.49.55,1.12.83,1.89.83,1.37,0,2.23-.73,2.57-2.18l1.1.29Z"/>
  </g>
  <text class="cls-6" transform="translate(572.92 133.76) rotate(-90)"><tspan x="0" y="0">H</tspan><tspan class="cls-8" x="7.22" y="0">air</tspan></text>
  <text class="cls-2" transform="translate(507.38 99.04)"><tspan x="0" y="0">əʊ</tspan></text>
  <g>
    <path d="M514.33,75.61c0,1.28-.36,2.33-1.08,3.15-.76.86-1.77,1.28-3.03,1.28-.81,0-1.54-.2-2.19-.6-.68-.41-1.17-.98-1.48-1.71-.29-.68-.43-1.36-.43-2.02,0-1.33.35-2.41,1.04-3.23.74-.88,1.77-1.32,3.08-1.32s2.29.43,3.04,1.29c.71.82,1.07,1.87,1.07,3.16ZM513.13,76.1h-5.84c.06.8.32,1.48.79,2.03.53.62,1.24.94,2.13.94s1.54-.29,2.07-.86c.49-.54.78-1.24.85-2.11ZM513.13,75.09c-.07-.86-.34-1.54-.8-2.05-.55-.61-1.25-.91-2.1-.91s-1.54.29-2.1.86c-.46.47-.73,1.17-.81,2.1h5.82Z"/>
    <path d="M518.79,73.12c.5,0,.95.08,1.36.25s.76.4,1.06.7.52.67.69,1.09.24.89.24,1.41-.08.98-.24,1.4-.39.78-.68,1.08-.65.53-1.06.7-.87.25-1.36.25-.98-.09-1.4-.26-.77-.41-1.06-.71-.51-.66-.67-1.06-.23-.84-.23-1.31c0-.55.08-1.05.25-1.49s.39-.81.69-1.11.65-.53,1.06-.69.87-.24,1.36-.24ZM518.78,79.1c.34,0,.65-.06.93-.18s.5-.28.69-.5.34-.48.44-.79.16-.67.17-1.06c0-.4-.05-.76-.16-1.07s-.26-.58-.45-.8-.42-.38-.69-.5-.57-.17-.9-.17-.64.05-.91.16-.51.27-.71.48-.35.49-.47.82-.17.72-.17,1.17c0,.36.05.69.16.98s.25.55.45.77.43.38.7.5.58.18.93.18ZM520.21,77.02h-2.87v-.93h2.87v.93Z"/>
  </g>
  <text class="cls-6" transform="translate(517.32 140.13) rotate(-90)"><tspan x="0" y="0">Sh</tspan><tspan class="cls-8" x="12.23" y="0">ow</tspan></text>
  <text class="cls-2" transform="translate(456.44 99.04)"><tspan x="0" y="0">ɔɪ</tspan></text>
  <g>
    <path d="M457.95,79.89v-3.64l-3.31-4.95h1.38l1.69,2.59c.31.48.6.97.87,1.45.26-.45.57-.96.94-1.52l1.66-2.53h1.32l-3.43,4.95v3.64h-1.14Z"/>
    <path d="M463.36,82.29l-.12-.99c.23.06.43.09.6.09.23,0,.42-.04.56-.12s.26-.19.35-.33c.07-.11.17-.37.32-.79.02-.06.05-.14.09-.26l-2.36-6.23h1.14l1.29,3.6c.17.46.32.94.45,1.44.12-.48.27-.96.43-1.42l1.33-3.63h1.05l-2.37,6.33c-.25.68-.45,1.15-.59,1.41-.19.35-.4.6-.64.76s-.53.24-.87.24c-.2,0-.43-.04-.68-.13Z"/>
  </g>
  <text class="cls-6" transform="translate(464.77 132.38) rotate(-90)"><tspan x="0" y="0">B</tspan><tspan class="cls-8" x="6.67" y="0">oy</tspan></text>
  <text class="cls-2" transform="translate(433.91 99.04)"><tspan x="0" y="0">eɪ</tspan></text>
  <g>
    <path d="M432.77,79.89v-8.59h6.21v1.01h-5.07v2.63h4.75v1.01h-4.75v2.92h5.27v1.01h-6.41ZM434.24,70.58v-.87h3.66v.87h-3.66Z"/>
    <path d="M444.87,77.89l1.09.13c-.17.64-.49,1.13-.96,1.48s-1.06.53-1.78.53c-.91,0-1.63-.28-2.17-.84s-.8-1.35-.8-2.36.27-1.86.81-2.44,1.24-.87,2.1-.87,1.51.28,2.04.85.79,1.36.79,2.39c0,.06,0,.16,0,.28h-4.64c.04.68.23,1.21.58,1.57s.78.54,1.3.54c.39,0,.72-.1.99-.3s.49-.53.65-.97ZM441.3,72.7v-.87h3.66v.87h-3.66ZM441.41,76.19h3.47c-.05-.52-.18-.92-.4-1.18-.34-.41-.77-.61-1.31-.61-.48,0-.89.16-1.22.49s-.51.76-.55,1.3Z"/>
  </g>
  <text class="cls-6" transform="translate(442.58 134.8) rotate(-90)"><tspan class="cls-3" x="0" y="0">W</tspan><tspan class="cls-8" x="9.26" y="0">ait</tspan></text>
  <text class="cls-2" transform="translate(534.05 99.04)"><tspan x="0" y="0">ɪə</tspan></text>
  <g>
    <path d="M540,77.18c-.5,1.9-1.69,2.85-3.59,2.85-1.35,0-2.36-.43-3.02-1.31-.58-.76-.89-1.69-.92-2.76h-1.2v3.89h-1.14v-8.76h1.14v3.86h1.22c.05-.57.19-1.1.41-1.59.3-.65.75-1.18,1.36-1.59s1.33-.62,2.18-.62,1.63.22,2.23.66c.6.44,1.01,1.06,1.22,1.84l-1.11.29c-.33-1.2-1.11-1.8-2.35-1.8-.83,0-1.49.26-1.96.76-.48.5-.74,1.19-.79,2.05h3.15v1.01h-3.19c.04.96.31,1.72.8,2.28s1.12.84,1.89.84c1.37,0,2.23-.73,2.57-2.18l1.1.28Z"/>
    <path d="M548.92,77.72c-.11.68-.39,1.23-.85,1.65-1.12,1.02-3.08.79-3.86-.21-.42-.54-.65-1.23-.68-2.06h-1.05v2.76h-1.14v-6.33h1.14v2.72h1.07c.07-.78.32-1.4.73-1.88.5-.58,1.19-.87,2.06-.87.7,0,1.26.19,1.69.56s.69.84.78,1.42l-1.02.17c-.17-.85-.67-1.27-1.48-1.27-.47,0-.86.17-1.15.52-.3.34-.49.79-.55,1.35h2.19v.86h-2.19c.06.68.24,1.19.52,1.52.28.34.68.51,1.18.51.89,0,1.42-.51,1.58-1.55l1.03.14Z"/>
  </g>
  <text class="cls-6" transform="translate(542.73 136.22) rotate(-90)"><tspan x="0" y="0">H</tspan><tspan class="cls-8" x="7.22" y="0">ere</tspan></text>
  <text class="cls-5" transform="translate(409.78 54.79)"><tspan x="0" y="0">Diphthongs</tspan></text>
  <text class="cls-2" transform="translate(256.14 99.04)"><tspan x="0" y="0">i</tspan></text>
  <g>
    <path d="M253.97,70.74v-.87h3.66v.87h-3.66ZM255.25,79.89v-8.59h1.14v8.59h-1.14Z"/>
    <path d="M257.33,72.7v-.87h3.66v.87h-3.66ZM258.63,79.89v-6.22h1.05v6.22h-1.05Z"/>
  </g>
  <text class="cls-6" transform="translate(260.68 143.46) rotate(-90)"><tspan x="0" y="0">Sh</tspan><tspan class="cls-8" x="12.23" y="0">ee</tspan><tspan x="23.35" y="0">p</tspan></text>
  <text class="cls-2" transform="translate(343.64 99.04)"><tspan x="0" y="0">ɔ</tspan></text>
  <g>
    <path d="M339.15,75.7c0-1.43.38-2.54,1.15-3.35s1.75-1.21,2.96-1.21c.79,0,1.51.19,2.14.57s1.12.91,1.46,1.58.5,1.45.5,2.31-.18,1.65-.53,2.34-.85,1.21-1.49,1.56-1.34.53-2.09.53c-.81,0-1.53-.2-2.17-.59s-1.12-.92-1.45-1.6-.49-1.39-.49-2.14ZM340.32,75.72c0,1.04.28,1.85.83,2.45s1.25.89,2.09.89,1.56-.3,2.11-.9.83-1.46.83-2.56c0-.7-.12-1.31-.35-1.83s-.58-.93-1.04-1.21-.97-.43-1.53-.43c-.8,0-1.5.28-2.08.83s-.87,1.48-.87,2.77ZM341.52,70.52v-.87h3.66v.87h-3.66Z"/>
    <path d="M348.3,76.78c0-1.15.32-2.01.96-2.56.54-.46,1.19-.69,1.96-.69.86,0,1.55.28,2.1.84s.81,1.33.81,2.32c0,.8-.12,1.43-.36,1.89s-.59.82-1.05,1.07-.96.38-1.5.38c-.87,0-1.58-.28-2.11-.84s-.81-1.36-.81-2.41ZM349.38,76.78c0,.8.17,1.39.52,1.79s.79.59,1.31.59.96-.2,1.31-.6.52-1.01.52-1.82c0-.77-.17-1.35-.52-1.75s-.78-.59-1.3-.59-.96.2-1.31.59-.52.99-.52,1.79ZM349.45,72.7v-.87h3.66v.87h-3.66Z"/>
  </g>
  <text class="cls-6" transform="translate(349.84 137.1) rotate(-90)"><tspan x="0" y="0">D</tspan><tspan class="cls-8" x="7.22" y="0">oo</tspan><tspan x="18.34" y="0">r</tspan></text>
  <text class="cls-2" transform="translate(276.33 99.04)"><tspan x="0" y="0">ɑ</tspan></text>
  <g>
    <path d="M272.58,79.89l3.3-8.59h1.22l3.52,8.59h-1.29l-1-2.6h-3.59l-.94,2.6h-1.21ZM274.7,70.65v-.87h3.66v.87h-3.66ZM275.05,76.37h2.91l-.9-2.38c-.27-.72-.48-1.32-.61-1.78-.11.55-.26,1.1-.46,1.64l-.94,2.52Z"/>
    <path d="M285.45,79.13c-.39.33-.77.57-1.13.7s-.75.21-1.16.21c-.68,0-1.21-.17-1.58-.5s-.55-.76-.55-1.28c0-.3.07-.58.21-.83s.32-.45.54-.61.48-.27.76-.35c.21-.05.52-.11.94-.16.85-.1,1.48-.22,1.88-.36,0-.14,0-.24,0-.28,0-.43-.1-.73-.3-.91-.27-.24-.67-.36-1.2-.36-.5,0-.86.09-1.1.26s-.41.48-.52.92l-1.03-.14c.09-.44.25-.8.46-1.07s.53-.48.93-.63.88-.22,1.41-.22.96.06,1.29.19.58.28.73.47.27.43.33.72c.04.18.05.5.05.97v1.41c0,.98.02,1.6.07,1.86s.13.51.27.75h-1.1c-.11-.22-.18-.47-.21-.77ZM285.36,76.77c-.38.16-.96.29-1.72.4-.43.06-.74.13-.92.21s-.32.19-.42.34-.15.32-.15.5c0,.28.11.52.32.7s.52.28.93.28.77-.09,1.08-.27.55-.42.7-.73c.11-.24.17-.59.17-1.05v-.39ZM282.2,72.7v-.87h3.66v.87h-3.66Z"/>
  </g>
  <text class="cls-6" transform="translate(282.87 130.42) rotate(-90)"><tspan x="0" y="0">F</tspan><tspan class="cls-8" x="6.11" y="0">a</tspan><tspan x="11.67" y="0">r</tspan></text>
  <text class="cls-2" transform="translate(320.71 99.04)"><tspan x="0" y="0">u</tspan></text>
  <g>
    <path d="M320.47,79.89l-3.33-8.59h1.23l2.23,6.24c.18.5.33.97.45,1.41.13-.47.29-.94.46-1.41l2.32-6.24h1.16l-3.36,8.59h-1.17ZM319.25,70.71v-.87h3.66v.87h-3.66Z"/>
    <g>
      <path d="M327.62,79.89l-2.37-6.22h1.11l1.34,3.73c.14.4.28.82.4,1.25.09-.33.22-.72.39-1.18l1.38-3.8h1.08l-2.36,6.22h-.98Z"/>
      <rect x="326.27" y="72.2" width="3.66" height=".87"/>
    </g>
  </g>
  <text class="cls-6" transform="translate(327.25 141.11) rotate(-90)"><tspan x="0" y="0">Sh</tspan><tspan class="cls-8" x="12.23" y="0">oo</tspan><tspan x="23.35" y="0">t</tspan></text>
  <text class="cls-2" transform="translate(299.11 99.04)"><tspan x="0" y="0">ɜ</tspan></text>
  <g>
    <g>
      <path d="M300.71,71.3h1.14v4.96c0,.86-.1,1.55-.29,2.06s-.55.92-1.06,1.24-1.18.48-2.01.48-1.46-.14-1.97-.42-.88-.68-1.1-1.2-.33-1.24-.33-2.15v-4.96h1.14v4.96c0,.75.07,1.3.21,1.65s.38.63.71.82.75.29,1.24.29c.84,0,1.43-.19,1.79-.57s.53-1.11.53-2.19v-4.96Z"/>
      <rect x="296.64" y="69.84" width="3.66" height=".87"/>
    </g>
    <path d="M307.68,79.89v-.91c-.48.7-1.14,1.05-1.97,1.05-.37,0-.71-.07-1.03-.21s-.55-.32-.71-.53-.26-.47-.33-.78c-.04-.21-.06-.54-.06-.98v-3.86h1.05v3.45c0,.55.02.92.06,1.11.07.28.21.5.42.65s.48.24.8.24.61-.08.89-.24.47-.38.59-.66.17-.68.17-1.22v-3.33h1.05v6.22h-.94ZM304.28,73.06v-.87h3.66v.87h-3.66Z"/>
  </g>
  <text class="cls-6" transform="translate(305.06 132.75) rotate(-90)"><tspan x="0" y="0">B</tspan><tspan class="cls-8" x="6.67" y="0">i</tspan><tspan x="8.89" y="0">rd</tspan></text>
  <text class="cls-5" transform="translate(250.38 54.79)"><tspan x="0" y="0">Long </tspan><tspan class="cls-11" x="19.04" y="0">V</tspan><tspan class="cls-1" x="23.84" y="0">owels</tspan></text>
  <text class="cls-2" transform="translate(51.56 99.04)"><tspan x="0" y="0">ɪ</tspan></text>
  <g>
    <path d="M51.66,79.89v-8.59h1.14v8.59h-1.14Z"/>
    <path d="M54.67,72.52v-1.21h1.05v1.21h-1.05ZM54.67,79.89v-6.22h1.05v6.22h-1.05Z"/>
  </g>
  <text class="cls-6" transform="translate(56.89 134.56) rotate(-90)"><tspan x="0" y="0">Sh</tspan><tspan class="cls-8" x="12.23" y="0">i</tspan><tspan x="14.45" y="0">p</tspan></text>
  <g>
    <path d="M138.88,79.89l-3.33-8.59h1.23l2.23,6.24c.18.5.33.97.45,1.41.13-.47.29-.94.46-1.41l2.32-6.24h1.16l-3.36,8.59h-1.17Z"/>
    <path d="M146.03,79.89l-2.37-6.22h1.11l1.34,3.73c.14.4.28.82.4,1.25.09-.33.22-.72.39-1.18l1.38-3.8h1.08l-2.36,6.22h-.98Z"/>
  </g>
  <text class="cls-2" transform="translate(139.05 99.04)"><tspan x="0" y="0">ʊ</tspan></text>
  <text class="cls-6" transform="translate(145.66 139.43) rotate(-90)"><tspan x="0" y="0">G</tspan><tspan class="cls-8" x="7.78" y="0">oo</tspan><tspan x="18.9" y="0">d</tspan></text>
  <text class="cls-2" transform="translate(92.74 99.04)"><tspan x="0" y="0">æ</tspan></text>
  <g>
    <path d="M90.98,79.89l3.3-8.59h1.22l3.52,8.59h-1.29l-1-2.6h-3.59l-.94,2.6h-1.21ZM93.46,76.37h2.91l-.9-2.38c-.27-.72-.48-1.32-.61-1.78-.11.55-.26,1.1-.46,1.64l-.94,2.52Z"/>
    <path d="M103.86,79.13c-.39.33-.77.57-1.13.7s-.75.21-1.16.21c-.68,0-1.21-.17-1.58-.5s-.55-.76-.55-1.28c0-.3.07-.58.21-.83s.32-.45.54-.61.48-.27.76-.35c.21-.05.52-.11.94-.16.85-.1,1.48-.22,1.88-.36,0-.14,0-.24,0-.28,0-.43-.1-.73-.3-.91-.27-.24-.67-.36-1.2-.36-.5,0-.86.09-1.1.26s-.41.48-.52.92l-1.03-.14c.09-.44.25-.8.46-1.07s.53-.48.93-.63.88-.22,1.41-.22.96.06,1.29.19.58.28.73.47.27.43.33.72c.04.18.05.5.05.97v1.41c0,.98.02,1.6.07,1.86s.13.51.27.75h-1.1c-.11-.22-.18-.47-.21-.77ZM103.77,76.77c-.38.16-.96.29-1.72.4-.43.06-.74.13-.92.21s-.32.19-.42.34-.15.32-.15.5c0,.28.11.52.32.7s.52.28.93.28.77-.09,1.08-.27.55-.42.7-.73c.11-.24.17-.59.17-1.05v-.39Z"/>
  </g>
  <text class="cls-6" transform="translate(101.28 130.54) rotate(-90)"><tspan x="0" y="0">C</tspan><tspan class="cls-8" x="7.22" y="0">a</tspan><tspan x="12.78" y="0">t</tspan></text>
  <text class="cls-2" transform="translate(117.27 99.04)"><tspan x="0" y="0">ʌ</tspan></text>
  <g>
    <path d="M119.12,71.3h1.14v4.96c0,.86-.1,1.55-.29,2.06s-.55.92-1.06,1.24-1.18.48-2.01.48-1.46-.14-1.97-.42-.88-.68-1.1-1.2-.33-1.24-.33-2.15v-4.96h1.14v4.96c0,.75.07,1.3.21,1.65s.38.63.71.82.75.29,1.24.29c.84,0,1.43-.19,1.79-.57s.53-1.11.53-2.19v-4.96Z"/>
    <path d="M126.09,79.89v-.91c-.48.7-1.14,1.05-1.97,1.05-.37,0-.71-.07-1.03-.21s-.55-.32-.71-.53-.26-.47-.33-.78c-.04-.21-.06-.54-.06-.98v-3.86h1.05v3.45c0,.55.02.92.06,1.11.07.28.21.5.42.65s.48.24.8.24.61-.08.89-.24.47-.38.59-.66.17-.68.17-1.22v-3.33h1.05v6.22h-.94Z"/>
  </g>
  <text class="cls-6" transform="translate(123.47 127.33) rotate(-90)"><tspan class="cls-8" x="0" y="0">U</tspan><tspan x="7.22" y="0">p</tspan></text>
  <text class="cls-2" transform="translate(161.71 99.04)"><tspan x="0" y="0">ɒ</tspan></text>
  <g>
    <path d="M157.56,75.71c0-1.43.38-2.54,1.15-3.35s1.75-1.21,2.96-1.21c.79,0,1.51.19,2.14.57s1.12.91,1.46,1.58.5,1.45.5,2.31-.18,1.65-.53,2.34-.85,1.21-1.49,1.56-1.34.53-2.09.53c-.81,0-1.53-.2-2.17-.59s-1.12-.92-1.45-1.6-.49-1.39-.49-2.14ZM158.73,75.73c0,1.04.28,1.85.83,2.45s1.25.89,2.09.89,1.56-.3,2.11-.9.83-1.46.83-2.56c0-.7-.12-1.31-.35-1.83s-.58-.93-1.04-1.21-.97-.43-1.53-.43c-.8,0-1.5.28-2.08.83s-.87,1.48-.87,2.77Z"/>
    <path d="M166.71,76.79c0-1.15.32-2.01.96-2.56.54-.46,1.19-.69,1.96-.69.86,0,1.55.28,2.1.84s.81,1.33.81,2.32c0,.8-.12,1.43-.36,1.89s-.59.82-1.05,1.07-.96.38-1.5.38c-.87,0-1.58-.28-2.11-.84s-.81-1.36-.81-2.41ZM167.79,76.79c0,.8.17,1.39.52,1.79s.79.59,1.31.59.96-.2,1.31-.6.52-1.01.52-1.82c0-.77-.17-1.35-.52-1.75s-.78-.59-1.3-.59-.96.2-1.31.59-.52.99-.52,1.79Z"/>
  </g>
  <text class="cls-6" transform="translate(168.25 127.89) rotate(-90)"><tspan class="cls-8" x="0" y="0">O</tspan><tspan x="7.78" y="0">n</tspan></text>
  <text class="cls-2" transform="translate(72.55 99.04)"><tspan x="0" y="0">e</tspan></text>
  <g>
    <path d="M69.27,79.89v-8.59h6.21v1.01h-5.07v2.63h4.75v1.01h-4.75v2.92h5.27v1.01h-6.41Z"/>
    <path d="M81.38,77.89l1.09.13c-.17.64-.49,1.13-.96,1.48s-1.06.53-1.78.53c-.91,0-1.63-.28-2.17-.84s-.8-1.35-.8-2.36.27-1.86.81-2.44,1.24-.87,2.1-.87,1.51.28,2.04.85.79,1.36.79,2.39c0,.06,0,.16,0,.28h-4.64c.04.68.23,1.21.58,1.57s.78.54,1.3.54c.39,0,.72-.1.99-.3s.49-.53.65-.97ZM77.91,76.19h3.47c-.05-.52-.18-.92-.4-1.18-.34-.41-.77-.61-1.31-.61-.48,0-.89.16-1.22.49s-.51.76-.55,1.3Z"/>
  </g>
  <text class="cls-6" transform="translate(79.08 132.76) rotate(-90)"><tspan x="0" y="0">B</tspan><tspan class="cls-8" x="6.67" y="0">e</tspan><tspan x="12.23" y="0">d</tspan></text>
  <text class="cls-2" transform="translate(184.3 99.04)"><tspan x="0" y="0">ə</tspan></text>
  <g>
    <path d="M185.08,74.94v1.01h-3.19c.04.96.31,1.73.8,2.28s1.12.83,1.89.83c1.37,0,2.22-.73,2.57-2.18l1.1.29c-.5,1.9-1.69,2.85-3.59,2.85-1.36,0-2.36-.44-3.03-1.31s-.97-1.95-.93-3.23c0-.78.15-1.49.44-2.14s.75-1.17,1.36-1.59,1.34-.62,2.18-.62c.89,0,1.64.22,2.24.66s1,1.05,1.22,1.84l-1.11.29c-.32-1.2-1.11-1.8-2.34-1.8-.84,0-1.49.25-1.97.76s-.74,1.19-.78,2.04h3.15Z"/>
    <path d="M192.44,76.26v.87h-2.2c.07.68.24,1.18.52,1.52s.68.51,1.18.51c.89,0,1.42-.52,1.58-1.55l1.03.13c-.11.68-.39,1.23-.85,1.65-1.11,1.01-3.07.78-3.85-.21-.48-.61-.71-1.42-.69-2.41,0-1.01.25-1.81.76-2.38s1.19-.87,2.06-.87c.7,0,1.26.18,1.69.55s.69.84.79,1.43l-1.03.16c-.17-.85-.67-1.27-1.48-1.27-.47,0-.85.17-1.15.52s-.48.8-.55,1.35h2.2Z"/>
  </g>
  <text class="cls-6" transform="translate(190.83 151.19) rotate(-90)"><tspan class="cls-12" x="0" y="0">T</tspan><tspan x="5.19" y="0">each</tspan><tspan class="cls-8" x="26.88" y="0">er</tspan></text>
  <text class="cls-5" transform="translate(46.6 54.79)"><tspan x="0" y="0">Short </tspan><tspan class="cls-10" x="20.3" y="0">V</tspan><tspan x="25.1" y="0">owels</tspan></text>
  <g>
    <text class="cls-2" transform="translate(50.36 242.48)"><tspan x="0" y="0">b</tspan></text>
    <g>
      <path d="M47.04,215.75v-8.59h3.22c.66,0,1.18.09,1.58.26s.71.44.93.8.34.74.34,1.13c0,.37-.1.71-.3,1.04s-.5.59-.9.79c.52.15.92.41,1.2.78s.42.8.42,1.3c0,.4-.08.78-.25,1.12s-.38.61-.63.8-.56.33-.94.42-.84.14-1.39.14h-3.28ZM48.18,210.77h1.86c.5,0,.87-.03,1.08-.1.29-.09.51-.23.65-.43s.22-.45.22-.75c0-.29-.07-.54-.21-.75s-.33-.37-.59-.45-.69-.12-1.31-.12h-1.72v2.6ZM48.18,214.74h2.14c.37,0,.62-.01.77-.04.26-.05.48-.12.66-.23s.32-.27.43-.48.17-.45.17-.72c0-.32-.08-.6-.25-.83s-.39-.4-.68-.5-.71-.14-1.26-.14h-1.99v2.95Z"/>
      <path d="M55.93,215.75h-.98v-8.59h1.05v3.06c.45-.56,1.01-.84,1.71-.84.38,0,.75.08,1.09.23s.62.37.84.65.39.62.52,1.01.19.82.19,1.27c0,1.07-.26,1.89-.79,2.47s-1.16.87-1.9.87-1.31-.31-1.73-.92v.78ZM55.92,212.6c0,.75.1,1.29.3,1.62.33.54.78.81,1.35.81.46,0,.86-.2,1.2-.6s.5-1,.5-1.79-.16-1.41-.48-1.8-.71-.58-1.17-.58-.86.2-1.2.6-.5.98-.5,1.74Z"/>
    </g>
  </g>
  <text class="cls-6" transform="translate(56.89 281.06) rotate(-90)"><tspan class="cls-8" x="0" y="0">Boa</tspan><tspan x="17.79" y="0">t</tspan></text>
  <g>
    <text class="cls-2" transform="translate(72.55 242.48)"><tspan x="0" y="0">d</tspan></text>
    <g>
      <path d="M69.11,215.75v-8.59h2.96c.67,0,1.18.04,1.53.12.49.11.91.32,1.26.62.45.38.79.87,1.02,1.47s.34,1.28.34,2.04c0,.65-.08,1.23-.23,1.73s-.35.92-.59,1.25-.5.59-.78.78-.62.33-1.03.43-.86.15-1.38.15h-3.1ZM70.25,214.74h1.83c.57,0,1.01-.05,1.33-.16s.58-.25.77-.45c.27-.27.48-.63.63-1.09s.23-1.01.23-1.66c0-.9-.15-1.59-.44-2.07s-.65-.81-1.08-.97c-.3-.12-.79-.18-1.47-.18h-1.8v6.56Z"/>
      <path d="M81.68,215.75v-.79c-.39.62-.97.93-1.74.93-.5,0-.95-.14-1.37-.41s-.74-.66-.97-1.15-.34-1.05-.34-1.69.1-1.18.31-1.69.52-.89.93-1.16.88-.4,1.39-.4c.38,0,.71.08,1,.24s.53.36.71.62v-3.08h1.05v8.59h-.98ZM78.35,212.65c0,.8.17,1.39.5,1.79s.73.59,1.19.59.85-.19,1.17-.57.48-.95.48-1.73c0-.85-.16-1.48-.49-1.88s-.73-.6-1.21-.6-.86.19-1.17.57-.47.99-.47,1.81Z"/>
    </g>
  </g>
  <text class="cls-6" transform="translate(79.08 278.49) rotate(-90)"><tspan class="cls-8" x="0" y="0">D</tspan><tspan x="7.22" y="0">og</tspan></text>
  <g>
    <text class="cls-2" transform="translate(91.47 242.48)"><tspan x="0" y="0">dʒ</tspan></text>
    <g>
      <path d="M94,213.29l1.03-.14c.03.66.15,1.11.37,1.35s.52.36.91.36c.29,0,.53-.07.74-.2s.35-.31.43-.53.12-.58.12-1.08v-5.92h1.14v5.85c0,.72-.09,1.28-.26,1.67s-.45.7-.83.9-.82.31-1.33.31c-.75,0-1.33-.22-1.73-.65s-.59-1.08-.58-1.93Z"/>
      <path d="M99.11,218.15l.2-.9c.21.05.38.08.5.08.21,0,.38-.07.48-.21s.16-.5.16-1.07v-6.54h1.05v6.56c0,.77-.1,1.3-.3,1.6-.25.39-.68.59-1.27.59-.29,0-.56-.04-.83-.11ZM100.44,208.37v-1.22h1.05v1.22h-1.05Z"/>
    </g>
  </g>
  <text class="cls-6" transform="translate(101.28 281.74) rotate(-90)"><tspan class="cls-8" x="0" y="0">J</tspan><tspan x="5" y="0">une</tspan></text>
  <g>
    <text class="cls-2" transform="translate(117.47 242.48)"><tspan x="0" y="0">g</tspan></text>
    <g>
      <path d="M117.48,212.38v-1.01h3.64s0,3.18,0,3.18c-.56.45-1.13.78-1.73,1s-1.2.34-1.83.34c-.84,0-1.61-.18-2.3-.54s-1.21-.88-1.56-1.57-.53-1.45-.53-2.29.17-1.62.52-2.34.85-1.26,1.51-1.61,1.41-.53,2.27-.53c.62,0,1.18.1,1.68.3s.9.48,1.18.84.5.83.65,1.41l-1.03.28c-.13-.44-.29-.78-.48-1.03s-.46-.45-.82-.6-.75-.23-1.18-.23c-.52,0-.97.08-1.35.24s-.68.37-.92.62-.41.54-.54.85c-.22.53-.33,1.11-.33,1.73,0,.77.13,1.41.4,1.92s.65.9,1.15,1.15,1.04.38,1.61.38c.49,0,.97-.09,1.44-.28s.82-.39,1.07-.61v-1.6h-2.53Z"/>
      <path d="M122.47,216.41l1.03.15c.04.32.16.55.36.69.26.2.62.29,1.07.29.49,0,.87-.1,1.13-.29s.45-.47.54-.82c.05-.21.08-.67.08-1.35-.46.54-1.04.81-1.72.81-.86,0-1.52-.31-1.99-.93s-.7-1.36-.7-2.22c0-.59.11-1.14.32-1.64s.53-.89.93-1.16.89-.41,1.44-.41c.73,0,1.34.3,1.82.89v-.75h.97v5.38c0,.97-.1,1.66-.3,2.06s-.51.72-.94.96-.95.35-1.58.35c-.74,0-1.34-.17-1.8-.5s-.68-.84-.66-1.51ZM123.34,212.67c0,.82.16,1.41.49,1.79s.73.56,1.22.56.89-.19,1.22-.56.49-.96.49-1.75-.17-1.34-.51-1.72-.75-.58-1.22-.58-.87.19-1.2.57-.49.95-.49,1.7Z"/>
    </g>
  </g>
  <text class="cls-6" transform="translate(123.65 273.39) rotate(-90)"><tspan class="cls-8" x="0" y="0">G</tspan><tspan x="7.78" y="0">o</tspan></text>
  <g>
    <text class="cls-2" transform="translate(140.04 242.48)"><tspan x="0" y="0">v</tspan></text>
    <g>
      <path d="M135.74,215.75l3.3-8.59h1.22l3.52,8.59h-8.04ZM137.31,214.74h4.78l-1.86-4.89c-.28-.73-.48-1.33-.61-1.78-.11.53-.26,1.08-.46,1.64l-1.85,5.03Z"/>
      <path d="M151.96,215.75h-6.66l2.7-6.66h1.1l2.87,6.66ZM150.37,214.82l-1.46-3.66c-.05-.13-.1-.25-.13-.34s-.07-.17-.09-.24-.05-.14-.07-.2-.04-.13-.06-.2c-.05.17-.1.33-.16.5s-.11.33-.17.49l-1.42,3.65h3.57Z"/>
    </g>
  </g>
  <text class="cls-6" transform="translate(147.05 285.45) rotate(-90)"><tspan class="cls-4" x="0" y="0">V</tspan><tspan x="6.49" y="0">ideo</tspan></text>
  <g>
    <text class="cls-2" transform="translate(185.27 242.48)"><tspan x="0" y="0">z</tspan></text>
    <g>
      <path d="M182.93,215.75v-1.05l4.4-5.5c.31-.39.61-.73.89-1.02h-4.79v-1.01h6.15v1.01l-4.82,5.96-.52.6h5.48v1.01h-6.79Z"/>
      <path d="M190.26,215.75v-.86l3.96-4.55c-.45.02-.85.04-1.19.04h-2.54v-.86h5.09v.7l-3.37,3.95-.65.72c.47-.04.92-.05,1.33-.05h2.88v.91h-5.51Z"/>
    </g>
  </g>
  <text class="cls-6" transform="translate(192.55 277.28) rotate(-90)"><tspan class="cls-8" x="0" y="0">Z</tspan><tspan x="6.11" y="0">oo</tspan></text>
  <g>
    <text class="cls-2" transform="translate(231.78 242.48)"><tspan x="0" y="0">m</tspan></text>
    <g>
      <path d="M226.63,215.75v-8.59h1.71l2.03,6.08c.19.57.32.99.41,1.27.1-.31.25-.77.46-1.38l2.06-5.98h1.53v8.59h-1.1v-7.19l-2.5,7.19h-1.03l-2.48-7.31v7.31h-1.1Z"/>
      <path d="M236.53,215.75v-6.22h.94v.87c.2-.3.46-.55.78-.74s.69-.28,1.11-.28c.46,0,.84.1,1.13.29s.5.46.62.8c.49-.73,1.13-1.09,1.92-1.09.62,0,1.09.17,1.42.51s.5.87.5,1.58v4.27h-1.05v-3.92c0-.42-.03-.73-.1-.91s-.19-.33-.37-.45-.39-.17-.63-.17c-.44,0-.8.15-1.09.44s-.43.76-.43,1.4v3.62h-1.05v-4.04c0-.47-.09-.82-.26-1.05s-.45-.35-.84-.35c-.3,0-.57.08-.82.23s-.43.38-.55.69-.17.73-.17,1.3v3.23h-1.05Z"/>
    </g>
  </g>
  <text class="cls-6" transform="translate(239 279.51) rotate(-90)"><tspan class="cls-8" x="0" y="0">M</tspan><tspan x="8.33" y="0">an</tspan></text>
  <g>
    <text class="cls-2" transform="translate(256.72 242.48)"><tspan x="0" y="0">n</tspan></text>
    <g>
      <path d="M253.26,215.75v-8.59h1.17l4.51,6.74v-6.74h1.09v8.59h-1.17l-4.51-6.75v6.75h-1.09Z"/>
      <path d="M261.8,215.75v-6.22h.95v.88c.46-.68,1.12-1.03,1.98-1.03.38,0,.72.07,1.03.2s.55.31.71.53.27.48.33.78c.04.2.06.54.06,1.03v3.83h-1.05v-3.79c0-.43-.04-.75-.12-.96s-.23-.38-.44-.51-.45-.19-.74-.19c-.45,0-.84.14-1.16.43s-.49.83-.49,1.62v3.4h-1.05Z"/>
    </g>
  </g>
  <text class="cls-6" transform="translate(263.26 280.62) rotate(-90)"><tspan class="cls-8" x="0" y="0">N</tspan><tspan x="7.22" y="0">ow</tspan></text>
  <g>
    <text class="cls-2" transform="translate(303.01 242.48)"><tspan x="0" y="0">l</tspan></text>
    <g>
      <path d="M300.63,215.75v-8.59h1.14v7.58h4.23v1.01h-5.37Z"/>
      <path d="M307.19,215.75v-8.59h1.05v8.59h-1.05Z"/>
    </g>
  </g>
  <text class="cls-6" transform="translate(307.64 281.74) rotate(-90)"><tspan class="cls-8" x="0" y="0">L</tspan><tspan x="5.56" y="0">ove</tspan></text>
  <g>
    <text class="cls-2" transform="translate(324.35 242.48)"><tspan x="0" y="0">r</tspan></text>
    <g>
      <path d="M320.69,215.75v-8.59h3.81c.77,0,1.35.08,1.75.23s.72.43.96.82.36.82.36,1.29c0,.61-.2,1.12-.59,1.54s-1,.68-1.83.8c.3.14.53.29.69.43.33.3.65.69.94,1.14l1.49,2.34h-1.43l-1.14-1.79c-.33-.52-.61-.91-.82-1.18s-.41-.46-.58-.57-.34-.19-.52-.23c-.13-.03-.34-.04-.63-.04h-1.32v3.81h-1.14ZM321.83,210.95h2.44c.52,0,.93-.05,1.22-.16s.52-.28.67-.52.23-.49.23-.77c0-.41-.15-.74-.44-1s-.76-.39-1.4-.39h-2.72v2.84Z"/>
      <path d="M329.19,215.75v-6.22h.95v.94c.24-.44.47-.73.67-.87s.43-.21.68-.21c.36,0,.72.11,1.08.34l-.36.98c-.26-.15-.52-.23-.77-.23-.23,0-.44.07-.62.21s-.31.33-.39.58c-.12.38-.18.79-.18,1.23v3.26h-1.05Z"/>
    </g>
  </g>
  <text class="cls-6" transform="translate(329.83 278.82) rotate(-90)"><tspan class="cls-8" x="0" y="0">R</tspan><tspan x="7.22" y="0">ed</tspan></text>
  <g>
    <text class="cls-2" transform="translate(347.27 242.48)"><tspan x="0" y="0">w</tspan></text>
    <g>
      <path d="M344.01,215.75l-2.28-8.59h1.17l1.31,5.63c.14.59.26,1.18.36,1.76.22-.92.35-1.45.39-1.59l1.63-5.8h1.37l1.23,4.35c.31,1.08.53,2.09.67,3.04.11-.54.25-1.17.43-1.87l1.35-5.52h1.14l-2.36,8.59h-1.1l-1.81-6.54c-.15-.55-.24-.88-.27-1.01-.09.39-.17.73-.25,1.01l-1.82,6.54h-1.16Z"/>
      <path d="M354.85,215.75l-1.9-6.22h1.09l.99,3.59.37,1.34c.02-.07.12-.49.32-1.28l.99-3.64h1.08l.93,3.61.31,1.19.36-1.2,1.07-3.6h1.03l-1.95,6.22h-1.1l-.99-3.73-.24-1.06-1.26,4.79h-1.1Z"/>
    </g>
  </g>
  <text class="cls-6" transform="translate(354.8 278.08) rotate(-90)"><tspan class="cls-4" x="0" y="0">W</tspan><tspan x="9.26" y="0">et</tspan></text>
  <g>
    <text class="cls-2" transform="translate(375.52 242.48)"><tspan x="0" y="0">j</tspan></text>
    <g>
      <path d="M374.55,207.16h1.93v8.59h-1.14v-7.58l-3.65,7.58h-1.33l4.19-8.59Z"/>
      <polygon points="382.79 215.75 381.74 215.75 380.24 211.27 378.76 215.75 377.7 215.75 379.77 209.53 380.72 209.53 382.79 215.75"/>
    </g>
  </g>
  <text class="cls-6" transform="translate(379.78 276.74) rotate(-90)"><tspan class="cls-9" x="0" y="0">Y</tspan><tspan x="6.12" y="0">es</tspan></text>
  <g>
    <text class="cls-2" transform="translate(162.57 242.48)"><tspan x="0" y="0">ð</tspan></text>
    <g>
      <path d="M167.08,210.25c-.18-.36-.41-.63-.69-.83-.29-.2-.64-.33-1.06-.41-.31-.05-.74-.08-1.31-.08h-2.11v-1.75h-1.13v3.87h-.82v1h.82v3.72h1.13v-1.74h2.21c1.21,0,2.05-.26,2.52-.76.46-.51.69-1.12.69-1.85,0-.43-.08-.82-.25-1.17ZM165.7,212.6c-.31.28-.83.41-1.57.41h-2.22v-.96h.95v-1h-.95v-1.11h2.2c.52,0,.88.03,1.07.09.29.08.53.25.71.51.18.25.27.56.27.92,0,.49-.15.87-.46,1.14Z"/>
      <path d="M173.93,210.95c-.2-.5-.51-.89-.91-1.16-.41-.27-.88-.41-1.41-.41-.36,0-.68.07-.96.2-.22.1-.47.3-.75.6v-3.03h-1.06v4.99h-.89v1h.89v4.99h1.06v-3.03c.28.29.53.49.74.59.27.13.57.2.9.2.48,0,.93-.14,1.37-.41.43-.27.76-.66.99-1.17.23-.51.35-1.08.35-1.72,0-.6-.11-1.14-.32-1.64ZM172.67,214.42c-.34.4-.74.6-1.21.6s-.85-.19-1.18-.58c-.25-.3-.41-.73-.45-1.3h1.03v-1h-1.03c.06-.54.22-.98.49-1.3.34-.42.74-.63,1.19-.63s.84.19,1.17.59c.32.39.49.99.49,1.78,0,.83-.17,1.45-.5,1.84Z"/>
    </g>
  </g>
  <text class="cls-6" transform="translate(170.31 278.95) rotate(-90)"><tspan class="cls-8" x="0" y="0">Th</tspan><tspan x="11.67" y="0">is</tspan></text>
  <g>
    <text class="cls-2" transform="translate(278.66 242.48)"><tspan x="0" y="0">ŋ</tspan></text>
    <g>
      <path d="M275.47,207.14h6.76v8.59h-1.14v-7.58h-4.48v7.58h-1.14v-8.59Z"/>
      <path d="M289.03,211.91v4.17c0,.77-.11,1.33-.34,1.67s-.64.52-1.22.52c-.29,0-.56-.04-.83-.11l.2-.9c.21.05.37.08.5.08.25,0,.42-.09.51-.26s.13-.51.13-1.03v-4.1c0-.58-.1-1-.3-1.27s-.54-.4-1-.4-.84.15-1.16.44-.48.83-.48,1.61v3.4h-1.05v-6.22h.95v.88c.46-.68,1.12-1.03,1.98-1.03.51,0,.93.11,1.28.33s.57.49.68.81.17.79.17,1.4Z"/>
    </g>
  </g>
  <text class="cls-6" transform="translate(285.45 280.16) rotate(-90)"><tspan x="0" y="0">S</tspan><tspan class="cls-8" x="6.67" y="0">ing</tspan></text>
  <g>
    <text class="cls-2" transform="translate(207.64 242.48)"><tspan x="0" y="0">ʒ</tspan></text>
    <g>
      <path d="M205.74,207.15v1.01h4.61l-2.93,3.12,2.93,3.45h-4.85v1.01h6.08v-1.18l-2.81-3.28,2.81-2.99v-1.14h-5.84Z"/>
      <path d="M217.58,214c0,.62-.24,1.11-.71,1.44-.41.29-.95.44-1.6.44-.57,0-1.04-.1-1.41-.3v.47c0,.42.02.7.06.83.09.3.28.45.58.45.12,0,.29-.03.5-.08l.2.9c-.27.07-.54.11-.83.11-.59,0-1.01-.2-1.27-.59-.2-.3-.3-.84-.3-1.6v-2.09l.99-.21c.09.38.26.68.53.91s.59.35.97.35c.34,0,.63-.09.86-.28.25-.2.38-.47.38-.8,0-.21-.07-.41-.2-.6s-.3-.31-.5-.37c-.16-.04-.46-.06-.91-.06-.04,0-.12,0-.24,0v-.83c.41,0,.66-.01.73-.02.27-.04.48-.14.64-.31.14-.16.22-.35.22-.59,0-.3-.09-.53-.28-.69s-.43-.25-.74-.25c-.59,0-1.01.35-1.25,1.05l-1-.16c.31-1.17,1.07-1.75,2.26-1.75.59,0,1.09.16,1.48.47.43.34.64.8.64,1.38,0,.51-.25.91-.74,1.21.62.34.94.86.94,1.56Z"/>
    </g>
  </g>
  <text class="cls-6" transform="translate(214.74 304.15) rotate(-90)"><tspan class="cls-12" x="0" y="0">T</tspan><tspan x="5.19" y="0">ele</tspan><tspan class="cls-8" x="18.54" y="0">v</tspan><tspan x="23.54" y="0">ision</tspan></text>
  <text class="cls-5" transform="translate(46.6 192.85)"><tspan class="cls-10" x="0" y="0">V</tspan><tspan x="4.79" y="0">oiced Consonant</tspan></text>
  <g>
    <text class="cls-2" transform="translate(537.85 242.48)"><tspan x="0" y="0">θ</tspan></text>
    <g>
      <path d="M534.55,215.74v-8.59h1.14v1.75h2.1c.57,0,1.01.03,1.31.08.42.07.78.21,1.06.41s.51.47.69.83.26.75.26,1.17c0,.73-.23,1.34-.7,1.85s-1.3.76-2.52.76h-2.2v1.75h-1.14ZM535.68,212.98h2.22c.73,0,1.26-.14,1.56-.41s.46-.66.46-1.15c0-.36-.09-.66-.27-.92s-.42-.43-.71-.51c-.19-.05-.55-.08-1.07-.08h-2.2v3.07Z"/>
      <path d="M542.42,218.13v-10.97h1.05v3.02c.29-.3.54-.5.75-.6.28-.13.6-.2.96-.2.53,0,1,.14,1.41.41s.71.66.92,1.16.31,1.04.31,1.64c0,.64-.11,1.21-.34,1.72s-.56.9-1,1.17-.89.41-1.37.41c-.32,0-.62-.06-.9-.19-.21-.1-.46-.3-.74-.59v3.03h-1.05ZM543.37,212.67c0,.8.16,1.39.49,1.78s.72.57,1.18.57.87-.2,1.2-.59.5-1.01.5-1.84-.16-1.39-.49-1.78-.72-.59-1.17-.59-.85.21-1.19.63-.52,1.03-.52,1.83Z"/>
    </g>
  </g>
  <text class="cls-6" transform="translate(544.38 285.05) rotate(-90)"><tspan class="cls-8" x="0" y="0">Th</tspan><tspan x="11.67" y="0">ink</tspan></text>
  <g>
    <text class="cls-2" transform="translate(560.37 242.48)"><tspan x="0" y="0">s</tspan></text>
    <g>
      <path d="M556.87,212.99l1.07-.09c.05.43.17.78.35,1.06s.47.5.86.67.83.25,1.32.25c.43,0,.82-.06,1.15-.19s.58-.31.74-.53.24-.47.24-.74-.08-.5-.23-.71-.41-.37-.77-.51c-.23-.09-.74-.23-1.53-.42s-1.34-.37-1.66-.54c-.41-.21-.72-.48-.92-.8s-.3-.67-.3-1.07c0-.43.12-.84.37-1.22s.61-.66,1.08-.86,1-.29,1.58-.29c.64,0,1.2.1,1.68.31s.86.51,1.12.91.4.85.42,1.35l-1.09.08c-.06-.54-.26-.95-.59-1.23s-.84-.42-1.5-.42-1.19.13-1.5.38-.47.56-.47.91c0,.31.11.56.33.76.22.2.79.4,1.71.61s1.56.39,1.9.55c.5.23.87.52,1.11.88s.36.76.36,1.22-.13.89-.39,1.29-.64.72-1.13.94-1.04.34-1.66.34c-.78,0-1.43-.11-1.95-.34s-.94-.57-1.24-1.02-.46-.97-.47-1.54Z"/>
      <path d="M564.71,213.89l1.04-.16c.06.42.22.74.49.96s.64.33,1.12.33.84-.1,1.08-.3.35-.43.35-.69c0-.24-.1-.43-.31-.56-.14-.09-.5-.21-1.08-.36-.77-.2-1.31-.36-1.61-.51s-.53-.34-.68-.59-.23-.53-.23-.83c0-.28.06-.53.19-.77s.3-.43.52-.59c.16-.12.39-.22.67-.31s.59-.13.91-.13c.49,0,.92.07,1.29.21s.64.33.82.57.3.56.36.96l-1.03.14c-.05-.32-.18-.57-.41-.75s-.54-.27-.95-.27c-.48,0-.83.08-1.04.24s-.31.35-.31.56c0,.14.04.26.13.37.09.11.22.21.4.28.11.04.42.13.93.27.75.2,1.27.36,1.56.49s.53.31.69.55.25.54.25.9-.1.68-.31.99-.5.55-.89.72-.82.25-1.31.25c-.81,0-1.42-.17-1.85-.5s-.69-.83-.81-1.49Z"/>
    </g>
  </g>
  <text class="cls-6" transform="translate(566.57 277.85) rotate(-90)"><tspan class="cls-8" x="0" y="0">S</tspan><tspan x="6.67" y="0">ee</tspan></text>
  <g>
    <text class="cls-2" transform="translate(584.1 242.48)"><tspan x="0" y="0">ʃ</tspan></text>
    <g>
      <path d="M585.41,207.16v1.01h-4.61l2.93,3.12-2.93,3.45h4.85v1.01h-6.08v-1.18l2.81-3.28-2.81-2.99v-1.14h5.84Z"/>
      <polygon points="589.38 212.62 587.17 214.83 587.17 215.75 591.56 215.75 591.56 214.85 588.37 214.85 590.6 212.62 588.38 210.39 591.56 210.39 591.56 209.53 587.17 209.53 587.17 210.4 589.38 212.62"/>
    </g>
  </g>
  <text class="cls-6" transform="translate(588.76 282.71) rotate(-90)"><tspan class="cls-8" x="0" y="0">Sh</tspan><tspan x="12.23" y="0">all</tspan></text>
  <g>
    <text class="cls-2" transform="translate(604.42 242.48)"><tspan x="0" y="0">h</tspan></text>
    <g>
      <path d="M600.97,215.75v-8.59h1.14v3.53h4.46v-3.53h1.14v8.59h-1.14v-4.05h-4.46v4.05h-1.14Z"/>
      <path d="M609.47,215.75v-8.59h1.05v3.08c.49-.57,1.11-.86,1.86-.86.46,0,.86.09,1.2.27s.58.43.73.75.22.79.22,1.39v3.94h-1.05v-3.94c0-.53-.11-.91-.34-1.15s-.55-.36-.97-.36c-.31,0-.61.08-.88.24s-.47.38-.59.66-.18.66-.18,1.15v3.4h-1.05Z"/>
    </g>
  </g>
  <text class="cls-6" transform="translate(610.96 276.05) rotate(-90)"><tspan class="cls-8" x="0" y="0">H</tspan><tspan x="7.22" y="0">at</tspan></text>
  <g>
    <text class="cls-2" transform="translate(426.89 242.48)"><tspan x="0" y="0">p</tspan></text>
    <g>
      <path d="M423.59,215.74v-8.59h3.24c.57,0,1.01.03,1.31.08.42.07.78.2,1.06.4s.51.47.69.83.26.75.26,1.17c0,.73-.23,1.35-.7,1.85s-1.3.76-2.52.76h-2.2v3.49h-1.14ZM424.73,211.24h2.22c.73,0,1.26-.14,1.56-.41s.46-.66.46-1.15c0-.36-.09-.67-.27-.92s-.42-.42-.72-.51c-.19-.05-.54-.08-1.06-.08h-2.2v3.07Z"/>
      <path d="M431.46,218.13v-8.61h.96v.81c.23-.32.48-.55.77-.71s.63-.24,1.04-.24c.53,0,1,.14,1.41.41s.71.66.92,1.16.31,1.04.31,1.64c0,.64-.11,1.21-.34,1.72s-.56.9-1,1.17-.89.41-1.37.41c-.35,0-.67-.07-.95-.22s-.51-.34-.69-.56v3.03h-1.05ZM432.41,212.67c0,.8.16,1.39.49,1.78s.72.57,1.18.57.87-.2,1.2-.59.5-1.01.5-1.84-.16-1.39-.49-1.78-.72-.59-1.17-.59-.85.21-1.19.63-.52,1.03-.52,1.83Z"/>
    </g>
  </g>
  <text class="cls-6" transform="translate(433.42 277.85) rotate(-90)"><tspan class="cls-8" x="0" y="0">P</tspan><tspan x="6.67" y="0">ea</tspan></text>
  <g>
    <text class="cls-2" transform="translate(450.75 242.48)"><tspan x="0" y="0">t</tspan></text>
    <g>
      <path d="M450.1,215.77v-7.58h-2.83v-1.01h6.81v1.01h-2.84v7.58h-1.14Z"/>
      <path d="M457.41,214.82l.15.93c-.3.06-.56.09-.8.09-.38,0-.68-.06-.89-.18s-.36-.28-.45-.48-.13-.61-.13-1.25v-3.58h-.77v-.82h.77v-1.54l1.05-.63v2.17h1.06v.82h-1.06v3.64c0,.3.02.49.06.58s.1.15.18.21.2.08.36.08c.12,0,.27-.01.46-.04Z"/>
    </g>
  </g>
  <text class="cls-6" transform="translate(455.62 276.37) rotate(-90)"><tspan class="cls-7" x="0" y="0">T</tspan><tspan x="5.19" y="0">ea</tspan></text>
  <g>
    <text class="cls-2" transform="translate(493.8 242.48)"><tspan x="0" y="0">k</tspan></text>
    <g>
      <path d="M490.26,215.75v-8.59h1.14v4.26l4.27-4.26h1.54l-3.6,3.48,3.76,5.11h-1.5l-3.06-4.35-1.41,1.37v2.98h-1.14Z"/>
      <path d="M498.18,215.75v-8.59h1.05v4.9l2.5-2.53h1.37l-2.38,2.31,2.62,3.91h-1.3l-2.06-3.18-.74.71v2.47h-1.05Z"/>
    </g>
  </g>
  <text class="cls-6" transform="translate(500 277.04) rotate(-90)"><tspan class="cls-8" x="0" y="0">C</tspan><tspan x="7.22" y="0">ar</tspan></text>
  <g>
    <text class="cls-2" transform="translate(515.61 242.48)"><tspan x="0" y="0">f</tspan></text>
    <g>
      <path d="M513.94,215.75v-8.59h5.79v1.01h-4.66v2.66h4.03v1.01h-4.03v3.9h-1.14Z"/>
      <path d="M521.33,215.75v-5.4h-.93v-.82h.93v-.66c0-.42.04-.73.11-.93.1-.27.28-.5.54-.67s.61-.25,1.08-.25c.3,0,.62.04.98.11l-.16.92c-.22-.04-.43-.06-.62-.06-.32,0-.55.07-.68.21s-.2.39-.2.77v.57h1.21v.82h-1.21v5.4h-1.05Z"/>
    </g>
  </g>
  <text class="cls-6" transform="translate(522.19 273.99) rotate(-90)"><tspan class="cls-8" x="0" y="0">F</tspan><tspan x="6.11" y="0">ly</tspan></text>
  <g>
    <text class="cls-2" transform="translate(471.2 242.48)"><tspan x="0" y="0">tʃ</tspan></text>
    <g>
      <path d="M474.09,212.74l1.14.29c-.24.93-.67,1.65-1.29,2.14s-1.38.74-2.27.74-1.68-.19-2.26-.57-1.02-.92-1.32-1.64-.45-1.48-.45-2.3c0-.89.17-1.67.51-2.34s.83-1.17,1.46-1.52,1.33-.52,2.08-.52c.86,0,1.58.22,2.17.66s.99,1.05,1.22,1.85l-1.12.26c-.2-.62-.49-1.08-.87-1.37s-.86-.43-1.43-.43c-.66,0-1.21.16-1.66.47s-.75.74-.93,1.27-.27,1.08-.27,1.65c0,.73.11,1.37.32,1.91s.54.95.99,1.22.94.4,1.46.4c.64,0,1.18-.18,1.62-.55s.74-.91.9-1.63Z"/>
      <path d="M480.55,213.47l1.04.13c-.11.71-.4,1.27-.87,1.68s-1.04.61-1.72.61c-.85,0-1.54-.28-2.05-.83s-.78-1.35-.78-2.39c0-.67.11-1.26.33-1.76s.56-.88,1.02-1.13.95-.38,1.49-.38c.68,0,1.23.17,1.66.51s.71.83.83,1.46l-1.03.16c-.1-.42-.27-.73-.52-.94s-.55-.32-.9-.32c-.53,0-.96.19-1.29.57s-.5.98-.5,1.81.16,1.44.48,1.82.74.57,1.25.57c.41,0,.76-.13,1.04-.38s.45-.64.53-1.17Z"/>
    </g>
  </g>
  <text class="cls-6" transform="translate(477.81 294.52) rotate(-90)"><tspan class="cls-8" x="0" y="0">Ch</tspan><tspan x="12.78" y="0">eese</tspan></text>
  <text class="cls-5" transform="translate(423.13 192.85)"><tspan x="0" y="0">Unvoiced Consonant</tspan></text>
</svg>